ISO-10303-21;
HEADER;
/* Generated by software containing ST-Developer
 * from STEP Tools, Inc. (www.steptools.com) 
 */
/* OPTION: using custom renumber hook */

FILE_DESCRIPTION(
/* description */ ('STEP AP242 Edition 2',
'CAx-IF Rec.Pracs.---Representation and Presentation of Product Manufa
cturing Information (PMI)---4.0---2014-10-13',
'CAx-IF Rec.Pracs.---3D Tessellated Geometry---0.4---2014-09-14','2;1',
'CAx-IF Rec.Pracs.---User Defined Attributes---1.5---2016-08-15'),
/* implementation_level */ '2;1');

FILE_NAME(
/* name */ 'Keycaps - 1.5u',
/* time_stamp */ '2026-04-23T14:41:36Z',
/* author */ (''),
/* organization */ (''),
/* preprocessor_version */ 'ST-DEVELOPER v20',
/* originating_system */ 'ONSHAPE BY PTC INC, 1.213',
/* authorisation */ '  ');

FILE_SCHEMA (('AP242_MANAGED_MODEL_BASED_3D_ENGINEERING_MIM_LF { 1 0 10303 442 3 1 4 }'));
ENDSEC;

DATA;
#10=SHAPE_REPRESENTATION_RELATIONSHIP('','',#1123,#11);
#11=ADVANCED_BREP_SHAPE_REPRESENTATION('',(#1121),#1881);
#12=SPHERICAL_SURFACE('',#1195,0.00061008);
#13=SPHERICAL_SURFACE('',#1200,0.00061008);
#14=SPHERICAL_SURFACE('',#1205,0.00061008);
#15=SPHERICAL_SURFACE('',#1210,0.00061008);
#16=ELLIPSE('',#1178,0.00068938004787901,0.00061008);
#17=ELLIPSE('',#1179,0.00068938004787901,0.00061008);
#18=ELLIPSE('',#1181,0.000688943737450766,0.00061008);
#19=ELLIPSE('',#1182,0.000688943737450766,0.00061008);
#20=ELLIPSE('',#1184,0.000686355321524542,0.00061008);
#21=ELLIPSE('',#1185,0.000686355321524542,0.00061008);
#22=ELLIPSE('',#1187,0.000686793276340191,0.00061008);
#23=ELLIPSE('',#1188,0.000686793276340191,0.00061008);
#24=B_SPLINE_SURFACE_WITH_KNOTS('',3,1,((#1751,#1752),(#1753,#1754),(#1755,
#1756),(#1757,#1758)),.SURF_OF_LINEAR_EXTRUSION.,.F.,.F.,.F.,(4,4),(2,2),
(2.21269922766004,3.67122575207531),(0.,1.),.PIECEWISE_BEZIER_KNOTS.);
#25=B_SPLINE_SURFACE_WITH_KNOTS('',3,1,((#1770,#1771),(#1772,#1773),(#1774,
#1775),(#1776,#1777)),.SURF_OF_LINEAR_EXTRUSION.,.F.,.F.,.F.,(4,4),(2,2),
(2.61589480947471,4.07542397912056),(0.,1.),.PIECEWISE_BEZIER_KNOTS.);
#26=B_SPLINE_SURFACE_WITH_KNOTS('',3,1,((#1789,#1790),(#1791,#1792),(#1793,
#1794),(#1795,#1796)),.SURF_OF_LINEAR_EXTRUSION.,.F.,.F.,.F.,(4,4),(2,2),
(2.21817152441766,3.68007071278863),(0.,1.),.PIECEWISE_BEZIER_KNOTS.);
#27=B_SPLINE_SURFACE_WITH_KNOTS('',3,1,((#1808,#1809),(#1810,#1811),(#1812,
#1813),(#1814,#1815)),.SURF_OF_LINEAR_EXTRUSION.,.F.,.F.,.F.,(4,4),(2,2),
(2.59912563844166,4.06004371215396),(0.,1.),.PIECEWISE_BEZIER_KNOTS.);
#28=CYLINDRICAL_SURFACE('',#1131,0.0026);
#29=CYLINDRICAL_SURFACE('',#1136,0.0026);
#30=CYLINDRICAL_SURFACE('',#1138,0.0026);
#31=CYLINDRICAL_SURFACE('',#1154,0.0003);
#32=CYLINDRICAL_SURFACE('',#1159,0.0003);
#33=CYLINDRICAL_SURFACE('',#1164,0.0003);
#34=CYLINDRICAL_SURFACE('',#1169,0.0003);
#35=CYLINDRICAL_SURFACE('',#1173,0.0026);
#36=CYLINDRICAL_SURFACE('',#1192,0.00061008);
#37=CYLINDRICAL_SURFACE('',#1198,0.00061008);
#38=CYLINDRICAL_SURFACE('',#1203,0.00061008);
#39=CYLINDRICAL_SURFACE('',#1208,0.00061008);
#40=CYLINDRICAL_SURFACE('',#1212,0.00061008);
#41=CYLINDRICAL_SURFACE('',#1214,0.00061008);
#42=CYLINDRICAL_SURFACE('',#1216,0.00061008);
#43=CYLINDRICAL_SURFACE('',#1218,0.00061008);
#44=CIRCLE('',#1126,0.0003);
#45=CIRCLE('',#1127,0.0026);
#46=CIRCLE('',#1129,0.0026);
#47=CIRCLE('',#1130,0.0003);
#48=CIRCLE('',#1132,0.0026);
#49=CIRCLE('',#1134,0.0026);
#50=CIRCLE('',#1135,0.0003);
#51=CIRCLE('',#1137,0.0026);
#52=CIRCLE('',#1139,0.0026);
#53=CIRCLE('',#1141,0.0026);
#54=CIRCLE('',#1142,0.0003);
#55=CIRCLE('',#1148,0.0003);
#56=CIRCLE('',#1149,0.0003);
#57=CIRCLE('',#1150,0.0003);
#58=CIRCLE('',#1151,0.0026);
#59=CIRCLE('',#1152,0.0003);
#60=CIRCLE('',#1193,0.00061008);
#61=CIRCLE('',#1194,0.00061008);
#62=CIRCLE('',#1196,0.00061008);
#63=CIRCLE('',#1197,0.00061008);
#64=CIRCLE('',#1199,0.00061008);
#65=CIRCLE('',#1201,0.00061008);
#66=CIRCLE('',#1202,0.00061008);
#67=CIRCLE('',#1204,0.00061008);
#68=CIRCLE('',#1206,0.00061008);
#69=CIRCLE('',#1207,0.00061008);
#70=CIRCLE('',#1209,0.00061008);
#71=CIRCLE('',#1211,0.00061008);
#72=ORIENTED_EDGE('',*,*,#380,.T.);
#73=ORIENTED_EDGE('',*,*,#381,.T.);
#74=ORIENTED_EDGE('',*,*,#382,.T.);
#75=ORIENTED_EDGE('',*,*,#383,.F.);
#76=ORIENTED_EDGE('',*,*,#384,.F.);
#77=ORIENTED_EDGE('',*,*,#385,.T.);
#78=ORIENTED_EDGE('',*,*,#386,.F.);
#79=ORIENTED_EDGE('',*,*,#387,.T.);
#80=ORIENTED_EDGE('',*,*,#388,.F.);
#81=ORIENTED_EDGE('',*,*,#389,.T.);
#82=ORIENTED_EDGE('',*,*,#390,.T.);
#83=ORIENTED_EDGE('',*,*,#391,.T.);
#84=ORIENTED_EDGE('',*,*,#392,.F.);
#85=ORIENTED_EDGE('',*,*,#393,.F.);
#86=ORIENTED_EDGE('',*,*,#394,.F.);
#87=ORIENTED_EDGE('',*,*,#395,.T.);
#88=ORIENTED_EDGE('',*,*,#396,.T.);
#89=ORIENTED_EDGE('',*,*,#388,.T.);
#90=ORIENTED_EDGE('',*,*,#397,.T.);
#91=ORIENTED_EDGE('',*,*,#398,.F.);
#92=ORIENTED_EDGE('',*,*,#399,.T.);
#93=ORIENTED_EDGE('',*,*,#400,.T.);
#94=ORIENTED_EDGE('',*,*,#401,.F.);
#95=ORIENTED_EDGE('',*,*,#402,.F.);
#96=ORIENTED_EDGE('',*,*,#403,.F.);
#97=ORIENTED_EDGE('',*,*,#404,.T.);
#98=ORIENTED_EDGE('',*,*,#405,.T.);
#99=ORIENTED_EDGE('',*,*,#398,.T.);
#100=ORIENTED_EDGE('',*,*,#406,.T.);
#101=ORIENTED_EDGE('',*,*,#407,.T.);
#102=ORIENTED_EDGE('',*,*,#386,.T.);
#103=ORIENTED_EDGE('',*,*,#408,.F.);
#104=ORIENTED_EDGE('',*,*,#409,.F.);
#105=ORIENTED_EDGE('',*,*,#410,.T.);
#106=ORIENTED_EDGE('',*,*,#411,.T.);
#107=ORIENTED_EDGE('',*,*,#412,.F.);
#108=ORIENTED_EDGE('',*,*,#413,.F.);
#109=ORIENTED_EDGE('',*,*,#414,.T.);
#110=ORIENTED_EDGE('',*,*,#415,.F.);
#111=ORIENTED_EDGE('',*,*,#416,.F.);
#112=ORIENTED_EDGE('',*,*,#417,.F.);
#113=ORIENTED_EDGE('',*,*,#418,.T.);
#114=ORIENTED_EDGE('',*,*,#419,.F.);
#115=ORIENTED_EDGE('',*,*,#420,.F.);
#116=ORIENTED_EDGE('',*,*,#421,.F.);
#117=ORIENTED_EDGE('',*,*,#416,.T.);
#118=ORIENTED_EDGE('',*,*,#422,.F.);
#119=ORIENTED_EDGE('',*,*,#418,.F.);
#120=ORIENTED_EDGE('',*,*,#423,.F.);
#121=ORIENTED_EDGE('',*,*,#424,.T.);
#122=ORIENTED_EDGE('',*,*,#420,.T.);
#123=ORIENTED_EDGE('',*,*,#425,.F.);
#124=ORIENTED_EDGE('',*,*,#424,.F.);
#125=ORIENTED_EDGE('',*,*,#426,.F.);
#126=ORIENTED_EDGE('',*,*,#427,.T.);
#127=ORIENTED_EDGE('',*,*,#428,.T.);
#128=ORIENTED_EDGE('',*,*,#429,.F.);
#129=ORIENTED_EDGE('',*,*,#430,.F.);
#130=ORIENTED_EDGE('',*,*,#431,.T.);
#131=ORIENTED_EDGE('',*,*,#432,.T.);
#132=ORIENTED_EDGE('',*,*,#433,.F.);
#133=ORIENTED_EDGE('',*,*,#395,.F.);
#134=ORIENTED_EDGE('',*,*,#434,.T.);
#135=ORIENTED_EDGE('',*,*,#435,.F.);
#136=ORIENTED_EDGE('',*,*,#406,.F.);
#137=ORIENTED_EDGE('',*,*,#436,.T.);
#138=ORIENTED_EDGE('',*,*,#437,.T.);
#139=ORIENTED_EDGE('',*,*,#438,.F.);
#140=ORIENTED_EDGE('',*,*,#439,.F.);
#141=ORIENTED_EDGE('',*,*,#440,.T.);
#142=ORIENTED_EDGE('',*,*,#441,.T.);
#143=ORIENTED_EDGE('',*,*,#442,.T.);
#144=ORIENTED_EDGE('',*,*,#443,.F.);
#145=ORIENTED_EDGE('',*,*,#444,.F.);
#146=ORIENTED_EDGE('',*,*,#445,.T.);
#147=ORIENTED_EDGE('',*,*,#446,.T.);
#148=ORIENTED_EDGE('',*,*,#404,.F.);
#149=ORIENTED_EDGE('',*,*,#447,.T.);
#150=ORIENTED_EDGE('',*,*,#448,.F.);
#151=ORIENTED_EDGE('',*,*,#449,.T.);
#152=ORIENTED_EDGE('',*,*,#450,.T.);
#153=ORIENTED_EDGE('',*,*,#451,.F.);
#154=ORIENTED_EDGE('',*,*,#452,.F.);
#155=ORIENTED_EDGE('',*,*,#453,.T.);
#156=ORIENTED_EDGE('',*,*,#425,.T.);
#157=ORIENTED_EDGE('',*,*,#419,.T.);
#158=ORIENTED_EDGE('',*,*,#415,.T.);
#159=ORIENTED_EDGE('',*,*,#422,.T.);
#160=ORIENTED_EDGE('',*,*,#440,.F.);
#161=ORIENTED_EDGE('',*,*,#454,.T.);
#162=ORIENTED_EDGE('',*,*,#382,.F.);
#163=ORIENTED_EDGE('',*,*,#455,.F.);
#164=ORIENTED_EDGE('',*,*,#454,.F.);
#165=ORIENTED_EDGE('',*,*,#439,.T.);
#166=ORIENTED_EDGE('',*,*,#456,.T.);
#167=ORIENTED_EDGE('',*,*,#383,.T.);
#168=ORIENTED_EDGE('',*,*,#456,.F.);
#169=ORIENTED_EDGE('',*,*,#438,.T.);
#170=ORIENTED_EDGE('',*,*,#457,.T.);
#171=ORIENTED_EDGE('',*,*,#384,.T.);
#172=ORIENTED_EDGE('',*,*,#437,.F.);
#173=ORIENTED_EDGE('',*,*,#436,.F.);
#174=ORIENTED_EDGE('',*,*,#408,.T.);
#175=ORIENTED_EDGE('',*,*,#385,.F.);
#176=ORIENTED_EDGE('',*,*,#457,.F.);
#177=ORIENTED_EDGE('',*,*,#446,.F.);
#178=ORIENTED_EDGE('',*,*,#458,.T.);
#179=ORIENTED_EDGE('',*,*,#399,.F.);
#180=ORIENTED_EDGE('',*,*,#405,.F.);
#181=ORIENTED_EDGE('',*,*,#445,.F.);
#182=ORIENTED_EDGE('',*,*,#459,.T.);
#183=ORIENTED_EDGE('',*,*,#400,.F.);
#184=ORIENTED_EDGE('',*,*,#458,.F.);
#185=ORIENTED_EDGE('',*,*,#459,.F.);
#186=ORIENTED_EDGE('',*,*,#444,.T.);
#187=ORIENTED_EDGE('',*,*,#460,.T.);
#188=ORIENTED_EDGE('',*,*,#401,.T.);
#189=ORIENTED_EDGE('',*,*,#460,.F.);
#190=ORIENTED_EDGE('',*,*,#443,.T.);
#191=ORIENTED_EDGE('',*,*,#461,.T.);
#192=ORIENTED_EDGE('',*,*,#402,.T.);
#193=ORIENTED_EDGE('',*,*,#442,.F.);
#194=ORIENTED_EDGE('',*,*,#441,.F.);
#195=ORIENTED_EDGE('',*,*,#403,.T.);
#196=ORIENTED_EDGE('',*,*,#397,.F.);
#197=ORIENTED_EDGE('',*,*,#461,.F.);
#198=ORIENTED_EDGE('',*,*,#447,.F.);
#199=ORIENTED_EDGE('',*,*,#462,.T.);
#200=ORIENTED_EDGE('',*,*,#410,.F.);
#201=ORIENTED_EDGE('',*,*,#463,.F.);
#202=ORIENTED_EDGE('',*,*,#453,.F.);
#203=ORIENTED_EDGE('',*,*,#464,.T.);
#204=ORIENTED_EDGE('',*,*,#411,.F.);
#205=ORIENTED_EDGE('',*,*,#462,.F.);
#206=ORIENTED_EDGE('',*,*,#464,.F.);
#207=ORIENTED_EDGE('',*,*,#452,.T.);
#208=ORIENTED_EDGE('',*,*,#465,.T.);
#209=ORIENTED_EDGE('',*,*,#412,.T.);
#210=ORIENTED_EDGE('',*,*,#465,.F.);
#211=ORIENTED_EDGE('',*,*,#451,.T.);
#212=ORIENTED_EDGE('',*,*,#466,.T.);
#213=ORIENTED_EDGE('',*,*,#413,.T.);
#214=ORIENTED_EDGE('',*,*,#450,.F.);
#215=ORIENTED_EDGE('',*,*,#449,.F.);
#216=ORIENTED_EDGE('',*,*,#467,.T.);
#217=ORIENTED_EDGE('',*,*,#414,.F.);
#218=ORIENTED_EDGE('',*,*,#466,.F.);
#219=ORIENTED_EDGE('',*,*,#432,.F.);
#220=ORIENTED_EDGE('',*,*,#468,.T.);
#221=ORIENTED_EDGE('',*,*,#390,.F.);
#222=ORIENTED_EDGE('',*,*,#469,.F.);
#223=ORIENTED_EDGE('',*,*,#431,.F.);
#224=ORIENTED_EDGE('',*,*,#470,.T.);
#225=ORIENTED_EDGE('',*,*,#391,.F.);
#226=ORIENTED_EDGE('',*,*,#468,.F.);
#227=ORIENTED_EDGE('',*,*,#470,.F.);
#228=ORIENTED_EDGE('',*,*,#430,.T.);
#229=ORIENTED_EDGE('',*,*,#471,.T.);
#230=ORIENTED_EDGE('',*,*,#392,.T.);
#231=ORIENTED_EDGE('',*,*,#471,.F.);
#232=ORIENTED_EDGE('',*,*,#429,.T.);
#233=ORIENTED_EDGE('',*,*,#472,.T.);
#234=ORIENTED_EDGE('',*,*,#393,.T.);
#235=ORIENTED_EDGE('',*,*,#428,.F.);
#236=ORIENTED_EDGE('',*,*,#427,.F.);
#237=ORIENTED_EDGE('',*,*,#394,.T.);
#238=ORIENTED_EDGE('',*,*,#387,.F.);
#239=ORIENTED_EDGE('',*,*,#472,.F.);
#240=ORIENTED_EDGE('',*,*,#434,.F.);
#241=ORIENTED_EDGE('',*,*,#455,.T.);
#242=ORIENTED_EDGE('',*,*,#381,.F.);
#243=ORIENTED_EDGE('',*,*,#473,.F.);
#244=ORIENTED_EDGE('',*,*,#448,.T.);
#245=ORIENTED_EDGE('',*,*,#463,.T.);
#246=ORIENTED_EDGE('',*,*,#409,.T.);
#247=ORIENTED_EDGE('',*,*,#467,.F.);
#248=ORIENTED_EDGE('',*,*,#421,.T.);
#249=ORIENTED_EDGE('',*,*,#474,.F.);
#250=ORIENTED_EDGE('',*,*,#475,.F.);
#251=ORIENTED_EDGE('',*,*,#476,.T.);
#252=ORIENTED_EDGE('',*,*,#426,.T.);
#253=ORIENTED_EDGE('',*,*,#477,.F.);
#254=ORIENTED_EDGE('',*,*,#478,.F.);
#255=ORIENTED_EDGE('',*,*,#474,.T.);
#256=ORIENTED_EDGE('',*,*,#423,.T.);
#257=ORIENTED_EDGE('',*,*,#479,.F.);
#258=ORIENTED_EDGE('',*,*,#480,.F.);
#259=ORIENTED_EDGE('',*,*,#477,.T.);
#260=ORIENTED_EDGE('',*,*,#481,.F.);
#261=ORIENTED_EDGE('',*,*,#482,.F.);
#262=ORIENTED_EDGE('',*,*,#483,.T.);
#263=ORIENTED_EDGE('',*,*,#484,.T.);
#264=ORIENTED_EDGE('',*,*,#485,.T.);
#265=ORIENTED_EDGE('',*,*,#486,.F.);
#266=ORIENTED_EDGE('',*,*,#487,.F.);
#267=ORIENTED_EDGE('',*,*,#482,.T.);
#268=ORIENTED_EDGE('',*,*,#488,.F.);
#269=ORIENTED_EDGE('',*,*,#489,.F.);
#270=ORIENTED_EDGE('',*,*,#490,.T.);
#271=ORIENTED_EDGE('',*,*,#486,.T.);
#272=ORIENTED_EDGE('',*,*,#491,.T.);
#273=ORIENTED_EDGE('',*,*,#492,.F.);
#274=ORIENTED_EDGE('',*,*,#493,.F.);
#275=ORIENTED_EDGE('',*,*,#489,.T.);
#276=ORIENTED_EDGE('',*,*,#494,.F.);
#277=ORIENTED_EDGE('',*,*,#495,.F.);
#278=ORIENTED_EDGE('',*,*,#496,.T.);
#279=ORIENTED_EDGE('',*,*,#492,.T.);
#280=ORIENTED_EDGE('',*,*,#497,.T.);
#281=ORIENTED_EDGE('',*,*,#498,.F.);
#282=ORIENTED_EDGE('',*,*,#499,.F.);
#283=ORIENTED_EDGE('',*,*,#495,.T.);
#284=ORIENTED_EDGE('',*,*,#500,.F.);
#285=ORIENTED_EDGE('',*,*,#501,.F.);
#286=ORIENTED_EDGE('',*,*,#502,.T.);
#287=ORIENTED_EDGE('',*,*,#498,.T.);
#288=ORIENTED_EDGE('',*,*,#503,.T.);
#289=ORIENTED_EDGE('',*,*,#484,.F.);
#290=ORIENTED_EDGE('',*,*,#504,.F.);
#291=ORIENTED_EDGE('',*,*,#501,.T.);
#292=ORIENTED_EDGE('',*,*,#417,.T.);
#293=ORIENTED_EDGE('',*,*,#476,.F.);
#294=ORIENTED_EDGE('',*,*,#505,.F.);
#295=ORIENTED_EDGE('',*,*,#479,.T.);
#296=ORIENTED_EDGE('',*,*,#483,.F.);
#297=ORIENTED_EDGE('',*,*,#487,.T.);
#298=ORIENTED_EDGE('',*,*,#490,.F.);
#299=ORIENTED_EDGE('',*,*,#493,.T.);
#300=ORIENTED_EDGE('',*,*,#496,.F.);
#301=ORIENTED_EDGE('',*,*,#499,.T.);
#302=ORIENTED_EDGE('',*,*,#502,.F.);
#303=ORIENTED_EDGE('',*,*,#504,.T.);
#304=ORIENTED_EDGE('',*,*,#475,.T.);
#305=ORIENTED_EDGE('',*,*,#478,.T.);
#306=ORIENTED_EDGE('',*,*,#480,.T.);
#307=ORIENTED_EDGE('',*,*,#505,.T.);
#308=ORIENTED_EDGE('',*,*,#506,.T.);
#309=ORIENTED_EDGE('',*,*,#507,.T.);
#310=ORIENTED_EDGE('',*,*,#508,.T.);
#311=ORIENTED_EDGE('',*,*,#509,.T.);
#312=ORIENTED_EDGE('',*,*,#510,.T.);
#313=ORIENTED_EDGE('',*,*,#509,.F.);
#314=ORIENTED_EDGE('',*,*,#511,.F.);
#315=ORIENTED_EDGE('',*,*,#512,.F.);
#316=ORIENTED_EDGE('',*,*,#511,.T.);
#317=ORIENTED_EDGE('',*,*,#513,.T.);
#318=ORIENTED_EDGE('',*,*,#514,.F.);
#319=ORIENTED_EDGE('',*,*,#515,.T.);
#320=ORIENTED_EDGE('',*,*,#516,.F.);
#321=ORIENTED_EDGE('',*,*,#513,.F.);
#322=ORIENTED_EDGE('',*,*,#508,.F.);
#323=ORIENTED_EDGE('',*,*,#517,.T.);
#324=ORIENTED_EDGE('',*,*,#518,.T.);
#325=ORIENTED_EDGE('',*,*,#515,.F.);
#326=ORIENTED_EDGE('',*,*,#519,.T.);
#327=ORIENTED_EDGE('',*,*,#520,.F.);
#328=ORIENTED_EDGE('',*,*,#517,.F.);
#329=ORIENTED_EDGE('',*,*,#507,.F.);
#330=ORIENTED_EDGE('',*,*,#521,.F.);
#331=ORIENTED_EDGE('',*,*,#522,.T.);
#332=ORIENTED_EDGE('',*,*,#519,.F.);
#333=ORIENTED_EDGE('',*,*,#521,.T.);
#334=ORIENTED_EDGE('',*,*,#506,.F.);
#335=ORIENTED_EDGE('',*,*,#523,.F.);
#336=ORIENTED_EDGE('',*,*,#524,.F.);
#337=ORIENTED_EDGE('',*,*,#525,.T.);
#338=ORIENTED_EDGE('',*,*,#523,.T.);
#339=ORIENTED_EDGE('',*,*,#510,.F.);
#340=ORIENTED_EDGE('',*,*,#503,.F.);
#341=ORIENTED_EDGE('',*,*,#526,.F.);
#342=ORIENTED_EDGE('',*,*,#525,.F.);
#343=ORIENTED_EDGE('',*,*,#527,.F.);
#344=ORIENTED_EDGE('',*,*,#524,.T.);
#345=ORIENTED_EDGE('',*,*,#526,.T.);
#346=ORIENTED_EDGE('',*,*,#500,.T.);
#347=ORIENTED_EDGE('',*,*,#528,.T.);
#348=ORIENTED_EDGE('',*,*,#522,.F.);
#349=ORIENTED_EDGE('',*,*,#528,.F.);
#350=ORIENTED_EDGE('',*,*,#497,.F.);
#351=ORIENTED_EDGE('',*,*,#529,.F.);
#352=ORIENTED_EDGE('',*,*,#494,.T.);
#353=ORIENTED_EDGE('',*,*,#530,.T.);
#354=ORIENTED_EDGE('',*,*,#520,.T.);
#355=ORIENTED_EDGE('',*,*,#529,.T.);
#356=ORIENTED_EDGE('',*,*,#491,.F.);
#357=ORIENTED_EDGE('',*,*,#531,.F.);
#358=ORIENTED_EDGE('',*,*,#518,.F.);
#359=ORIENTED_EDGE('',*,*,#530,.F.);
#360=ORIENTED_EDGE('',*,*,#488,.T.);
#361=ORIENTED_EDGE('',*,*,#532,.T.);
#362=ORIENTED_EDGE('',*,*,#516,.T.);
#363=ORIENTED_EDGE('',*,*,#531,.T.);
#364=ORIENTED_EDGE('',*,*,#485,.F.);
#365=ORIENTED_EDGE('',*,*,#533,.F.);
#366=ORIENTED_EDGE('',*,*,#514,.T.);
#367=ORIENTED_EDGE('',*,*,#532,.F.);
#368=ORIENTED_EDGE('',*,*,#512,.T.);
#369=ORIENTED_EDGE('',*,*,#533,.T.);
#370=ORIENTED_EDGE('',*,*,#481,.T.);
#371=ORIENTED_EDGE('',*,*,#527,.T.);
#372=ORIENTED_EDGE('',*,*,#433,.T.);
#373=ORIENTED_EDGE('',*,*,#469,.T.);
#374=ORIENTED_EDGE('',*,*,#389,.F.);
#375=ORIENTED_EDGE('',*,*,#396,.F.);
#376=ORIENTED_EDGE('',*,*,#435,.T.);
#377=ORIENTED_EDGE('',*,*,#473,.T.);
#378=ORIENTED_EDGE('',*,*,#380,.F.);
#379=ORIENTED_EDGE('',*,*,#407,.F.);
#380=EDGE_CURVE('',#534,#535,#630,.T.);
#381=EDGE_CURVE('',#535,#536,#631,.T.);
#382=EDGE_CURVE('',#536,#537,#632,.T.);
#383=EDGE_CURVE('',#538,#537,#44,.T.);
#384=EDGE_CURVE('',#539,#538,#633,.T.);
#385=EDGE_CURVE('',#539,#540,#634,.T.);
#386=EDGE_CURVE('',#534,#540,#45,.T.);
#387=EDGE_CURVE('',#541,#542,#635,.T.);
#388=EDGE_CURVE('',#543,#542,#46,.T.);
#389=EDGE_CURVE('',#543,#544,#636,.T.);
#390=EDGE_CURVE('',#544,#545,#637,.T.);
#391=EDGE_CURVE('',#545,#546,#638,.T.);
#392=EDGE_CURVE('',#547,#546,#47,.T.);
#393=EDGE_CURVE('',#541,#547,#639,.T.);
#394=EDGE_CURVE('',#548,#542,#640,.T.);
#395=EDGE_CURVE('',#548,#549,#48,.T.);
#396=EDGE_CURVE('',#549,#543,#641,.T.);
#397=EDGE_CURVE('',#550,#551,#642,.T.);
#398=EDGE_CURVE('',#552,#551,#49,.T.);
#399=EDGE_CURVE('',#552,#553,#643,.T.);
#400=EDGE_CURVE('',#553,#554,#644,.T.);
#401=EDGE_CURVE('',#555,#554,#50,.T.);
#402=EDGE_CURVE('',#550,#555,#645,.T.);
#403=EDGE_CURVE('',#556,#551,#646,.T.);
#404=EDGE_CURVE('',#556,#557,#51,.T.);
#405=EDGE_CURVE('',#557,#552,#647,.T.);
#406=EDGE_CURVE('',#558,#559,#52,.T.);
#407=EDGE_CURVE('',#559,#534,#648,.T.);
#408=EDGE_CURVE('',#558,#540,#649,.T.);
#409=EDGE_CURVE('',#560,#561,#53,.T.);
#410=EDGE_CURVE('',#560,#562,#650,.T.);
#411=EDGE_CURVE('',#562,#563,#651,.T.);
#412=EDGE_CURVE('',#564,#563,#54,.T.);
#413=EDGE_CURVE('',#565,#564,#652,.T.);
#414=EDGE_CURVE('',#565,#561,#653,.T.);
#415=EDGE_CURVE('',#566,#567,#654,.T.);
#416=EDGE_CURVE('',#568,#566,#655,.T.);
#417=EDGE_CURVE('',#569,#568,#656,.T.);
#418=EDGE_CURVE('',#569,#567,#657,.T.);
#419=EDGE_CURVE('',#570,#566,#658,.T.);
#420=EDGE_CURVE('',#571,#570,#659,.T.);
#421=EDGE_CURVE('',#568,#571,#660,.T.);
#422=EDGE_CURVE('',#567,#572,#661,.T.);
#423=EDGE_CURVE('',#573,#569,#662,.T.);
#424=EDGE_CURVE('',#573,#572,#663,.T.);
#425=EDGE_CURVE('',#572,#570,#664,.T.);
#426=EDGE_CURVE('',#571,#573,#665,.T.);
#427=EDGE_CURVE('',#548,#574,#666,.T.);
#428=EDGE_CURVE('',#574,#575,#667,.T.);
#429=EDGE_CURVE('',#576,#575,#668,.T.);
#430=EDGE_CURVE('',#577,#576,#55,.T.);
#431=EDGE_CURVE('',#577,#578,#669,.T.);
#432=EDGE_CURVE('',#578,#579,#670,.T.);
#433=EDGE_CURVE('',#549,#579,#671,.T.);
#434=EDGE_CURVE('',#580,#581,#672,.T.);
#435=EDGE_CURVE('',#559,#581,#673,.T.);
#436=EDGE_CURVE('',#558,#582,#674,.T.);
#437=EDGE_CURVE('',#582,#583,#675,.T.);
#438=EDGE_CURVE('',#584,#583,#676,.T.);
#439=EDGE_CURVE('',#585,#584,#56,.T.);
#440=EDGE_CURVE('',#585,#580,#677,.T.);
#441=EDGE_CURVE('',#556,#586,#678,.T.);
#442=EDGE_CURVE('',#586,#587,#679,.T.);
#443=EDGE_CURVE('',#588,#587,#680,.T.);
#444=EDGE_CURVE('',#589,#588,#57,.T.);
#445=EDGE_CURVE('',#589,#590,#681,.T.);
#446=EDGE_CURVE('',#590,#557,#682,.T.);
#447=EDGE_CURVE('',#591,#592,#683,.T.);
#448=EDGE_CURVE('',#593,#592,#58,.T.);
#449=EDGE_CURVE('',#593,#594,#684,.T.);
#450=EDGE_CURVE('',#594,#595,#685,.T.);
#451=EDGE_CURVE('',#596,#595,#686,.T.);
#452=EDGE_CURVE('',#597,#596,#59,.T.);
#453=EDGE_CURVE('',#597,#591,#687,.T.);
#454=EDGE_CURVE('',#585,#537,#688,.T.);
#455=EDGE_CURVE('',#580,#536,#689,.T.);
#456=EDGE_CURVE('',#584,#538,#690,.T.);
#457=EDGE_CURVE('',#583,#539,#691,.T.);
#458=EDGE_CURVE('',#590,#553,#692,.T.);
#459=EDGE_CURVE('',#589,#554,#693,.T.);
#460=EDGE_CURVE('',#588,#555,#694,.T.);
#461=EDGE_CURVE('',#587,#550,#695,.T.);
#462=EDGE_CURVE('',#591,#562,#696,.T.);
#463=EDGE_CURVE('',#592,#560,#697,.T.);
#464=EDGE_CURVE('',#597,#563,#698,.T.);
#465=EDGE_CURVE('',#596,#564,#699,.T.);
#466=EDGE_CURVE('',#595,#565,#700,.T.);
#467=EDGE_CURVE('',#593,#561,#701,.T.);
#468=EDGE_CURVE('',#578,#545,#702,.T.);
#469=EDGE_CURVE('',#579,#544,#703,.T.);
#470=EDGE_CURVE('',#577,#546,#704,.T.);
#471=EDGE_CURVE('',#576,#547,#705,.T.);
#472=EDGE_CURVE('',#575,#541,#706,.T.);
#473=EDGE_CURVE('',#581,#535,#707,.T.);
#474=EDGE_CURVE('',#598,#571,#708,.T.);
#475=EDGE_CURVE('',#599,#598,#709,.T.);
#476=EDGE_CURVE('',#599,#568,#710,.T.);
#477=EDGE_CURVE('',#600,#573,#711,.T.);
#478=EDGE_CURVE('',#598,#600,#712,.T.);
#479=EDGE_CURVE('',#601,#569,#713,.T.);
#480=EDGE_CURVE('',#600,#601,#714,.T.);
#481=EDGE_CURVE('',#602,#603,#715,.T.);
#482=EDGE_CURVE('',#604,#602,#716,.T.);
#483=EDGE_CURVE('',#604,#605,#717,.T.);
#484=EDGE_CURVE('',#605,#603,#718,.T.);
#485=EDGE_CURVE('',#602,#606,#16,.T.);
#486=EDGE_CURVE('',#607,#606,#719,.T.);
#487=EDGE_CURVE('',#604,#607,#17,.T.);
#488=EDGE_CURVE('',#608,#606,#720,.T.);
#489=EDGE_CURVE('',#609,#608,#721,.T.);
#490=EDGE_CURVE('',#609,#607,#722,.T.);
#491=EDGE_CURVE('',#608,#610,#18,.T.);
#492=EDGE_CURVE('',#611,#610,#723,.T.);
#493=EDGE_CURVE('',#609,#611,#19,.T.);
#494=EDGE_CURVE('',#612,#610,#724,.T.);
#495=EDGE_CURVE('',#613,#612,#725,.T.);
#496=EDGE_CURVE('',#613,#611,#726,.T.);
#497=EDGE_CURVE('',#612,#614,#20,.T.);
#498=EDGE_CURVE('',#615,#614,#727,.T.);
#499=EDGE_CURVE('',#613,#615,#21,.T.);
#500=EDGE_CURVE('',#616,#614,#728,.T.);
#501=EDGE_CURVE('',#617,#616,#729,.T.);
#502=EDGE_CURVE('',#617,#615,#730,.T.);
#503=EDGE_CURVE('',#616,#603,#22,.T.);
#504=EDGE_CURVE('',#617,#605,#23,.T.);
#505=EDGE_CURVE('',#601,#599,#731,.T.);
#506=EDGE_CURVE('',#618,#619,#732,.T.);
#507=EDGE_CURVE('',#619,#620,#733,.T.);
#508=EDGE_CURVE('',#620,#621,#734,.T.);
#509=EDGE_CURVE('',#621,#618,#735,.T.);
#510=EDGE_CURVE('',#622,#618,#60,.F.);
#511=EDGE_CURVE('',#623,#621,#61,.T.);
#512=EDGE_CURVE('',#622,#623,#736,.F.);
#513=EDGE_CURVE('',#621,#624,#62,.T.);
#514=EDGE_CURVE('',#623,#624,#63,.F.);
#515=EDGE_CURVE('',#620,#625,#64,.F.);
#516=EDGE_CURVE('',#624,#625,#737,.F.);
#517=EDGE_CURVE('',#620,#626,#65,.T.);
#518=EDGE_CURVE('',#626,#625,#66,.T.);
#519=EDGE_CURVE('',#619,#627,#67,.F.);
#520=EDGE_CURVE('',#626,#627,#738,.F.);
#521=EDGE_CURVE('',#628,#619,#68,.F.);
#522=EDGE_CURVE('',#628,#627,#69,.T.);
#523=EDGE_CURVE('',#629,#618,#70,.T.);
#524=EDGE_CURVE('',#628,#629,#739,.F.);
#525=EDGE_CURVE('',#622,#629,#71,.T.);
#526=EDGE_CURVE('',#629,#616,#740,.F.);
#527=EDGE_CURVE('',#603,#622,#741,.T.);
#528=EDGE_CURVE('',#614,#628,#742,.T.);
#529=EDGE_CURVE('',#627,#612,#743,.F.);
#530=EDGE_CURVE('',#610,#626,#744,.T.);
#531=EDGE_CURVE('',#625,#608,#745,.F.);
#532=EDGE_CURVE('',#606,#624,#746,.T.);
#533=EDGE_CURVE('',#623,#602,#747,.F.);
#534=VERTEX_POINT('',#1539);
#535=VERTEX_POINT('',#1540);
#536=VERTEX_POINT('',#1542);
#537=VERTEX_POINT('',#1544);
#538=VERTEX_POINT('',#1546);
#539=VERTEX_POINT('',#1548);
#540=VERTEX_POINT('',#1550);
#541=VERTEX_POINT('',#1554);
#542=VERTEX_POINT('',#1555);
#543=VERTEX_POINT('',#1557);
#544=VERTEX_POINT('',#1559);
#545=VERTEX_POINT('',#1561);
#546=VERTEX_POINT('',#1563);
#547=VERTEX_POINT('',#1565);
#548=VERTEX_POINT('',#1569);
#549=VERTEX_POINT('',#1571);
#550=VERTEX_POINT('',#1575);
#551=VERTEX_POINT('',#1576);
#552=VERTEX_POINT('',#1578);
#553=VERTEX_POINT('',#1580);
#554=VERTEX_POINT('',#1582);
#555=VERTEX_POINT('',#1584);
#556=VERTEX_POINT('',#1588);
#557=VERTEX_POINT('',#1590);
#558=VERTEX_POINT('',#1594);
#559=VERTEX_POINT('',#1595);
#560=VERTEX_POINT('',#1600);
#561=VERTEX_POINT('',#1601);
#562=VERTEX_POINT('',#1603);
#563=VERTEX_POINT('',#1605);
#564=VERTEX_POINT('',#1607);
#565=VERTEX_POINT('',#1609);
#566=VERTEX_POINT('',#1613);
#567=VERTEX_POINT('',#1614);
#568=VERTEX_POINT('',#1616);
#569=VERTEX_POINT('',#1618);
#570=VERTEX_POINT('',#1622);
#571=VERTEX_POINT('',#1624);
#572=VERTEX_POINT('',#1628);
#573=VERTEX_POINT('',#1630);
#574=VERTEX_POINT('',#1637);
#575=VERTEX_POINT('',#1639);
#576=VERTEX_POINT('',#1641);
#577=VERTEX_POINT('',#1643);
#578=VERTEX_POINT('',#1645);
#579=VERTEX_POINT('',#1647);
#580=VERTEX_POINT('',#1650);
#581=VERTEX_POINT('',#1651);
#582=VERTEX_POINT('',#1654);
#583=VERTEX_POINT('',#1656);
#584=VERTEX_POINT('',#1658);
#585=VERTEX_POINT('',#1660);
#586=VERTEX_POINT('',#1663);
#587=VERTEX_POINT('',#1665);
#588=VERTEX_POINT('',#1667);
#589=VERTEX_POINT('',#1669);
#590=VERTEX_POINT('',#1671);
#591=VERTEX_POINT('',#1674);
#592=VERTEX_POINT('',#1675);
#593=VERTEX_POINT('',#1677);
#594=VERTEX_POINT('',#1679);
#595=VERTEX_POINT('',#1681);
#596=VERTEX_POINT('',#1683);
#597=VERTEX_POINT('',#1685);
#598=VERTEX_POINT('',#1730);
#599=VERTEX_POINT('',#1732);
#600=VERTEX_POINT('',#1736);
#601=VERTEX_POINT('',#1740);
#602=VERTEX_POINT('',#1744);
#603=VERTEX_POINT('',#1745);
#604=VERTEX_POINT('',#1747);
#605=VERTEX_POINT('',#1749);
#606=VERTEX_POINT('',#1760);
#607=VERTEX_POINT('',#1762);
#608=VERTEX_POINT('',#1766);
#609=VERTEX_POINT('',#1768);
#610=VERTEX_POINT('',#1779);
#611=VERTEX_POINT('',#1781);
#612=VERTEX_POINT('',#1785);
#613=VERTEX_POINT('',#1787);
#614=VERTEX_POINT('',#1798);
#615=VERTEX_POINT('',#1800);
#616=VERTEX_POINT('',#1804);
#617=VERTEX_POINT('',#1806);
#618=VERTEX_POINT('',#1823);
#619=VERTEX_POINT('',#1824);
#620=VERTEX_POINT('',#1826);
#621=VERTEX_POINT('',#1828);
#622=VERTEX_POINT('',#1832);
#623=VERTEX_POINT('',#1834);
#624=VERTEX_POINT('',#1838);
#625=VERTEX_POINT('',#1842);
#626=VERTEX_POINT('',#1846);
#627=VERTEX_POINT('',#1850);
#628=VERTEX_POINT('',#1854);
#629=VERTEX_POINT('',#1858);
#630=LINE('',#1538,#748);
#631=LINE('',#1541,#749);
#632=LINE('',#1543,#750);
#633=LINE('',#1547,#751);
#634=LINE('',#1549,#752);
#635=LINE('',#1553,#753);
#636=LINE('',#1558,#754);
#637=LINE('',#1560,#755);
#638=LINE('',#1562,#756);
#639=LINE('',#1566,#757);
#640=LINE('',#1568,#758);
#641=LINE('',#1572,#759);
#642=LINE('',#1574,#760);
#643=LINE('',#1579,#761);
#644=LINE('',#1581,#762);
#645=LINE('',#1585,#763);
#646=LINE('',#1587,#764);
#647=LINE('',#1591,#765);
#648=LINE('',#1596,#766);
#649=LINE('',#1597,#767);
#650=LINE('',#1602,#768);
#651=LINE('',#1604,#769);
#652=LINE('',#1608,#770);
#653=LINE('',#1610,#771);
#654=LINE('',#1612,#772);
#655=LINE('',#1615,#773);
#656=LINE('',#1617,#774);
#657=LINE('',#1619,#775);
#658=LINE('',#1621,#776);
#659=LINE('',#1623,#777);
#660=LINE('',#1625,#778);
#661=LINE('',#1627,#779);
#662=LINE('',#1629,#780);
#663=LINE('',#1631,#781);
#664=LINE('',#1633,#782);
#665=LINE('',#1634,#783);
#666=LINE('',#1636,#784);
#667=LINE('',#1638,#785);
#668=LINE('',#1640,#786);
#669=LINE('',#1644,#787);
#670=LINE('',#1646,#788);
#671=LINE('',#1648,#789);
#672=LINE('',#1649,#790);
#673=LINE('',#1652,#791);
#674=LINE('',#1653,#792);
#675=LINE('',#1655,#793);
#676=LINE('',#1657,#794);
#677=LINE('',#1661,#795);
#678=LINE('',#1662,#796);
#679=LINE('',#1664,#797);
#680=LINE('',#1666,#798);
#681=LINE('',#1670,#799);
#682=LINE('',#1672,#800);
#683=LINE('',#1673,#801);
#684=LINE('',#1678,#802);
#685=LINE('',#1680,#803);
#686=LINE('',#1682,#804);
#687=LINE('',#1686,#805);
#688=LINE('',#1688,#806);
#689=LINE('',#1689,#807);
#690=LINE('',#1691,#808);
#691=LINE('',#1693,#809);
#692=LINE('',#1696,#810);
#693=LINE('',#1698,#811);
#694=LINE('',#1700,#812);
#695=LINE('',#1702,#813);
#696=LINE('',#1705,#814);
#697=LINE('',#1706,#815);
#698=LINE('',#1708,#816);
#699=LINE('',#1710,#817);
#700=LINE('',#1712,#818);
#701=LINE('',#1714,#819);
#702=LINE('',#1716,#820);
#703=LINE('',#1717,#821);
#704=LINE('',#1719,#822);
#705=LINE('',#1721,#823);
#706=LINE('',#1723,#824);
#707=LINE('',#1726,#825);
#708=LINE('',#1729,#826);
#709=LINE('',#1731,#827);
#710=LINE('',#1733,#828);
#711=LINE('',#1735,#829);
#712=LINE('',#1737,#830);
#713=LINE('',#1739,#831);
#714=LINE('',#1741,#832);
#715=LINE('',#1743,#833);
#716=LINE('',#1746,#834);
#717=LINE('',#1748,#835);
#718=LINE('',#1750,#836);
#719=LINE('',#1761,#837);
#720=LINE('',#1765,#838);
#721=LINE('',#1767,#839);
#722=LINE('',#1769,#840);
#723=LINE('',#1780,#841);
#724=LINE('',#1784,#842);
#725=LINE('',#1786,#843);
#726=LINE('',#1788,#844);
#727=LINE('',#1799,#845);
#728=LINE('',#1803,#846);
#729=LINE('',#1805,#847);
#730=LINE('',#1807,#848);
#731=LINE('',#1819,#849);
#732=LINE('',#1822,#850);
#733=LINE('',#1825,#851);
#734=LINE('',#1827,#852);
#735=LINE('',#1829,#853);
#736=LINE('',#1835,#854);
#737=LINE('',#1843,#855);
#738=LINE('',#1851,#856);
#739=LINE('',#1859,#857);
#740=LINE('',#1863,#858);
#741=LINE('',#1864,#859);
#742=LINE('',#1866,#860);
#743=LINE('',#1868,#861);
#744=LINE('',#1870,#862);
#745=LINE('',#1872,#863);
#746=LINE('',#1874,#864);
#747=LINE('',#1876,#865);
#748=VECTOR('',#1226,1.);
#749=VECTOR('',#1227,1.);
#750=VECTOR('',#1228,1.);
#751=VECTOR('',#1231,1.);
#752=VECTOR('',#1232,1.);
#753=VECTOR('',#1237,1.);
#754=VECTOR('',#1240,1.);
#755=VECTOR('',#1241,1.);
#756=VECTOR('',#1242,1.);
#757=VECTOR('',#1245,1.);
#758=VECTOR('',#1248,1.);
#759=VECTOR('',#1251,1.);
#760=VECTOR('',#1254,1.);
#761=VECTOR('',#1257,1.);
#762=VECTOR('',#1258,1.);
#763=VECTOR('',#1261,1.);
#764=VECTOR('',#1264,1.);
#765=VECTOR('',#1267,1.);
#766=VECTOR('',#1272,1.);
#767=VECTOR('',#1273,1.);
#768=VECTOR('',#1278,1.);
#769=VECTOR('',#1279,1.);
#770=VECTOR('',#1282,1.);
#771=VECTOR('',#1283,1.);
#772=VECTOR('',#1286,1.);
#773=VECTOR('',#1287,1.);
#774=VECTOR('',#1288,1.);
#775=VECTOR('',#1289,1.);
#776=VECTOR('',#1292,1.);
#777=VECTOR('',#1293,1.);
#778=VECTOR('',#1294,1.);
#779=VECTOR('',#1297,1.);
#780=VECTOR('',#1298,1.);
#781=VECTOR('',#1299,1.);
#782=VECTOR('',#1302,1.);
#783=VECTOR('',#1303,1.);
#784=VECTOR('',#1306,1.);
#785=VECTOR('',#1307,1.);
#786=VECTOR('',#1308,1.);
#787=VECTOR('',#1311,1.);
#788=VECTOR('',#1312,1.);
#789=VECTOR('',#1313,1.);
#790=VECTOR('',#1314,1.);
#791=VECTOR('',#1315,1.);
#792=VECTOR('',#1316,1.);
#793=VECTOR('',#1317,1.);
#794=VECTOR('',#1318,1.);
#795=VECTOR('',#1321,1.);
#796=VECTOR('',#1322,1.);
#797=VECTOR('',#1323,1.);
#798=VECTOR('',#1324,1.);
#799=VECTOR('',#1327,1.);
#800=VECTOR('',#1328,1.);
#801=VECTOR('',#1329,1.);
#802=VECTOR('',#1332,1.);
#803=VECTOR('',#1333,1.);
#804=VECTOR('',#1334,1.);
#805=VECTOR('',#1337,1.);
#806=VECTOR('',#1340,1.);
#807=VECTOR('',#1341,1.);
#808=VECTOR('',#1344,1.);
#809=VECTOR('',#1347,1.);
#810=VECTOR('',#1352,1.);
#811=VECTOR('',#1355,1.);
#812=VECTOR('',#1358,1.);
#813=VECTOR('',#1361,1.);
#814=VECTOR('',#1366,1.);
#815=VECTOR('',#1367,1.);
#816=VECTOR('',#1370,1.);
#817=VECTOR('',#1373,1.);
#818=VECTOR('',#1376,1.);
#819=VECTOR('',#1379,1.);
#820=VECTOR('',#1382,1.);
#821=VECTOR('',#1383,1.);
#822=VECTOR('',#1386,1.);
#823=VECTOR('',#1389,1.);
#824=VECTOR('',#1392,1.);
#825=VECTOR('',#1397,1.);
#826=VECTOR('',#1402,1.);
#827=VECTOR('',#1403,1.);
#828=VECTOR('',#1404,1.);
#829=VECTOR('',#1407,1.);
#830=VECTOR('',#1408,1.);
#831=VECTOR('',#1411,1.);
#832=VECTOR('',#1412,1.);
#833=VECTOR('',#1415,1.);
#834=VECTOR('',#1416,1.);
#835=VECTOR('',#1417,1.);
#836=VECTOR('',#1418,1.);
#837=VECTOR('',#1421,1.);
#838=VECTOR('',#1426,1.);
#839=VECTOR('',#1427,1.);
#840=VECTOR('',#1428,1.);
#841=VECTOR('',#1431,1.);
#842=VECTOR('',#1436,1.);
#843=VECTOR('',#1437,1.);
#844=VECTOR('',#1438,1.);
#845=VECTOR('',#1441,1.);
#846=VECTOR('',#1446,1.);
#847=VECTOR('',#1447,1.);
#848=VECTOR('',#1448,1.);
#849=VECTOR('',#1455,1.);
#850=VECTOR('',#1460,1.);
#851=VECTOR('',#1461,1.);
#852=VECTOR('',#1462,1.);
#853=VECTOR('',#1463,1.);
#854=VECTOR('',#1470,1.);
#855=VECTOR('',#1481,1.);
#856=VECTOR('',#1492,1.);
#857=VECTOR('',#1503,1.);
#858=VECTOR('',#1510,1.);
#859=VECTOR('',#1511,1.);
#860=VECTOR('',#1514,1.);
#861=VECTOR('',#1517,1.);
#862=VECTOR('',#1520,1.);
#863=VECTOR('',#1523,1.);
#864=VECTOR('',#1526,1.);
#865=VECTOR('',#1529,1.);
#866=EDGE_LOOP('',(#72,#73,#74,#75,#76,#77,#78));
#867=EDGE_LOOP('',(#79,#80,#81,#82,#83,#84,#85));
#868=EDGE_LOOP('',(#86,#87,#88,#89));
#869=EDGE_LOOP('',(#90,#91,#92,#93,#94,#95));
#870=EDGE_LOOP('',(#96,#97,#98,#99));
#871=EDGE_LOOP('',(#100,#101,#102,#103));
#872=EDGE_LOOP('',(#104,#105,#106,#107,#108,#109));
#873=EDGE_LOOP('',(#110,#111,#112,#113));
#874=EDGE_LOOP('',(#114,#115,#116,#117));
#875=EDGE_LOOP('',(#118,#119,#120,#121));
#876=EDGE_LOOP('',(#122,#123,#124,#125));
#877=EDGE_LOOP('',(#126,#127,#128,#129,#130,#131,#132,#133));
#878=EDGE_LOOP('',(#134,#135,#136,#137,#138,#139,#140,#141));
#879=EDGE_LOOP('',(#142,#143,#144,#145,#146,#147,#148));
#880=EDGE_LOOP('',(#149,#150,#151,#152,#153,#154,#155));
#881=EDGE_LOOP('',(#156,#157,#158,#159));
#882=EDGE_LOOP('',(#160,#161,#162,#163));
#883=EDGE_LOOP('',(#164,#165,#166,#167));
#884=EDGE_LOOP('',(#168,#169,#170,#171));
#885=EDGE_LOOP('',(#172,#173,#174,#175,#176));
#886=EDGE_LOOP('',(#177,#178,#179,#180));
#887=EDGE_LOOP('',(#181,#182,#183,#184));
#888=EDGE_LOOP('',(#185,#186,#187,#188));
#889=EDGE_LOOP('',(#189,#190,#191,#192));
#890=EDGE_LOOP('',(#193,#194,#195,#196,#197));
#891=EDGE_LOOP('',(#198,#199,#200,#201));
#892=EDGE_LOOP('',(#202,#203,#204,#205));
#893=EDGE_LOOP('',(#206,#207,#208,#209));
#894=EDGE_LOOP('',(#210,#211,#212,#213));
#895=EDGE_LOOP('',(#214,#215,#216,#217,#218));
#896=EDGE_LOOP('',(#219,#220,#221,#222));
#897=EDGE_LOOP('',(#223,#224,#225,#226));
#898=EDGE_LOOP('',(#227,#228,#229,#230));
#899=EDGE_LOOP('',(#231,#232,#233,#234));
#900=EDGE_LOOP('',(#235,#236,#237,#238,#239));
#901=EDGE_LOOP('',(#240,#241,#242,#243));
#902=EDGE_LOOP('',(#244,#245,#246,#247));
#903=EDGE_LOOP('',(#248,#249,#250,#251));
#904=EDGE_LOOP('',(#252,#253,#254,#255));
#905=EDGE_LOOP('',(#256,#257,#258,#259));
#906=EDGE_LOOP('',(#260,#261,#262,#263));
#907=EDGE_LOOP('',(#264,#265,#266,#267));
#908=EDGE_LOOP('',(#268,#269,#270,#271));
#909=EDGE_LOOP('',(#272,#273,#274,#275));
#910=EDGE_LOOP('',(#276,#277,#278,#279));
#911=EDGE_LOOP('',(#280,#281,#282,#283));
#912=EDGE_LOOP('',(#284,#285,#286,#287));
#913=EDGE_LOOP('',(#288,#289,#290,#291));
#914=EDGE_LOOP('',(#292,#293,#294,#295));
#915=EDGE_LOOP('',(#296,#297,#298,#299,#300,#301,#302,#303));
#916=EDGE_LOOP('',(#304,#305,#306,#307));
#917=EDGE_LOOP('',(#308,#309,#310,#311));
#918=EDGE_LOOP('',(#312,#313,#314,#315));
#919=EDGE_LOOP('',(#316,#317,#318));
#920=EDGE_LOOP('',(#319,#320,#321,#322));
#921=EDGE_LOOP('',(#323,#324,#325));
#922=EDGE_LOOP('',(#326,#327,#328,#329));
#923=EDGE_LOOP('',(#330,#331,#332));
#924=EDGE_LOOP('',(#333,#334,#335,#336));
#925=EDGE_LOOP('',(#337,#338,#339));
#926=EDGE_LOOP('',(#340,#341,#342,#343));
#927=EDGE_LOOP('',(#344,#345,#346,#347));
#928=EDGE_LOOP('',(#348,#349,#350,#351));
#929=EDGE_LOOP('',(#352,#353,#354,#355));
#930=EDGE_LOOP('',(#356,#357,#358,#359));
#931=EDGE_LOOP('',(#360,#361,#362,#363));
#932=EDGE_LOOP('',(#364,#365,#366,#367));
#933=EDGE_LOOP('',(#368,#369,#370,#371));
#934=EDGE_LOOP('',(#372,#373,#374,#375));
#935=EDGE_LOOP('',(#376,#377,#378,#379));
#936=FACE_BOUND('',#866,.T.);
#937=FACE_BOUND('',#867,.T.);
#938=FACE_BOUND('',#868,.T.);
#939=FACE_BOUND('',#869,.T.);
#940=FACE_BOUND('',#870,.T.);
#941=FACE_BOUND('',#871,.T.);
#942=FACE_BOUND('',#872,.T.);
#943=FACE_BOUND('',#873,.T.);
#944=FACE_BOUND('',#874,.T.);
#945=FACE_BOUND('',#875,.T.);
#946=FACE_BOUND('',#876,.T.);
#947=FACE_BOUND('',#877,.T.);
#948=FACE_BOUND('',#878,.T.);
#949=FACE_BOUND('',#879,.T.);
#950=FACE_BOUND('',#880,.T.);
#951=FACE_BOUND('',#881,.T.);
#952=FACE_BOUND('',#882,.T.);
#953=FACE_BOUND('',#883,.T.);
#954=FACE_BOUND('',#884,.T.);
#955=FACE_BOUND('',#885,.T.);
#956=FACE_BOUND('',#886,.T.);
#957=FACE_BOUND('',#887,.T.);
#958=FACE_BOUND('',#888,.T.);
#959=FACE_BOUND('',#889,.T.);
#960=FACE_BOUND('',#890,.T.);
#961=FACE_BOUND('',#891,.T.);
#962=FACE_BOUND('',#892,.T.);
#963=FACE_BOUND('',#893,.T.);
#964=FACE_BOUND('',#894,.T.);
#965=FACE_BOUND('',#895,.T.);
#966=FACE_BOUND('',#896,.T.);
#967=FACE_BOUND('',#897,.T.);
#968=FACE_BOUND('',#898,.T.);
#969=FACE_BOUND('',#899,.T.);
#970=FACE_BOUND('',#900,.T.);
#971=FACE_BOUND('',#901,.T.);
#972=FACE_BOUND('',#902,.T.);
#973=FACE_BOUND('',#903,.T.);
#974=FACE_BOUND('',#904,.T.);
#975=FACE_BOUND('',#905,.T.);
#976=FACE_BOUND('',#906,.T.);
#977=FACE_BOUND('',#907,.T.);
#978=FACE_BOUND('',#908,.T.);
#979=FACE_BOUND('',#909,.T.);
#980=FACE_BOUND('',#910,.T.);
#981=FACE_BOUND('',#911,.T.);
#982=FACE_BOUND('',#912,.T.);
#983=FACE_BOUND('',#913,.T.);
#984=FACE_BOUND('',#914,.T.);
#985=FACE_BOUND('',#915,.T.);
#986=FACE_BOUND('',#916,.T.);
#987=FACE_BOUND('',#917,.T.);
#988=FACE_BOUND('',#918,.T.);
#989=FACE_BOUND('',#919,.T.);
#990=FACE_BOUND('',#920,.T.);
#991=FACE_BOUND('',#921,.T.);
#992=FACE_BOUND('',#922,.T.);
#993=FACE_BOUND('',#923,.T.);
#994=FACE_BOUND('',#924,.T.);
#995=FACE_BOUND('',#925,.T.);
#996=FACE_BOUND('',#926,.T.);
#997=FACE_BOUND('',#927,.T.);
#998=FACE_BOUND('',#928,.T.);
#999=FACE_BOUND('',#929,.T.);
#1000=FACE_BOUND('',#930,.T.);
#1001=FACE_BOUND('',#931,.T.);
#1002=FACE_BOUND('',#932,.T.);
#1003=FACE_BOUND('',#933,.T.);
#1004=FACE_BOUND('',#934,.T.);
#1005=FACE_BOUND('',#935,.T.);
#1006=PLANE('',#1125);
#1007=PLANE('',#1128);
#1008=PLANE('',#1133);
#1009=PLANE('',#1140);
#1010=PLANE('',#1143);
#1011=PLANE('',#1144);
#1012=PLANE('',#1145);
#1013=PLANE('',#1146);
#1014=PLANE('',#1147);
#1015=PLANE('',#1153);
#1016=PLANE('',#1155);
#1017=PLANE('',#1156);
#1018=PLANE('',#1157);
#1019=PLANE('',#1158);
#1020=PLANE('',#1160);
#1021=PLANE('',#1161);
#1022=PLANE('',#1162);
#1023=PLANE('',#1163);
#1024=PLANE('',#1165);
#1025=PLANE('',#1166);
#1026=PLANE('',#1167);
#1027=PLANE('',#1168);
#1028=PLANE('',#1170);
#1029=PLANE('',#1171);
#1030=PLANE('',#1172);
#1031=PLANE('',#1174);
#1032=PLANE('',#1175);
#1033=PLANE('',#1176);
#1034=PLANE('',#1177);
#1035=PLANE('',#1180);
#1036=PLANE('',#1183);
#1037=PLANE('',#1186);
#1038=PLANE('',#1189);
#1039=PLANE('',#1190);
#1040=PLANE('',#1191);
#1041=PLANE('',#1213);
#1042=PLANE('',#1215);
#1043=PLANE('',#1217);
#1044=PLANE('',#1219);
#1045=PLANE('',#1220);
#1046=PLANE('',#1221);
#1047=ADVANCED_FACE('',(#936),#1006,.F.);
#1048=ADVANCED_FACE('',(#937),#1007,.F.);
#1049=ADVANCED_FACE('',(#938),#28,.T.);
#1050=ADVANCED_FACE('',(#939),#1008,.F.);
#1051=ADVANCED_FACE('',(#940),#29,.T.);
#1052=ADVANCED_FACE('',(#941),#30,.T.);
#1053=ADVANCED_FACE('',(#942),#1009,.F.);
#1054=ADVANCED_FACE('',(#943),#1010,.F.);
#1055=ADVANCED_FACE('',(#944),#1011,.F.);
#1056=ADVANCED_FACE('',(#945),#1012,.F.);
#1057=ADVANCED_FACE('',(#946),#1013,.F.);
#1058=ADVANCED_FACE('',(#947,#948,#949,#950,#951),#1014,.T.);
#1059=ADVANCED_FACE('',(#952),#1015,.T.);
#1060=ADVANCED_FACE('',(#953),#31,.T.);
#1061=ADVANCED_FACE('',(#954),#1016,.F.);
#1062=ADVANCED_FACE('',(#955),#1017,.T.);
#1063=ADVANCED_FACE('',(#956),#1018,.T.);
#1064=ADVANCED_FACE('',(#957),#1019,.T.);
#1065=ADVANCED_FACE('',(#958),#32,.T.);
#1066=ADVANCED_FACE('',(#959),#1020,.F.);
#1067=ADVANCED_FACE('',(#960),#1021,.T.);
#1068=ADVANCED_FACE('',(#961),#1022,.T.);
#1069=ADVANCED_FACE('',(#962),#1023,.T.);
#1070=ADVANCED_FACE('',(#963),#33,.T.);
#1071=ADVANCED_FACE('',(#964),#1024,.F.);
#1072=ADVANCED_FACE('',(#965),#1025,.T.);
#1073=ADVANCED_FACE('',(#966),#1026,.T.);
#1074=ADVANCED_FACE('',(#967),#1027,.T.);
#1075=ADVANCED_FACE('',(#968),#34,.T.);
#1076=ADVANCED_FACE('',(#969),#1028,.F.);
#1077=ADVANCED_FACE('',(#970),#1029,.T.);
#1078=ADVANCED_FACE('',(#971),#1030,.T.);
#1079=ADVANCED_FACE('',(#972),#35,.T.);
#1080=ADVANCED_FACE('',(#973),#1031,.F.);
#1081=ADVANCED_FACE('',(#974),#1032,.F.);
#1082=ADVANCED_FACE('',(#975),#1033,.F.);
#1083=ADVANCED_FACE('',(#976),#1034,.T.);
#1084=ADVANCED_FACE('',(#977),#24,.F.);
#1085=ADVANCED_FACE('',(#978),#1035,.T.);
#1086=ADVANCED_FACE('',(#979),#25,.F.);
#1087=ADVANCED_FACE('',(#980),#1036,.T.);
#1088=ADVANCED_FACE('',(#981),#26,.F.);
#1089=ADVANCED_FACE('',(#982),#1037,.T.);
#1090=ADVANCED_FACE('',(#983),#27,.F.);
#1091=ADVANCED_FACE('',(#984),#1038,.F.);
#1092=ADVANCED_FACE('',(#985,#986),#1039,.T.);
#1093=ADVANCED_FACE('',(#987),#1040,.F.);
#1094=ADVANCED_FACE('',(#988),#36,.T.);
#1095=ADVANCED_FACE('',(#989),#12,.T.);
#1096=ADVANCED_FACE('',(#990),#37,.T.);
#1097=ADVANCED_FACE('',(#991),#13,.T.);
#1098=ADVANCED_FACE('',(#992),#38,.T.);
#1099=ADVANCED_FACE('',(#993),#14,.T.);
#1100=ADVANCED_FACE('',(#994),#39,.T.);
#1101=ADVANCED_FACE('',(#995),#15,.T.);
#1102=ADVANCED_FACE('',(#996),#40,.T.);
#1103=ADVANCED_FACE('',(#997),#1041,.T.);
#1104=ADVANCED_FACE('',(#998),#41,.T.);
#1105=ADVANCED_FACE('',(#999),#1042,.T.);
#1106=ADVANCED_FACE('',(#1000),#42,.T.);
#1107=ADVANCED_FACE('',(#1001),#1043,.T.);
#1108=ADVANCED_FACE('',(#1002),#43,.T.);
#1109=ADVANCED_FACE('',(#1003),#1044,.T.);
#1110=ADVANCED_FACE('',(#1004),#1045,.F.);
#1111=ADVANCED_FACE('',(#1005),#1046,.F.);
#1112=CLOSED_SHELL('',(#1047,#1048,#1049,#1050,#1051,#1052,#1053,#1054,
#1055,#1056,#1057,#1058,#1059,#1060,#1061,#1062,#1063,#1064,#1065,#1066,
#1067,#1068,#1069,#1070,#1071,#1072,#1073,#1074,#1075,#1076,#1077,#1078,
#1079,#1080,#1081,#1082,#1083,#1084,#1085,#1086,#1087,#1088,#1089,#1090,
#1091,#1092,#1093,#1094,#1095,#1096,#1097,#1098,#1099,#1100,#1101,#1102,
#1103,#1104,#1105,#1106,#1107,#1108,#1109,#1110,#1111));
#1113=STYLED_ITEM('',(#1114),#1121);
#1114=PRESENTATION_STYLE_ASSIGNMENT((#1115));
#1115=SURFACE_STYLE_USAGE(.BOTH.,#1116);
#1116=SURFACE_SIDE_STYLE('',(#1117));
#1117=SURFACE_STYLE_FILL_AREA(#1118);
#1118=FILL_AREA_STYLE('',(#1119));
#1119=FILL_AREA_STYLE_COLOUR('',#1120);
#1120=COLOUR_RGB('',0.329411764705883,0.898039215686275,0.435294117647059);
#1121=MANIFOLD_SOLID_BREP('1.5u',#1112);
#1122=SHAPE_DEFINITION_REPRESENTATION(#1886,#1123);
#1123=SHAPE_REPRESENTATION('1.5u',(#1124),#1881);
#1124=AXIS2_PLACEMENT_3D('',#1536,#1222,#1223);
#1125=AXIS2_PLACEMENT_3D('',#1537,#1224,#1225);
#1126=AXIS2_PLACEMENT_3D('',#1545,#1229,#1230);
#1127=AXIS2_PLACEMENT_3D('',#1551,#1233,#1234);
#1128=AXIS2_PLACEMENT_3D('',#1552,#1235,#1236);
#1129=AXIS2_PLACEMENT_3D('',#1556,#1238,#1239);
#1130=AXIS2_PLACEMENT_3D('',#1564,#1243,#1244);
#1131=AXIS2_PLACEMENT_3D('',#1567,#1246,#1247);
#1132=AXIS2_PLACEMENT_3D('',#1570,#1249,#1250);
#1133=AXIS2_PLACEMENT_3D('',#1573,#1252,#1253);
#1134=AXIS2_PLACEMENT_3D('',#1577,#1255,#1256);
#1135=AXIS2_PLACEMENT_3D('',#1583,#1259,#1260);
#1136=AXIS2_PLACEMENT_3D('',#1586,#1262,#1263);
#1137=AXIS2_PLACEMENT_3D('',#1589,#1265,#1266);
#1138=AXIS2_PLACEMENT_3D('',#1592,#1268,#1269);
#1139=AXIS2_PLACEMENT_3D('',#1593,#1270,#1271);
#1140=AXIS2_PLACEMENT_3D('',#1598,#1274,#1275);
#1141=AXIS2_PLACEMENT_3D('',#1599,#1276,#1277);
#1142=AXIS2_PLACEMENT_3D('',#1606,#1280,#1281);
#1143=AXIS2_PLACEMENT_3D('',#1611,#1284,#1285);
#1144=AXIS2_PLACEMENT_3D('',#1620,#1290,#1291);
#1145=AXIS2_PLACEMENT_3D('',#1626,#1295,#1296);
#1146=AXIS2_PLACEMENT_3D('',#1632,#1300,#1301);
#1147=AXIS2_PLACEMENT_3D('',#1635,#1304,#1305);
#1148=AXIS2_PLACEMENT_3D('',#1642,#1309,#1310);
#1149=AXIS2_PLACEMENT_3D('',#1659,#1319,#1320);
#1150=AXIS2_PLACEMENT_3D('',#1668,#1325,#1326);
#1151=AXIS2_PLACEMENT_3D('',#1676,#1330,#1331);
#1152=AXIS2_PLACEMENT_3D('',#1684,#1335,#1336);
#1153=AXIS2_PLACEMENT_3D('',#1687,#1338,#1339);
#1154=AXIS2_PLACEMENT_3D('',#1690,#1342,#1343);
#1155=AXIS2_PLACEMENT_3D('',#1692,#1345,#1346);
#1156=AXIS2_PLACEMENT_3D('',#1694,#1348,#1349);
#1157=AXIS2_PLACEMENT_3D('',#1695,#1350,#1351);
#1158=AXIS2_PLACEMENT_3D('',#1697,#1353,#1354);
#1159=AXIS2_PLACEMENT_3D('',#1699,#1356,#1357);
#1160=AXIS2_PLACEMENT_3D('',#1701,#1359,#1360);
#1161=AXIS2_PLACEMENT_3D('',#1703,#1362,#1363);
#1162=AXIS2_PLACEMENT_3D('',#1704,#1364,#1365);
#1163=AXIS2_PLACEMENT_3D('',#1707,#1368,#1369);
#1164=AXIS2_PLACEMENT_3D('',#1709,#1371,#1372);
#1165=AXIS2_PLACEMENT_3D('',#1711,#1374,#1375);
#1166=AXIS2_PLACEMENT_3D('',#1713,#1377,#1378);
#1167=AXIS2_PLACEMENT_3D('',#1715,#1380,#1381);
#1168=AXIS2_PLACEMENT_3D('',#1718,#1384,#1385);
#1169=AXIS2_PLACEMENT_3D('',#1720,#1387,#1388);
#1170=AXIS2_PLACEMENT_3D('',#1722,#1390,#1391);
#1171=AXIS2_PLACEMENT_3D('',#1724,#1393,#1394);
#1172=AXIS2_PLACEMENT_3D('',#1725,#1395,#1396);
#1173=AXIS2_PLACEMENT_3D('',#1727,#1398,#1399);
#1174=AXIS2_PLACEMENT_3D('',#1728,#1400,#1401);
#1175=AXIS2_PLACEMENT_3D('',#1734,#1405,#1406);
#1176=AXIS2_PLACEMENT_3D('',#1738,#1409,#1410);
#1177=AXIS2_PLACEMENT_3D('',#1742,#1413,#1414);
#1178=AXIS2_PLACEMENT_3D('',#1759,#1419,#1420);
#1179=AXIS2_PLACEMENT_3D('',#1763,#1422,#1423);
#1180=AXIS2_PLACEMENT_3D('',#1764,#1424,#1425);
#1181=AXIS2_PLACEMENT_3D('',#1778,#1429,#1430);
#1182=AXIS2_PLACEMENT_3D('',#1782,#1432,#1433);
#1183=AXIS2_PLACEMENT_3D('',#1783,#1434,#1435);
#1184=AXIS2_PLACEMENT_3D('',#1797,#1439,#1440);
#1185=AXIS2_PLACEMENT_3D('',#1801,#1442,#1443);
#1186=AXIS2_PLACEMENT_3D('',#1802,#1444,#1445);
#1187=AXIS2_PLACEMENT_3D('',#1816,#1449,#1450);
#1188=AXIS2_PLACEMENT_3D('',#1817,#1451,#1452);
#1189=AXIS2_PLACEMENT_3D('',#1818,#1453,#1454);
#1190=AXIS2_PLACEMENT_3D('',#1820,#1456,#1457);
#1191=AXIS2_PLACEMENT_3D('',#1821,#1458,#1459);
#1192=AXIS2_PLACEMENT_3D('',#1830,#1464,#1465);
#1193=AXIS2_PLACEMENT_3D('',#1831,#1466,#1467);
#1194=AXIS2_PLACEMENT_3D('',#1833,#1468,#1469);
#1195=AXIS2_PLACEMENT_3D('',#1836,#1471,#1472);
#1196=AXIS2_PLACEMENT_3D('',#1837,#1473,#1474);
#1197=AXIS2_PLACEMENT_3D('',#1839,#1475,#1476);
#1198=AXIS2_PLACEMENT_3D('',#1840,#1477,#1478);
#1199=AXIS2_PLACEMENT_3D('',#1841,#1479,#1480);
#1200=AXIS2_PLACEMENT_3D('',#1844,#1482,#1483);
#1201=AXIS2_PLACEMENT_3D('',#1845,#1484,#1485);
#1202=AXIS2_PLACEMENT_3D('',#1847,#1486,#1487);
#1203=AXIS2_PLACEMENT_3D('',#1848,#1488,#1489);
#1204=AXIS2_PLACEMENT_3D('',#1849,#1490,#1491);
#1205=AXIS2_PLACEMENT_3D('',#1852,#1493,#1494);
#1206=AXIS2_PLACEMENT_3D('',#1853,#1495,#1496);
#1207=AXIS2_PLACEMENT_3D('',#1855,#1497,#1498);
#1208=AXIS2_PLACEMENT_3D('',#1856,#1499,#1500);
#1209=AXIS2_PLACEMENT_3D('',#1857,#1501,#1502);
#1210=AXIS2_PLACEMENT_3D('',#1860,#1504,#1505);
#1211=AXIS2_PLACEMENT_3D('',#1861,#1506,#1507);
#1212=AXIS2_PLACEMENT_3D('',#1862,#1508,#1509);
#1213=AXIS2_PLACEMENT_3D('',#1865,#1512,#1513);
#1214=AXIS2_PLACEMENT_3D('',#1867,#1515,#1516);
#1215=AXIS2_PLACEMENT_3D('',#1869,#1518,#1519);
#1216=AXIS2_PLACEMENT_3D('',#1871,#1521,#1522);
#1217=AXIS2_PLACEMENT_3D('',#1873,#1524,#1525);
#1218=AXIS2_PLACEMENT_3D('',#1875,#1527,#1528);
#1219=AXIS2_PLACEMENT_3D('',#1877,#1530,#1531);
#1220=AXIS2_PLACEMENT_3D('',#1878,#1532,#1533);
#1221=AXIS2_PLACEMENT_3D('',#1879,#1534,#1535);
#1222=DIRECTION('',(0.,0.,1.));
#1223=DIRECTION('',(1.,0.,0.));
#1224=DIRECTION('',(0.,0.,1.));
#1225=DIRECTION('',(1.,0.,0.));
#1226=DIRECTION('',(-0.00632911392405024,0.999979970957887,0.));
#1227=DIRECTION('',(0.,1.,0.));
#1228=DIRECTION('',(1.,0.,0.));
#1229=DIRECTION('',(0.,0.,1.));
#1230=DIRECTION('',(1.,0.,0.));
#1231=DIRECTION('',(0.,-1.,0.));
#1232=DIRECTION('',(1.,0.,0.));
#1233=DIRECTION('',(0.,0.,1.));
#1234=DIRECTION('',(1.,0.,0.));
#1235=DIRECTION('',(0.,0.,1.));
#1236=DIRECTION('',(1.,0.,0.));
#1237=DIRECTION('',(0.00632911392405009,-0.999979970957887,0.));
#1238=DIRECTION('',(0.,0.,1.));
#1239=DIRECTION('',(1.,0.,0.));
#1240=DIRECTION('',(1.,0.,0.));
#1241=DIRECTION('',(0.999979970957887,0.00632911392405005,0.));
#1242=DIRECTION('',(0.00632911392405005,-0.999979970957887,0.));
#1243=DIRECTION('',(0.,0.,1.));
#1244=DIRECTION('',(1.,0.,0.));
#1245=DIRECTION('',(-0.999979970957887,-0.0063291139240501,0.));
#1246=DIRECTION('',(0.,0.,-1.));
#1247=DIRECTION('',(-1.,0.,0.));
#1248=DIRECTION('',(0.,0.,-1.));
#1249=DIRECTION('',(0.,0.,-1.));
#1250=DIRECTION('',(-1.,0.,0.));
#1251=DIRECTION('',(0.,0.,-1.));
#1252=DIRECTION('',(0.,0.,1.));
#1253=DIRECTION('',(1.,0.,0.));
#1254=DIRECTION('',(6.86203906636395E-17,1.,0.));
#1255=DIRECTION('',(0.,0.,1.));
#1256=DIRECTION('',(1.,0.,0.));
#1257=DIRECTION('',(-1.,-1.36377631759183E-16,0.));
#1258=DIRECTION('',(0.,1.,0.));
#1259=DIRECTION('',(0.,0.,1.));
#1260=DIRECTION('',(1.,0.,0.));
#1261=DIRECTION('',(1.,-6.86203906636395E-17,0.));
#1262=DIRECTION('',(0.,0.,-1.));
#1263=DIRECTION('',(-1.,0.,0.));
#1264=DIRECTION('',(0.,0.,-1.));
#1265=DIRECTION('',(0.,0.,-1.));
#1266=DIRECTION('',(-1.,0.,0.));
#1267=DIRECTION('',(0.,0.,-1.));
#1268=DIRECTION('',(0.,0.,-1.));
#1269=DIRECTION('',(-1.,0.,0.));
#1270=DIRECTION('',(0.,0.,-1.));
#1271=DIRECTION('',(-1.,0.,0.));
#1272=DIRECTION('',(0.,0.,-1.));
#1273=DIRECTION('',(0.,0.,-1.));
#1274=DIRECTION('',(0.,0.,1.));
#1275=DIRECTION('',(1.,0.,0.));
#1276=DIRECTION('',(0.,0.,1.));
#1277=DIRECTION('',(1.,0.,0.));
#1278=DIRECTION('',(-1.37240781327279E-16,-1.,0.));
#1279=DIRECTION('',(-1.,0.,0.));
#1280=DIRECTION('',(0.,0.,1.));
#1281=DIRECTION('',(1.,0.,0.));
#1282=DIRECTION('',(0.,1.,0.));
#1283=DIRECTION('',(-1.,4.11722343981837E-16,0.));
#1284=DIRECTION('',(0.,-0.960350870930278,0.278794197757875));
#1285=DIRECTION('',(0.,-0.278794197757875,-0.960350870930278));
#1286=DIRECTION('',(-1.,0.,0.));
#1287=DIRECTION('',(-0.380023688773484,0.257878152156079,0.888302231569617));
#1288=DIRECTION('',(1.,0.,0.));
#1289=DIRECTION('',(0.388364242639662,0.25691051193131,0.884969041208852));
#1290=DIRECTION('',(0.919398641049151,0.,0.393327012595086));
#1291=DIRECTION('',(0.393327012595086,0.,-0.919398641049151));
#1292=DIRECTION('',(0.,-1.,0.));
#1293=DIRECTION('',(-0.380266177174665,-0.255557142727037,0.888869046203185));
#1294=DIRECTION('',(0.,1.,0.));
#1295=DIRECTION('',(-0.915704482304277,0.,0.401852337417435));
#1296=DIRECTION('',(0.401852337417435,0.,0.915704482304277));
#1297=DIRECTION('',(0.,1.,0.));
#1298=DIRECTION('',(0.,-1.,0.));
#1299=DIRECTION('',(0.388610195044495,-0.254596994398027,0.885529495133262));
#1300=DIRECTION('',(0.,0.961067210240435,0.276314707174027));
#1301=DIRECTION('',(0.,-0.276314707174027,0.961067210240435));
#1302=DIRECTION('',(1.,0.,0.));
#1303=DIRECTION('',(-1.,0.,0.));
#1304=DIRECTION('',(0.,0.,-1.));
#1305=DIRECTION('',(1.,0.,0.));
#1306=DIRECTION('',(-0.00632911392405024,0.999979970957887,0.));
#1307=DIRECTION('',(-0.00632911392405009,0.999979970957887,0.));
#1308=DIRECTION('',(0.999979970957887,0.00632911392404881,0.));
#1309=DIRECTION('',(0.,0.,-1.));
#1310=DIRECTION('',(-1.,0.,0.));
#1311=DIRECTION('',(-0.00632911392405098,0.999979970957887,0.));
#1312=DIRECTION('',(-0.999979970957887,-0.00632911392405005,0.));
#1313=DIRECTION('',(1.,0.,0.));
#1314=DIRECTION('',(0.,-1.,0.));
#1315=DIRECTION('',(-0.00632911392405024,0.999979970957887,0.));
#1316=DIRECTION('',(-1.,0.,0.));
#1317=DIRECTION('',(-1.,0.,0.));
#1318=DIRECTION('',(0.,1.,0.));
#1319=DIRECTION('',(0.,0.,-1.));
#1320=DIRECTION('',(-1.,0.,0.));
#1321=DIRECTION('',(-1.,0.,0.));
#1322=DIRECTION('',(0.,-1.,0.));
#1323=DIRECTION('',(-6.86203906636395E-17,-1.,0.));
#1324=DIRECTION('',(-1.,0.,0.));
#1325=DIRECTION('',(0.,0.,-1.));
#1326=DIRECTION('',(-1.,0.,0.));
#1327=DIRECTION('',(0.,-1.,0.));
#1328=DIRECTION('',(1.,1.36377631759183E-16,0.));
#1329=DIRECTION('',(1.37240781327279E-16,1.,0.));
#1330=DIRECTION('',(0.,0.,-1.));
#1331=DIRECTION('',(-1.,0.,0.));
#1332=DIRECTION('',(1.,0.,0.));
#1333=DIRECTION('',(1.,-4.11722343981837E-16,0.));
#1334=DIRECTION('',(0.,-1.,0.));
#1335=DIRECTION('',(0.,0.,-1.));
#1336=DIRECTION('',(-1.,0.,0.));
#1337=DIRECTION('',(1.,0.,0.));
#1338=DIRECTION('',(0.,1.,0.));
#1339=DIRECTION('',(0.,0.,1.));
#1340=DIRECTION('',(0.,0.,-1.));
#1341=DIRECTION('',(0.,0.,-1.));
#1342=DIRECTION('',(0.,0.,-1.));
#1343=DIRECTION('',(-1.,0.,0.));
#1344=DIRECTION('',(0.,0.,-1.));
#1345=DIRECTION('',(1.,0.,0.));
#1346=DIRECTION('',(0.,0.,-1.));
#1347=DIRECTION('',(0.,0.,-1.));
#1348=DIRECTION('',(0.,1.,0.));
#1349=DIRECTION('',(0.,0.,1.));
#1350=DIRECTION('',(1.36377631759183E-16,-1.,0.));
#1351=DIRECTION('',(1.,1.36377631759183E-16,0.));
#1352=DIRECTION('',(0.,0.,-1.));
#1353=DIRECTION('',(-1.,0.,0.));
#1354=DIRECTION('',(0.,0.,1.));
#1355=DIRECTION('',(0.,0.,-1.));
#1356=DIRECTION('',(0.,0.,-1.));
#1357=DIRECTION('',(-1.,0.,0.));
#1358=DIRECTION('',(0.,0.,-1.));
#1359=DIRECTION('',(0.,1.,0.));
#1360=DIRECTION('',(0.,0.,1.));
#1361=DIRECTION('',(0.,0.,-1.));
#1362=DIRECTION('',(-1.,6.86203906636395E-17,0.));
#1363=DIRECTION('',(-6.86203906636395E-17,-1.,0.));
#1364=DIRECTION('',(1.,-1.37240781327279E-16,0.));
#1365=DIRECTION('',(1.37240781327279E-16,1.,0.));
#1366=DIRECTION('',(0.,0.,-1.));
#1367=DIRECTION('',(0.,0.,-1.));
#1368=DIRECTION('',(0.,-1.,0.));
#1369=DIRECTION('',(0.,0.,-1.));
#1370=DIRECTION('',(0.,0.,-1.));
#1371=DIRECTION('',(0.,0.,-1.));
#1372=DIRECTION('',(-1.,0.,0.));
#1373=DIRECTION('',(0.,0.,-1.));
#1374=DIRECTION('',(-1.,0.,0.));
#1375=DIRECTION('',(0.,0.,1.));
#1376=DIRECTION('',(0.,0.,-1.));
#1377=DIRECTION('',(-4.11722343981837E-16,-1.,0.));
#1378=DIRECTION('',(1.,-4.11722343981837E-16,0.));
#1379=DIRECTION('',(0.,0.,-1.));
#1380=DIRECTION('',(-0.00632911392405005,0.999979970957887,0.));
#1381=DIRECTION('',(-0.999979970957887,-0.00632911392405005,0.));
#1382=DIRECTION('',(0.,0.,-1.));
#1383=DIRECTION('',(0.,0.,-1.));
#1384=DIRECTION('',(0.999979970957887,0.00632911392405098,0.));
#1385=DIRECTION('',(-0.00632911392405098,0.999979970957887,0.));
#1386=DIRECTION('',(0.,0.,-1.));
#1387=DIRECTION('',(0.,0.,-1.));
#1388=DIRECTION('',(-1.,0.,0.));
#1389=DIRECTION('',(0.,0.,-1.));
#1390=DIRECTION('',(0.00632911392404881,-0.999979970957887,0.));
#1391=DIRECTION('',(0.999979970957887,0.00632911392404881,0.));
#1392=DIRECTION('',(0.,0.,-1.));
#1393=DIRECTION('',(0.999979970957887,0.00632911392405009,0.));
#1394=DIRECTION('',(-0.00632911392405009,0.999979970957887,0.));
#1395=DIRECTION('',(-1.,0.,0.));
#1396=DIRECTION('',(0.,0.,1.));
#1397=DIRECTION('',(0.,0.,-1.));
#1398=DIRECTION('',(0.,0.,-1.));
#1399=DIRECTION('',(-1.,0.,0.));
#1400=DIRECTION('',(1.,0.,0.));
#1401=DIRECTION('',(0.,0.,-1.));
#1402=DIRECTION('',(0.,0.,1.));
#1403=DIRECTION('',(0.,1.,0.));
#1404=DIRECTION('',(0.,0.,1.));
#1405=DIRECTION('',(0.,1.,0.));
#1406=DIRECTION('',(0.,0.,1.));
#1407=DIRECTION('',(0.,0.,1.));
#1408=DIRECTION('',(-1.,0.,0.));
#1409=DIRECTION('',(-1.,0.,0.));
#1410=DIRECTION('',(0.,0.,1.));
#1411=DIRECTION('',(0.,0.,1.));
#1412=DIRECTION('',(0.,-1.,0.));
#1413=DIRECTION('',(0.,-1.,0.));
#1414=DIRECTION('',(0.,0.,-1.));
#1415=DIRECTION('',(1.,0.,0.));
#1416=DIRECTION('',(0.,0.,1.));
#1417=DIRECTION('',(1.,0.,0.));
#1418=DIRECTION('',(0.,0.,1.));
#1419=DIRECTION('',(0.,0.,-1.));
#1420=DIRECTION('',(0.8340263198445,0.551724657602541,0.));
#1421=DIRECTION('',(0.,0.,1.));
#1422=DIRECTION('',(0.,0.,-1.));
#1423=DIRECTION('',(0.8340263198445,0.551724657602541,0.));
#1424=DIRECTION('',(-1.,0.,0.));
#1425=DIRECTION('',(0.,0.,1.));
#1426=DIRECTION('',(0.,-1.,0.));
#1427=DIRECTION('',(0.,0.,1.));
#1428=DIRECTION('',(0.,-1.,0.));
#1429=DIRECTION('',(0.,0.,-1.));
#1430=DIRECTION('',(0.836470685722295,-0.548011671342203,0.));
#1431=DIRECTION('',(0.,0.,1.));
#1432=DIRECTION('',(0.,0.,-1.));
#1433=DIRECTION('',(0.836470685722295,-0.548011671342203,0.));
#1434=DIRECTION('',(0.,1.,0.));
#1435=DIRECTION('',(0.,0.,1.));
#1436=DIRECTION('',(-1.,0.,0.));
#1437=DIRECTION('',(0.,0.,1.));
#1438=DIRECTION('',(-1.,0.,0.));
#1439=DIRECTION('',(0.,0.,-1.));
#1440=DIRECTION('',(-0.829983106903626,-0.557788528256546,0.));
#1441=DIRECTION('',(0.,0.,1.));
#1442=DIRECTION('',(0.,0.,-1.));
#1443=DIRECTION('',(-0.829983106903626,-0.557788528256546,0.));
#1444=DIRECTION('',(1.,0.,0.));
#1445=DIRECTION('',(0.,0.,-1.));
#1446=DIRECTION('',(0.,1.,0.));
#1447=DIRECTION('',(0.,0.,1.));
#1448=DIRECTION('',(0.,1.,0.));
#1449=DIRECTION('',(0.,0.,-1.));
#1450=DIRECTION('',(-0.827470781889573,0.561508775638511,0.));
#1451=DIRECTION('',(0.,0.,-1.));
#1452=DIRECTION('',(-0.827470781889573,0.561508775638511,0.));
#1453=DIRECTION('',(0.,-1.,0.));
#1454=DIRECTION('',(0.,0.,-1.));
#1455=DIRECTION('',(1.,0.,0.));
#1456=DIRECTION('',(0.,0.,-1.));
#1457=DIRECTION('',(1.,0.,0.));
#1458=DIRECTION('',(0.,0.,-1.));
#1459=DIRECTION('',(1.,0.,0.));
#1460=DIRECTION('',(0.,1.,0.));
#1461=DIRECTION('',(-1.,0.,0.));
#1462=DIRECTION('',(0.,-1.,0.));
#1463=DIRECTION('',(1.,0.,0.));
#1464=DIRECTION('',(-1.,0.,0.));
#1465=DIRECTION('',(0.,0.,1.));
#1466=DIRECTION('',(1.,-2.96083041462605E-15,0.));
#1467=DIRECTION('',(2.96083041462605E-15,1.,0.));
#1468=DIRECTION('',(-1.,8.25462340142786E-16,2.84343606736298E-15));
#1469=DIRECTION('',(2.84343606736298E-15,0.,1.));
#1470=DIRECTION('',(1.,0.,0.));
#1471=DIRECTION('',(0.,0.,1.));
#1472=DIRECTION('',(1.,0.,0.));
#1473=DIRECTION('',(-3.10518963520607E-15,-1.,0.));
#1474=DIRECTION('',(1.,-3.10518963520607E-15,0.));
#1475=DIRECTION('',(0.388364242639663,0.256910511931309,0.884969041208852));
#1476=DIRECTION('',(0.915704482304277,0.,-0.401852337417436));
#1477=DIRECTION('',(0.,1.,0.));
#1478=DIRECTION('',(0.,0.,1.));
#1479=DIRECTION('',(0.,1.,0.));
#1480=DIRECTION('',(0.,0.,1.));
#1481=DIRECTION('',(0.,-1.,0.));
#1482=DIRECTION('',(0.,0.,1.));
#1483=DIRECTION('',(1.,0.,0.));
#1484=DIRECTION('',(-1.,0.,0.));
#1485=DIRECTION('',(0.,0.,1.));
#1486=DIRECTION('',(0.388610195044496,-0.254596994398028,0.885529495133262));
#1487=DIRECTION('',(0.915704482304277,0.,-0.401852337417436));
#1488=DIRECTION('',(1.,0.,0.));
#1489=DIRECTION('',(0.,0.,-1.));
#1490=DIRECTION('',(1.,0.,0.));
#1491=DIRECTION('',(0.,0.,-1.));
#1492=DIRECTION('',(-1.,0.,0.));
#1493=DIRECTION('',(2.84343606736298E-15,0.,1.));
#1494=DIRECTION('',(1.,0.,-2.84343606736298E-15));
#1495=DIRECTION('',(0.,1.,0.));
#1496=DIRECTION('',(0.,0.,1.));
#1497=DIRECTION('',(-0.380266177174664,-0.255557142727037,0.888869046203185));
#1498=DIRECTION('',(0.919398641049151,0.,0.393327012595086));
#1499=DIRECTION('',(0.,-1.,0.));
#1500=DIRECTION('',(0.,0.,-1.));
#1501=DIRECTION('',(0.,-1.,0.));
#1502=DIRECTION('',(0.,0.,-1.));
#1503=DIRECTION('',(0.,1.,0.));
#1504=DIRECTION('',(2.84343606736298E-15,0.,1.));
#1505=DIRECTION('',(1.,0.,-2.84343606736298E-15));
#1506=DIRECTION('',(-0.380023688773482,0.25787815215608,0.888302231569617));
#1507=DIRECTION('',(0.919398641049151,0.,0.393327012595085));
#1508=DIRECTION('',(-0.380023688773484,0.257878152156079,0.888302231569617));
#1509=DIRECTION('',(0.919398641049151,0.,0.393327012595086));
#1510=DIRECTION('',(-0.380023688773484,0.257878152156079,0.888302231569617));
#1511=DIRECTION('',(-0.380023688773484,0.257878152156079,0.888302231569617));
#1512=DIRECTION('',(0.919398641049151,0.,0.393327012595086));
#1513=DIRECTION('',(0.393327012595086,0.,-0.919398641049151));
#1514=DIRECTION('',(-0.380266177174665,-0.255557142727037,0.888869046203185));
#1515=DIRECTION('',(-0.380266177174665,-0.255557142727037,0.888869046203185));
#1516=DIRECTION('',(0.919398641049151,0.,0.393327012595086));
#1517=DIRECTION('',(-0.380266177174665,-0.255557142727037,0.888869046203185));
#1518=DIRECTION('',(0.,0.961067210240435,0.276314707174027));
#1519=DIRECTION('',(0.,-0.276314707174027,0.961067210240435));
#1520=DIRECTION('',(0.388610195044495,-0.254596994398027,0.885529495133263));
#1521=DIRECTION('',(0.388610195044495,-0.254596994398027,0.885529495133262));
#1522=DIRECTION('',(0.915704482304277,0.,-0.401852337417435));
#1523=DIRECTION('',(0.388610195044495,-0.254596994398027,0.885529495133263));
#1524=DIRECTION('',(-0.915704482304277,0.,0.401852337417435));
#1525=DIRECTION('',(0.401852337417435,0.,0.915704482304277));
#1526=DIRECTION('',(0.388364242639662,0.25691051193131,0.884969041208852));
#1527=DIRECTION('',(0.388364242639662,0.25691051193131,0.884969041208852));
#1528=DIRECTION('',(0.915704482304277,0.,-0.401852337417435));
#1529=DIRECTION('',(0.388364242639662,0.25691051193131,0.884969041208852));
#1530=DIRECTION('',(0.,-0.960350870930278,0.278794197757875));
#1531=DIRECTION('',(0.,-0.278794197757875,-0.960350870930278));
#1532=DIRECTION('',(0.,-1.,0.));
#1533=DIRECTION('',(0.,0.,-1.));
#1534=DIRECTION('',(0.999979970957887,0.00632911392405024,0.));
#1535=DIRECTION('',(-0.00632911392405024,0.999979970957887,0.));
#1536=CARTESIAN_POINT('',(0.,0.,0.));
#1537=CARTESIAN_POINT('',(-0.000300031645886539,0.02173,-0.0004));
#1538=CARTESIAN_POINT('',(0.000407596438268225,0.0173694783503327,-0.0004));
#1539=CARTESIAN_POINT('',(0.000395853303612272,0.0192248564637826,-0.0004));
#1540=CARTESIAN_POINT('',(0.000394938085229836,0.0193694580719179,-0.0004));
#1541=CARTESIAN_POINT('',(0.000394936708226922,0.0201550158229433,-0.0004));
#1542=CARTESIAN_POINT('',(0.000394936708226922,0.02064,-0.0004));
#1543=CARTESIAN_POINT('',(0.000394936708226922,0.02064,-0.0004));
#1544=CARTESIAN_POINT('',(0.000494936708226922,0.02064,-0.0004));
#1545=CARTESIAN_POINT('',(0.000794936708226922,0.02064,-0.0004));
#1546=CARTESIAN_POINT('',(0.000794936708226922,0.02094,-0.0004));
#1547=CARTESIAN_POINT('',(0.000794936708226922,0.02104,-0.0004));
#1548=CARTESIAN_POINT('',(0.000794936708226922,0.02104,-0.0004));
#1549=CARTESIAN_POINT('',(0.00128496835411346,0.02104,-0.0004));
#1550=CARTESIAN_POINT('',(0.00220673918528251,0.02104,-0.0004));
#1551=CARTESIAN_POINT('',(-0.000300031645886539,0.02173,-0.0004));
#1552=CARTESIAN_POINT('',(-0.000300031645886539,0.02173,-0.0004));
#1553=CARTESIAN_POINT('',(-0.000990033648790751,0.0201506487343357,-0.0004));
#1554=CARTESIAN_POINT('',(-0.000993134914613535,0.0206406389201051,-0.0004));
#1555=CARTESIAN_POINT('',(-0.000984153593569762,0.0192216186173753,-0.0004));
#1556=CARTESIAN_POINT('',(-0.000300031645886539,0.02173,-0.0004));
#1557=CARTESIAN_POINT('',(-0.00280402901092141,0.0210300020029443,-0.0004));
#1558=CARTESIAN_POINT('',(-0.004975,0.0210300020029443,-0.0004));
#1559=CARTESIAN_POINT('',(-0.002675,0.0210300020029443,-0.0004));
#1560=CARTESIAN_POINT('',(-0.00188564873433568,0.0210349979970958,-0.0004));
#1561=CARTESIAN_POINT('',(-0.0013956585485663,0.0210380992629185,-0.0004));
#1562=CARTESIAN_POINT('',(-0.0013956585485663,0.0210380992629185,-0.0004));
#1563=CARTESIAN_POINT('',(-0.0013950256371739,0.0209381012658228,-0.0004));
#1564=CARTESIAN_POINT('',(-0.00139312690299669,0.0206381072745354,-0.0004));
#1565=CARTESIAN_POINT('',(-0.00109313291170932,0.0206400060087126,-0.0004));
#1566=CARTESIAN_POINT('',(-0.000993134914613533,0.0206406389201051,-0.0004));
#1567=CARTESIAN_POINT('',(-0.000300031645886539,0.02173,0.0036));
#1568=CARTESIAN_POINT('',(-0.000984153593569762,0.0192216186173753,0.0036));
#1569=CARTESIAN_POINT('',(-0.000984153593569762,0.0192216186173753,0.00358));
#1570=CARTESIAN_POINT('',(-0.000300031645886539,0.02173,0.00358));
#1571=CARTESIAN_POINT('',(-0.0028040290109247,0.0210300020029443,0.00358));
#1572=CARTESIAN_POINT('',(-0.0028040290109247,0.0210300020029443,0.0036));
#1573=CARTESIAN_POINT('',(-0.000300031645886539,0.02173,-0.0004));
#1574=CARTESIAN_POINT('',(0.000385,0.02331,-0.0004));
#1575=CARTESIAN_POINT('',(0.000385,0.02282,-0.0004));
#1576=CARTESIAN_POINT('',(0.000385,0.0242381330993657,-0.0004));
#1577=CARTESIAN_POINT('',(-0.000300031645886539,0.02173,-0.0004));
#1578=CARTESIAN_POINT('',(0.00220673918528251,0.02242,-0.0004));
#1579=CARTESIAN_POINT('',(0.00128,0.02242,-0.0004));
#1580=CARTESIAN_POINT('',(0.000785,0.02242,-0.0004));
#1581=CARTESIAN_POINT('',(0.000785,0.02242,-0.0004));
#1582=CARTESIAN_POINT('',(0.000785,0.02252,-0.0004));
#1583=CARTESIAN_POINT('',(0.000785,0.02282,-0.0004));
#1584=CARTESIAN_POINT('',(0.000485,0.02282,-0.0004));
#1585=CARTESIAN_POINT('',(0.000385,0.02282,-0.0004));
#1586=CARTESIAN_POINT('',(-0.000300031645886539,0.02173,0.0036));
#1587=CARTESIAN_POINT('',(0.000385,0.0242381330993657,0.0036));
#1588=CARTESIAN_POINT('',(0.000385,0.0242381330993657,0.00358));
#1589=CARTESIAN_POINT('',(-0.000300031645886539,0.02173,0.00358));
#1590=CARTESIAN_POINT('',(0.00220673918528251,0.02242,0.00358));
#1591=CARTESIAN_POINT('',(0.00220673918528251,0.02242,0.0036));
#1592=CARTESIAN_POINT('',(-0.000300031645886539,0.02173,0.0036));
#1593=CARTESIAN_POINT('',(-0.000300031645886539,0.02173,0.00358));
#1594=CARTESIAN_POINT('',(0.00220673918528251,0.02104,0.00358));
#1595=CARTESIAN_POINT('',(0.000395853303612284,0.0192248564637807,0.00358));
#1596=CARTESIAN_POINT('',(0.000395853303612284,0.0192248564637807,0.0036));
#1597=CARTESIAN_POINT('',(0.00220673918528251,0.02104,0.0036));
#1598=CARTESIAN_POINT('',(-0.000300031645886539,0.02173,-0.0004));
#1599=CARTESIAN_POINT('',(-0.000300031645886539,0.02173,-0.0004));
#1600=CARTESIAN_POINT('',(-0.000995,0.0242353979697407,-0.0004));
#1601=CARTESIAN_POINT('',(-0.00280680247705559,0.02242,-0.0004));
#1602=CARTESIAN_POINT('',(-0.000995,0.02331,-0.0004));
#1603=CARTESIAN_POINT('',(-0.000995,0.02282,-0.0004));
#1604=CARTESIAN_POINT('',(-0.000995,0.02282,-0.0004));
#1605=CARTESIAN_POINT('',(-0.001095,0.02282,-0.0004));
#1606=CARTESIAN_POINT('',(-0.001395,0.02282,-0.0004));
#1607=CARTESIAN_POINT('',(-0.001395,0.02252,-0.0004));
#1608=CARTESIAN_POINT('',(-0.001395,0.02242,-0.0004));
#1609=CARTESIAN_POINT('',(-0.001395,0.02242,-0.0004));
#1610=CARTESIAN_POINT('',(-0.001885,0.02242,-0.0004));
#1611=CARTESIAN_POINT('',(0.,0.0137577477238536,-0.00399393633694685));
#1612=CARTESIAN_POINT('',(0.,0.0159564956698859,0.00358));
#1613=CARTESIAN_POINT('',(0.00932195358343703,0.0159564956698859,0.00358));
#1614=CARTESIAN_POINT('',(-0.00986931778297747,0.0159564956698859,0.00358));
#1615=CARTESIAN_POINT('',(0.0107479508325268,0.0149888361622332,0.000246743216279751));
#1616=CARTESIAN_POINT('',(0.0110246334006946,0.0148010836838464,-0.0004));
#1617=CARTESIAN_POINT('',(0.,0.0148010836838464,-0.0004));
#1618=CARTESIAN_POINT('',(-0.0116159208998441,0.0148010836838464,-0.0004));
#1619=CARTESIAN_POINT('',(-0.0112032287625862,0.0150740875719807,0.000540405230258044));
#1620=CARTESIAN_POINT('',(0.00917440520683287,0.,0.00392489311080836));
#1621=CARTESIAN_POINT('',(0.00932195358343703,0.,0.00358));
#1622=CARTESIAN_POINT('',(0.00932195358343703,0.027493208949893,0.00358));
#1623=CARTESIAN_POINT('',(0.00651225867594897,0.025604958967138,0.0101476386238099));
#1624=CARTESIAN_POINT('',(0.0110246334006946,0.0286374916002994,-0.0004));
#1625=CARTESIAN_POINT('',(0.0110246334006946,0.,-0.0004));
#1626=CARTESIAN_POINT('',(-0.00959292922128101,0.,0.00420980906476643));
#1627=CARTESIAN_POINT('',(-0.00986931778297747,0.,0.00358));
#1628=CARTESIAN_POINT('',(-0.00986931778297747,0.027493208949893,0.00358));
#1629=CARTESIAN_POINT('',(-0.0116159208998441,0.,-0.0004));
#1630=CARTESIAN_POINT('',(-0.0116159208998441,0.0286374916002994,-0.0004));
#1631=CARTESIAN_POINT('',(-0.00689069436469062,0.0255417712897138,0.0103674155784453));
#1632=CARTESIAN_POINT('',(0.,0.0263448015438945,0.0075743465666027));
#1633=CARTESIAN_POINT('',(0.,0.027493208949893,0.00358));
#1634=CARTESIAN_POINT('',(0.,0.0286374916002994,-0.0004));
#1635=CARTESIAN_POINT('',(-0.00025478402568627,0.0217299764044583,0.00358));
#1636=CARTESIAN_POINT('',(-0.000972375420942652,0.0173607046153632,0.00358));
#1637=CARTESIAN_POINT('',(-0.000985033648790752,0.0193606645572789,0.00358));
#1638=CARTESIAN_POINT('',(-0.000990033648790751,0.0201506487343357,0.00358));
#1639=CARTESIAN_POINT('',(-0.000993134914613535,0.0206406389201051,0.00358));
#1640=CARTESIAN_POINT('',(-0.00109313291170932,0.0206400060087126,0.00358));
#1641=CARTESIAN_POINT('',(-0.00109313291170932,0.0206400060087126,0.00358));
#1642=CARTESIAN_POINT('',(-0.00139312690299669,0.0206381072745354,0.00358));
#1643=CARTESIAN_POINT('',(-0.0013950256371739,0.0209381012658228,0.00358));
#1644=CARTESIAN_POINT('',(-0.0013956585485663,0.0210380992629185,0.00358));
#1645=CARTESIAN_POINT('',(-0.0013956585485663,0.0210380992629185,0.00358));
#1646=CARTESIAN_POINT('',(-0.00188564873433568,0.0210349979970958,0.00358));
#1647=CARTESIAN_POINT('',(-0.002675,0.0210300020029443,0.00358));
#1648=CARTESIAN_POINT('',(-0.004975,0.0210300020029443,0.00358));
#1649=CARTESIAN_POINT('',(0.000394936708226922,0.0201550158229433,0.00358));
#1650=CARTESIAN_POINT('',(0.000394936708226922,0.02064,0.00358));
#1651=CARTESIAN_POINT('',(0.000394938210420124,0.0193694382922485,0.00358));
#1652=CARTESIAN_POINT('',(0.000407596438268225,0.0173694783503327,0.00358));
#1653=CARTESIAN_POINT('',(0.004375,0.02104,0.00358));
#1654=CARTESIAN_POINT('',(0.002075,0.02104,0.00358));
#1655=CARTESIAN_POINT('',(0.00128496835411346,0.02104,0.00358));
#1656=CARTESIAN_POINT('',(0.000794936708226922,0.02104,0.00358));
#1657=CARTESIAN_POINT('',(0.000794936708226922,0.02173,0.00358));
#1658=CARTESIAN_POINT('',(0.000794936708226922,0.02094,0.00358));
#1659=CARTESIAN_POINT('',(0.000794936708226922,0.02064,0.00358));
#1660=CARTESIAN_POINT('',(0.000494936708226922,0.02064,0.00358));
#1661=CARTESIAN_POINT('',(-0.000300031645886539,0.02064,0.00358));
#1662=CARTESIAN_POINT('',(0.000385,0.0261,0.00358));
#1663=CARTESIAN_POINT('',(0.000385,0.0241,0.00358));
#1664=CARTESIAN_POINT('',(0.000385,0.02331,0.00358));
#1665=CARTESIAN_POINT('',(0.000385,0.02282,0.00358));
#1666=CARTESIAN_POINT('',(-0.000300031645886539,0.02282,0.00358));
#1667=CARTESIAN_POINT('',(0.000485,0.02282,0.00358));
#1668=CARTESIAN_POINT('',(0.000785,0.02282,0.00358));
#1669=CARTESIAN_POINT('',(0.000785,0.02252,0.00358));
#1670=CARTESIAN_POINT('',(0.000785,0.02242,0.00358));
#1671=CARTESIAN_POINT('',(0.000785,0.02242,0.00358));
#1672=CARTESIAN_POINT('',(0.00128,0.02242,0.00358));
#1673=CARTESIAN_POINT('',(-0.000995,0.02331,0.00358));
#1674=CARTESIAN_POINT('',(-0.000995,0.02282,0.00358));
#1675=CARTESIAN_POINT('',(-0.000995,0.0242353979697407,0.00358));
#1676=CARTESIAN_POINT('',(-0.000300031645886539,0.02173,0.00358));
#1677=CARTESIAN_POINT('',(-0.00280680247705559,0.02242,0.00358));
#1678=CARTESIAN_POINT('',(-0.004975,0.02242,0.00358));
#1679=CARTESIAN_POINT('',(-0.002675,0.02242,0.00358));
#1680=CARTESIAN_POINT('',(-0.001885,0.02242,0.00358));
#1681=CARTESIAN_POINT('',(-0.001395,0.02242,0.00358));
#1682=CARTESIAN_POINT('',(-0.001395,0.02242,0.00358));
#1683=CARTESIAN_POINT('',(-0.001395,0.02252,0.00358));
#1684=CARTESIAN_POINT('',(-0.001395,0.02282,0.00358));
#1685=CARTESIAN_POINT('',(-0.001095,0.02282,0.00358));
#1686=CARTESIAN_POINT('',(-0.000995,0.02282,0.00358));
#1687=CARTESIAN_POINT('',(-0.000300031645886539,0.02064,0.0036));
#1688=CARTESIAN_POINT('',(0.000494936708226922,0.02064,0.0036));
#1689=CARTESIAN_POINT('',(0.000394936708226922,0.02064,0.0036));
#1690=CARTESIAN_POINT('',(0.000794936708226922,0.02064,0.0036));
#1691=CARTESIAN_POINT('',(0.000794936708226922,0.02094,0.0036));
#1692=CARTESIAN_POINT('',(0.000794936708226922,0.02173,0.0036));
#1693=CARTESIAN_POINT('',(0.000794936708226922,0.02104,0.0036));
#1694=CARTESIAN_POINT('',(0.00128496835411346,0.02104,0.0036));
#1695=CARTESIAN_POINT('',(0.00128,0.02242,0.0036));
#1696=CARTESIAN_POINT('',(0.000785,0.02242,0.0036));
#1697=CARTESIAN_POINT('',(0.000785,0.02242,0.0036));
#1698=CARTESIAN_POINT('',(0.000785,0.02252,0.0036));
#1699=CARTESIAN_POINT('',(0.000785,0.02282,0.0036));
#1700=CARTESIAN_POINT('',(0.000485,0.02282,0.0036));
#1701=CARTESIAN_POINT('',(-0.000300031645886539,0.02282,0.0036));
#1702=CARTESIAN_POINT('',(0.000385,0.02282,0.0036));
#1703=CARTESIAN_POINT('',(0.000385,0.02331,0.0036));
#1704=CARTESIAN_POINT('',(-0.000995,0.02331,0.0036));
#1705=CARTESIAN_POINT('',(-0.000995,0.02282,0.0036));
#1706=CARTESIAN_POINT('',(-0.000995,0.0242353979697407,0.0036));
#1707=CARTESIAN_POINT('',(-0.000995,0.02282,0.0036));
#1708=CARTESIAN_POINT('',(-0.001095,0.02282,0.0036));
#1709=CARTESIAN_POINT('',(-0.001395,0.02282,0.0036));
#1710=CARTESIAN_POINT('',(-0.001395,0.02252,0.0036));
#1711=CARTESIAN_POINT('',(-0.001395,0.02242,0.0036));
#1712=CARTESIAN_POINT('',(-0.001395,0.02242,0.0036));
#1713=CARTESIAN_POINT('',(-0.001885,0.02242,0.0036));
#1714=CARTESIAN_POINT('',(-0.00280680247705559,0.02242,0.0036));
#1715=CARTESIAN_POINT('',(-0.00188564873433568,0.0210349979970958,0.0036));
#1716=CARTESIAN_POINT('',(-0.0013956585485663,0.0210380992629185,0.0036));
#1717=CARTESIAN_POINT('',(-0.002675,0.0210300020029443,0.0036));
#1718=CARTESIAN_POINT('',(-0.0013956585485663,0.0210380992629185,0.0036));
#1719=CARTESIAN_POINT('',(-0.0013950256371739,0.0209381012658228,0.0036));
#1720=CARTESIAN_POINT('',(-0.00139312690299669,0.0206381072745354,0.0036));
#1721=CARTESIAN_POINT('',(-0.00109313291170932,0.0206400060087126,0.0036));
#1722=CARTESIAN_POINT('',(-0.00109313291170932,0.0206400060087126,0.0036));
#1723=CARTESIAN_POINT('',(-0.000993134914613535,0.0206406389201051,0.0036));
#1724=CARTESIAN_POINT('',(-0.000990033648790751,0.0201506487343357,0.0036));
#1725=CARTESIAN_POINT('',(0.000394936708226922,0.0201550158229433,0.0036));
#1726=CARTESIAN_POINT('',(0.000394937960039546,0.0193694778515873,0.0036));
#1727=CARTESIAN_POINT('',(-0.000300031645886539,0.02173,0.0036));
#1728=CARTESIAN_POINT('',(0.0110246334006946,0.,-0.0007));
#1729=CARTESIAN_POINT('',(0.0110246334006946,0.0286374916002994,-0.0007));
#1730=CARTESIAN_POINT('',(0.0110246334006946,0.0286374916002994,-0.0007));
#1731=CARTESIAN_POINT('',(0.0110246334006946,0.,-0.0007));
#1732=CARTESIAN_POINT('',(0.0110246334006946,0.0148010836838464,-0.0007));
#1733=CARTESIAN_POINT('',(0.0110246334006946,0.0148010836838464,-0.0007));
#1734=CARTESIAN_POINT('',(0.,0.0286374916002994,-0.0007));
#1735=CARTESIAN_POINT('',(-0.0116159208998441,0.0286374916002994,-0.0007));
#1736=CARTESIAN_POINT('',(-0.0116159208998441,0.0286374916002994,-0.0007));
#1737=CARTESIAN_POINT('',(0.,0.0286374916002994,-0.0007));
#1738=CARTESIAN_POINT('',(-0.0116159208998441,0.,-0.0007));
#1739=CARTESIAN_POINT('',(-0.0116159208998441,0.0148010836838464,-0.0007));
#1740=CARTESIAN_POINT('',(-0.0116159208998441,0.0148010836838464,-0.0007));
#1741=CARTESIAN_POINT('',(-0.0116159208998441,0.,-0.0007));
#1742=CARTESIAN_POINT('',(-0.000300031645886538,0.0127185115109669,-0.0007));
#1743=CARTESIAN_POINT('',(-0.000300031645886538,0.0127185115109669,-0.0004));
#1744=CARTESIAN_POINT('',(-0.0132084322306559,0.0127185115109669,-0.0004));
#1745=CARTESIAN_POINT('',(0.0126091688282974,0.0127185115109669,-0.0004));
#1746=CARTESIAN_POINT('',(-0.0132084322306559,0.0127185115109669,-0.0007));
#1747=CARTESIAN_POINT('',(-0.0132084322306559,0.0127185115109669,-0.0007));
#1748=CARTESIAN_POINT('',(-0.000300031645886538,0.0127185115109669,-0.0007));
#1749=CARTESIAN_POINT('',(0.0126091688282974,0.0127185115109669,-0.0007));
#1750=CARTESIAN_POINT('',(0.0126091688282974,0.0127185115109669,-0.0007));
#1751=CARTESIAN_POINT('',(-0.0132084322306559,0.0127185115109669,-0.0007));
#1752=CARTESIAN_POINT('',(-0.0132084322306559,0.0127185115109669,-0.0004));
#1753=CARTESIAN_POINT('',(-0.0135303031357249,0.0127185115109669,-0.0007));
#1754=CARTESIAN_POINT('',(-0.0135303031357249,0.0127185115109669,-0.0004));
#1755=CARTESIAN_POINT('',(-0.0138000316458866,0.0129757004335125,-0.0007));
#1756=CARTESIAN_POINT('',(-0.0138000316458866,0.0129757004335125,-0.0004));
#1757=CARTESIAN_POINT('',(-0.0138000316458865,0.0132826076685832,-0.0007));
#1758=CARTESIAN_POINT('',(-0.0138000316458865,0.0132826076685832,-0.0004));
#1759=CARTESIAN_POINT('',(-0.0131337905039138,0.013353779326582,-0.0004));
#1760=CARTESIAN_POINT('',(-0.0138000316458865,0.0132826076685832,-0.0004));
#1761=CARTESIAN_POINT('',(-0.0138000316458865,0.0132826076685832,-0.0007));
#1762=CARTESIAN_POINT('',(-0.0138000316458865,0.0132826076685832,-0.0007));
#1763=CARTESIAN_POINT('',(-0.0131337905039138,0.013353779326582,-0.0007));
#1764=CARTESIAN_POINT('',(-0.0138000316458865,0.0217185115109669,-0.0007));
#1765=CARTESIAN_POINT('',(-0.0138000316458865,0.0217185115109669,-0.0004));
#1766=CARTESIAN_POINT('',(-0.0138000316458865,0.0301542033049117,-0.0004));
#1767=CARTESIAN_POINT('',(-0.0138000316458865,0.0301542033049117,-0.0007));
#1768=CARTESIAN_POINT('',(-0.0138000316458865,0.0301542033049117,-0.0007));
#1769=CARTESIAN_POINT('',(-0.0138000316458865,0.0217185115109669,-0.0007));
#1770=CARTESIAN_POINT('',(-0.0138000316458865,0.0301542033049117,-0.0007));
#1771=CARTESIAN_POINT('',(-0.0138000316458865,0.0301542033049117,-0.0004));
#1772=CARTESIAN_POINT('',(-0.0138000316458865,0.0304611271434811,-0.0007));
#1773=CARTESIAN_POINT('',(-0.0138000316458865,0.0304611271434811,-0.0004));
#1774=CARTESIAN_POINT('',(-0.0135298968143996,0.0307185115109669,-0.0007));
#1775=CARTESIAN_POINT('',(-0.0135298968143996,0.0307185115109669,-0.0004));
#1776=CARTESIAN_POINT('',(-0.0132077683952529,0.0307185115109669,-0.0007));
#1777=CARTESIAN_POINT('',(-0.0132077683952529,0.0307185115109669,-0.0004));
#1778=CARTESIAN_POINT('',(-0.0131337905039137,0.0300837171974169,-0.0004));
#1779=CARTESIAN_POINT('',(-0.0132077683952529,0.0307185115109669,-0.0004));
#1780=CARTESIAN_POINT('',(-0.0132077683952529,0.0307185115109669,-0.0007));
#1781=CARTESIAN_POINT('',(-0.0132077683952529,0.0307185115109669,-0.0007));
#1782=CARTESIAN_POINT('',(-0.0131337905039137,0.0300837171974169,-0.0007));
#1783=CARTESIAN_POINT('',(-0.000300031645886538,0.0307185115109669,-0.0007));
#1784=CARTESIAN_POINT('',(-0.000300031645886538,0.0307185115109669,-0.0004));
#1785=CARTESIAN_POINT('',(0.0126085216869224,0.0307185115109669,-0.0004));
#1786=CARTESIAN_POINT('',(0.0126085216869224,0.0307185115109669,-0.0007));
#1787=CARTESIAN_POINT('',(0.0126085216869224,0.0307185115109669,-0.0007));
#1788=CARTESIAN_POINT('',(-0.000300031645886538,0.0307185115109669,-0.0007));
#1789=CARTESIAN_POINT('',(0.0126085216869224,0.0307185115109669,-0.0007));
#1790=CARTESIAN_POINT('',(0.0126085216869224,0.0307185115109669,-0.0004));
#1791=CARTESIAN_POINT('',(0.0129299609588638,0.0307185115109669,-0.0007));
#1792=CARTESIAN_POINT('',(0.0129299609588638,0.0307185115109669,-0.0004));
#1793=CARTESIAN_POINT('',(0.0131999683541135,0.0304602107078382,-0.0007));
#1794=CARTESIAN_POINT('',(0.0131999683541135,0.0304602107078382,-0.0004));
#1795=CARTESIAN_POINT('',(0.0131999683541135,0.0301527079373204,-0.0007));
#1796=CARTESIAN_POINT('',(0.0131999683541135,0.0301527079373204,-0.0004));
#1797=CARTESIAN_POINT('',(0.0125364041799226,0.0300837171974169,-0.0004));
#1798=CARTESIAN_POINT('',(0.0131999683541135,0.0301527079373204,-0.0004));
#1799=CARTESIAN_POINT('',(0.0131999683541135,0.0301527079373204,-0.0007));
#1800=CARTESIAN_POINT('',(0.0131999683541135,0.0301527079373204,-0.0007));
#1801=CARTESIAN_POINT('',(0.0125364041799226,0.0300837171974169,-0.0007));
#1802=CARTESIAN_POINT('',(0.0131999683541135,0.0217127672664503,-0.0007));
#1803=CARTESIAN_POINT('',(0.0131999683541135,0.0217127672664503,-0.0004));
#1804=CARTESIAN_POINT('',(0.0131999683541135,0.0132841175801753,-0.0004));
#1805=CARTESIAN_POINT('',(0.0131999683541135,0.0132841175801753,-0.0007));
#1806=CARTESIAN_POINT('',(0.0131999683541135,0.0132841175801753,-0.0007));
#1807=CARTESIAN_POINT('',(0.0131999683541135,0.0217127672664503,-0.0007));
#1808=CARTESIAN_POINT('',(0.0131999683541135,0.0132841175801753,-0.0007));
#1809=CARTESIAN_POINT('',(0.0131999683541135,0.0132841175801753,-0.0004));
#1810=CARTESIAN_POINT('',(0.0131999683541135,0.012976625099923,-0.0007));
#1811=CARTESIAN_POINT('',(0.0131999683541135,0.012976625099923,-0.0004));
#1812=CARTESIAN_POINT('',(0.0129303577642282,0.0127185115109669,-0.0007));
#1813=CARTESIAN_POINT('',(0.0129303577642282,0.0127185115109669,-0.0004));
#1814=CARTESIAN_POINT('',(0.0126091688282974,0.0127185115109669,-0.0007));
#1815=CARTESIAN_POINT('',(0.0126091688282974,0.0127185115109669,-0.0004));
#1816=CARTESIAN_POINT('',(0.0125364041799226,0.013353779326582,-0.0004));
#1817=CARTESIAN_POINT('',(0.0125364041799226,0.013353779326582,-0.0007));
#1818=CARTESIAN_POINT('',(0.,0.0148010836838464,-0.0007));
#1819=CARTESIAN_POINT('',(0.,0.0148010836838464,-0.0007));
#1820=CARTESIAN_POINT('',(-0.000300031645886538,0.0217185115109669,-0.0007));
#1821=CARTESIAN_POINT('',(-0.00025478402568627,0.0217299764044583,0.0078));
#1822=CARTESIAN_POINT('',(0.0092893680998724,0.0283609442412854,0.0078));
#1823=CARTESIAN_POINT('',(0.0092893680998724,0.0155571674022306,0.0078));
#1824=CARTESIAN_POINT('',(0.0092893680998724,0.0279015529325996,0.0078));
#1825=CARTESIAN_POINT('',(-0.0102015026111362,0.0279015529325996,0.0078));
#1826=CARTESIAN_POINT('',(-0.00980299202934884,0.0279015529325996,0.0078));
#1827=CARTESIAN_POINT('',(-0.00980299202934884,0.0150990085676312,0.0078));
#1828=CARTESIAN_POINT('',(-0.00980299202934884,0.0155571674022306,0.0078));
#1829=CARTESIAN_POINT('',(0.00969193455976365,0.0155571674022306,0.0078));
#1830=CARTESIAN_POINT('',(-0.00025478402568627,0.0155571674022306,0.00718992));
#1831=CARTESIAN_POINT('',(0.0092893680998724,0.0155571674022306,0.00718992));
#1832=CARTESIAN_POINT('',(0.0092893680998724,0.0149712765428934,0.00736000676416812));
#1833=CARTESIAN_POINT('',(-0.00980299202934884,0.0155571674022306,0.00718992));
#1834=CARTESIAN_POINT('',(-0.00980299202934884,0.0149712765428934,0.00736000676416812));
#1835=CARTESIAN_POINT('',(-0.0102015026111362,0.0149712765428934,0.00736000676416812));
#1836=CARTESIAN_POINT('',(-0.00980299202934884,0.0155571674022306,0.00718992));
#1837=CARTESIAN_POINT('',(-0.00980299202934884,0.0155571674022306,0.00718992));
#1838=CARTESIAN_POINT('',(-0.010361645019913,0.0155571674022306,0.00743508207401163));
#1839=CARTESIAN_POINT('',(-0.00980299202934884,0.0155571674022306,0.00718992));
#1840=CARTESIAN_POINT('',(-0.00980299202934884,0.0217299764044583,0.00718992));
#1841=CARTESIAN_POINT('',(-0.00980299202934884,0.0279015529325996,0.00718992));
#1842=CARTESIAN_POINT('',(-0.010361645019913,0.0279015529325996,0.00743508207401163));
#1843=CARTESIAN_POINT('',(-0.010361645019913,0.0283609442412854,0.00743508207401163));
#1844=CARTESIAN_POINT('',(-0.00980299202934884,0.0279015529325996,0.00718992));
#1845=CARTESIAN_POINT('',(-0.00980299202934884,0.0279015529325996,0.00718992));
#1846=CARTESIAN_POINT('',(-0.00980299202934884,0.0284878808162231,0.00735849407655273));
#1847=CARTESIAN_POINT('',(-0.00980299202934884,0.0279015529325996,0.00718992));
#1848=CARTESIAN_POINT('',(-0.00025478402568627,0.0279015529325996,0.00718992));
#1849=CARTESIAN_POINT('',(0.0092893680998724,0.0279015529325996,0.00718992));
#1850=CARTESIAN_POINT('',(0.0092893680998724,0.0284878808162231,0.00735849407655273));
#1851=CARTESIAN_POINT('',(0.00969193455976365,0.0284878808162231,0.00735849407655273));
#1852=CARTESIAN_POINT('',(0.0092893680998724,0.0279015529325996,0.00718992));
#1853=CARTESIAN_POINT('',(0.0092893680998724,0.0279015529325996,0.00718992));
#1854=CARTESIAN_POINT('',(0.00985027482280366,0.0279015529325996,0.00742988094384401));
#1855=CARTESIAN_POINT('',(0.0092893680998724,0.0279015529325996,0.00718992));
#1856=CARTESIAN_POINT('',(0.0092893680998724,0.0217299764044583,0.00718992));
#1857=CARTESIAN_POINT('',(0.0092893680998724,0.0155571674022306,0.00718992));
#1858=CARTESIAN_POINT('',(0.00985027482280366,0.0155571674022306,0.00742988094384401));
#1859=CARTESIAN_POINT('',(0.00985027482280366,0.0150990085676312,0.00742988094384401));
#1860=CARTESIAN_POINT('',(0.0092893680998724,0.0155571674022306,0.00718992));
#1861=CARTESIAN_POINT('',(0.0092893680998724,0.0155571674022306,0.00718992));
#1862=CARTESIAN_POINT('',(0.0118995591461133,0.0137859324406644,0.00108862000293351));
#1863=CARTESIAN_POINT('',(0.0124604658690446,0.0137859324406644,0.00132858094677752));
#1864=CARTESIAN_POINT('',(0.0118995591461133,0.0132000415813272,0.00125870676710163));
#1865=CARTESIAN_POINT('',(0.0110132024889312,0.,0.00471154713599853));
#1866=CARTESIAN_POINT('',(0.00822578672312961,0.0268098188734958,0.0112271084502558));
#1867=CARTESIAN_POINT('',(0.00766488000019835,0.0268098188734958,0.0109871475064118));
#1868=CARTESIAN_POINT('',(0.00766488000019835,0.0273961467571193,0.0111557215829645));
#1869=CARTESIAN_POINT('',(0.,0.0282669359643754,0.00812697598095075));
#1870=CARTESIAN_POINT('',(-0.00803625041693905,0.027330404480982,0.011384383844805));
#1871=CARTESIAN_POINT('',(-0.00803625041693905,0.0267440765973584,0.0112158097682523));
#1872=CARTESIAN_POINT('',(-0.00859490340750325,0.0267440765973584,0.0114609718422639));
#1873=CARTESIAN_POINT('',(-0.0114243381858896,0.,0.0050135137396013));
#1874=CARTESIAN_POINT('',(-0.012906411380446,0.0138737548821014,0.00163630041771246));
#1875=CARTESIAN_POINT('',(-0.0123477583898818,0.0138737548821014,0.00139113834370082));
#1876=CARTESIAN_POINT('',(-0.0123477583898818,0.0132878640227642,0.00156122510786895));
#1877=CARTESIAN_POINT('',(0.,0.011837045981993,-0.0034363479414311));
#1878=CARTESIAN_POINT('',(-0.004975,0.0210300020029443,0.0036));
#1879=CARTESIAN_POINT('',(0.000407596688648801,0.017369438790994,0.0036));
#1880=MECHANICAL_DESIGN_GEOMETRIC_PRESENTATION_REPRESENTATION('',(#1113),
#1881);
#1881=(
GEOMETRIC_REPRESENTATION_CONTEXT(3)
GLOBAL_UNCERTAINTY_ASSIGNED_CONTEXT((#1882))
GLOBAL_UNIT_ASSIGNED_CONTEXT((#1885,#1884,#1883))
REPRESENTATION_CONTEXT('1.5u','TOP_LEVEL_ASSEMBLY_PART')
);
#1882=UNCERTAINTY_MEASURE_WITH_UNIT(LENGTH_MEASURE(2.E-5),#1885,
'DISTANCE_ACCURACY_VALUE','Maximum Tolerance applied to model');
#1883=(
NAMED_UNIT(*)
SI_UNIT($,.STERADIAN.)
SOLID_ANGLE_UNIT()
);
#1884=(
NAMED_UNIT(*)
PLANE_ANGLE_UNIT()
SI_UNIT($,.RADIAN.)
);
#1885=(
LENGTH_UNIT()
NAMED_UNIT(*)
SI_UNIT($,.METRE.)
);
#1886=PRODUCT_DEFINITION_SHAPE('','',#1887);
#1887=PRODUCT_DEFINITION('','',#1889,#1888);
#1888=PRODUCT_DEFINITION_CONTEXT('',#1895,'design');
#1889=PRODUCT_DEFINITION_FORMATION_WITH_SPECIFIED_SOURCE('','',#1891,
 .NOT_KNOWN.);
#1890=PRODUCT_RELATED_PRODUCT_CATEGORY('','',(#1891));
#1891=PRODUCT('1.5u','1.5u','1.5u',(#1893));
#1892=PRODUCT_CATEGORY('','');
#1893=PRODUCT_CONTEXT('',#1895,'mechanical');
#1894=APPLICATION_PROTOCOL_DEFINITION('international standard',
'ap242_managed_model_based_3d_engineering',2020,#1895);
#1895=APPLICATION_CONTEXT('managed model based 3d engineering');
ENDSEC;
END-ISO-10303-21;
