ISO-10303-21;
HEADER;
/* Generated by software containing ST-Developer
 * from STEP Tools, Inc. (www.steptools.com) 
 */
/* OPTION: using custom renumber hook */

FILE_DESCRIPTION(
/* description */ ('STEP AP242 Edition 2',
'CAx-IF Rec.Pracs.---Representation and Presentation of Product Manufa
cturing Information (PMI)---4.0---2014-10-13',
'CAx-IF Rec.Pracs.---3D Tessellated Geometry---0.4---2014-09-14','2;1',
'CAx-IF Rec.Pracs.---User Defined Attributes---1.5---2016-08-15'),
/* implementation_level */ '2;1');

FILE_NAME(
/* name */ 'Keycaps - 1.25u',
/* time_stamp */ '2026-04-23T14:41:42Z',
/* author */ (''),
/* organization */ (''),
/* preprocessor_version */ 'ST-DEVELOPER v20',
/* originating_system */ 'ONSHAPE BY PTC INC, 1.213',
/* authorisation */ '  ');

FILE_SCHEMA (('AP242_MANAGED_MODEL_BASED_3D_ENGINEERING_MIM_LF { 1 0 10303 442 3 1 4 }'));
ENDSEC;

DATA;
#10=SHAPE_REPRESENTATION_RELATIONSHIP('','',#1123,#11);
#11=ADVANCED_BREP_SHAPE_REPRESENTATION('',(#1121),#1881);
#12=SPHERICAL_SURFACE('',#1195,0.00061008);
#13=SPHERICAL_SURFACE('',#1200,0.00061008);
#14=SPHERICAL_SURFACE('',#1205,0.00061008);
#15=SPHERICAL_SURFACE('',#1210,0.00061008);
#16=ELLIPSE('',#1178,0.000672160119386141,0.00061008);
#17=ELLIPSE('',#1179,0.000672160119386141,0.00061008);
#18=ELLIPSE('',#1181,0.000672162698829487,0.00061008);
#19=ELLIPSE('',#1182,0.000672162698829487,0.00061008);
#20=ELLIPSE('',#1184,0.000672165017524814,0.00061008);
#21=ELLIPSE('',#1185,0.000672165017524814,0.00061008);
#22=ELLIPSE('',#1187,0.000672162438090366,0.00061008);
#23=ELLIPSE('',#1188,0.000672162438090366,0.00061008);
#24=B_SPLINE_SURFACE_WITH_KNOTS('',3,1,((#1751,#1752),(#1753,#1754),(#1755,
#1756),(#1757,#1758)),.SURF_OF_LINEAR_EXTRUSION.,.F.,.F.,.F.,(4,4),(2,2),
(5.43482970954969,6.91121682041481),(0.,1.),.PIECEWISE_BEZIER_KNOTS.);
#25=B_SPLINE_SURFACE_WITH_KNOTS('',3,1,((#1770,#1771),(#1772,#1773),(#1774,
#1775),(#1776,#1777)),.SURF_OF_LINEAR_EXTRUSION.,.F.,.F.,.F.,(4,4),(2,2),
(2.51353642968809,3.98991866271368),(0.,1.),.PIECEWISE_BEZIER_KNOTS.);
#26=B_SPLINE_SURFACE_WITH_KNOTS('',3,1,((#1789,#1790),(#1791,#1792),(#1793,
#1794),(#1795,#1796)),.SURF_OF_LINEAR_EXTRUSION.,.F.,.F.,.F.,(4,4),(2,2),
(5.43484508186453,6.91122462507952),(0.,1.),.PIECEWISE_BEZIER_KNOTS.);
#27=B_SPLINE_SURFACE_WITH_KNOTS('',3,1,((#1808,#1809),(#1810,#1811),(#1812,
#1813),(#1814,#1815)),.SURF_OF_LINEAR_EXTRUSION.,.F.,.F.,.F.,(4,4),(2,2),
(2.51357804609693,3.98996246729125),(0.,1.),.PIECEWISE_BEZIER_KNOTS.);
#28=PLANE('',#1128);
#29=PLANE('',#1131);
#30=PLANE('',#1136);
#31=PLANE('',#1141);
#32=PLANE('',#1145);
#33=PLANE('',#1146);
#34=PLANE('',#1147);
#35=PLANE('',#1150);
#36=PLANE('',#1151);
#37=PLANE('',#1152);
#38=PLANE('',#1153);
#39=PLANE('',#1156);
#40=PLANE('',#1157);
#41=PLANE('',#1158);
#42=PLANE('',#1159);
#43=PLANE('',#1162);
#44=PLANE('',#1163);
#45=PLANE('',#1164);
#46=PLANE('',#1165);
#47=PLANE('',#1168);
#48=PLANE('',#1169);
#49=PLANE('',#1170);
#50=PLANE('',#1171);
#51=PLANE('',#1172);
#52=PLANE('',#1173);
#53=PLANE('',#1174);
#54=PLANE('',#1175);
#55=PLANE('',#1176);
#56=PLANE('',#1177);
#57=PLANE('',#1180);
#58=PLANE('',#1183);
#59=PLANE('',#1186);
#60=PLANE('',#1189);
#61=PLANE('',#1190);
#62=PLANE('',#1191);
#63=PLANE('',#1213);
#64=PLANE('',#1215);
#65=PLANE('',#1217);
#66=PLANE('',#1219);
#67=PLANE('',#1220);
#68=PLANE('',#1221);
#69=CIRCLE('',#1126,0.0026);
#70=CIRCLE('',#1127,0.0026);
#71=CIRCLE('',#1129,0.0003);
#72=CIRCLE('',#1130,0.0026);
#73=CIRCLE('',#1132,0.0003);
#74=CIRCLE('',#1134,0.0026);
#75=CIRCLE('',#1135,0.0026);
#76=CIRCLE('',#1137,0.0003);
#77=CIRCLE('',#1139,0.0026);
#78=CIRCLE('',#1140,0.0026);
#79=CIRCLE('',#1142,0.0003);
#80=CIRCLE('',#1144,0.0026);
#81=CIRCLE('',#1149,0.0003);
#82=CIRCLE('',#1155,0.0003);
#83=CIRCLE('',#1161,0.0003);
#84=CIRCLE('',#1167,0.0003);
#85=CIRCLE('',#1193,0.00061008);
#86=CIRCLE('',#1194,0.00061008);
#87=CIRCLE('',#1196,0.00061008);
#88=CIRCLE('',#1197,0.00061008);
#89=CIRCLE('',#1199,0.00061008);
#90=CIRCLE('',#1201,0.00061008);
#91=CIRCLE('',#1202,0.00061008);
#92=CIRCLE('',#1204,0.00061008);
#93=CIRCLE('',#1206,0.00061008);
#94=CIRCLE('',#1207,0.00061008);
#95=CIRCLE('',#1209,0.00061008);
#96=CIRCLE('',#1211,0.00061008);
#97=ORIENTED_EDGE('',*,*,#405,.F.);
#98=ORIENTED_EDGE('',*,*,#406,.F.);
#99=ORIENTED_EDGE('',*,*,#407,.T.);
#100=ORIENTED_EDGE('',*,*,#408,.T.);
#101=ORIENTED_EDGE('',*,*,#409,.T.);
#102=ORIENTED_EDGE('',*,*,#410,.T.);
#103=ORIENTED_EDGE('',*,*,#411,.T.);
#104=ORIENTED_EDGE('',*,*,#412,.F.);
#105=ORIENTED_EDGE('',*,*,#413,.F.);
#106=ORIENTED_EDGE('',*,*,#414,.T.);
#107=ORIENTED_EDGE('',*,*,#415,.F.);
#108=ORIENTED_EDGE('',*,*,#416,.T.);
#109=ORIENTED_EDGE('',*,*,#408,.F.);
#110=ORIENTED_EDGE('',*,*,#417,.T.);
#111=ORIENTED_EDGE('',*,*,#418,.T.);
#112=ORIENTED_EDGE('',*,*,#419,.F.);
#113=ORIENTED_EDGE('',*,*,#420,.F.);
#114=ORIENTED_EDGE('',*,*,#421,.F.);
#115=ORIENTED_EDGE('',*,*,#422,.F.);
#116=ORIENTED_EDGE('',*,*,#423,.T.);
#117=ORIENTED_EDGE('',*,*,#424,.T.);
#118=ORIENTED_EDGE('',*,*,#425,.T.);
#119=ORIENTED_EDGE('',*,*,#424,.F.);
#120=ORIENTED_EDGE('',*,*,#426,.T.);
#121=ORIENTED_EDGE('',*,*,#427,.T.);
#122=ORIENTED_EDGE('',*,*,#428,.F.);
#123=ORIENTED_EDGE('',*,*,#429,.F.);
#124=ORIENTED_EDGE('',*,*,#430,.F.);
#125=ORIENTED_EDGE('',*,*,#431,.F.);
#126=ORIENTED_EDGE('',*,*,#432,.T.);
#127=ORIENTED_EDGE('',*,*,#433,.T.);
#128=ORIENTED_EDGE('',*,*,#434,.T.);
#129=ORIENTED_EDGE('',*,*,#433,.F.);
#130=ORIENTED_EDGE('',*,*,#435,.T.);
#131=ORIENTED_EDGE('',*,*,#436,.T.);
#132=ORIENTED_EDGE('',*,*,#437,.T.);
#133=ORIENTED_EDGE('',*,*,#438,.F.);
#134=ORIENTED_EDGE('',*,*,#439,.F.);
#135=ORIENTED_EDGE('',*,*,#440,.F.);
#136=ORIENTED_EDGE('',*,*,#441,.T.);
#137=ORIENTED_EDGE('',*,*,#415,.T.);
#138=ORIENTED_EDGE('',*,*,#442,.F.);
#139=ORIENTED_EDGE('',*,*,#443,.F.);
#140=ORIENTED_EDGE('',*,*,#444,.F.);
#141=ORIENTED_EDGE('',*,*,#445,.F.);
#142=ORIENTED_EDGE('',*,*,#446,.T.);
#143=ORIENTED_EDGE('',*,*,#447,.F.);
#144=ORIENTED_EDGE('',*,*,#446,.F.);
#145=ORIENTED_EDGE('',*,*,#448,.F.);
#146=ORIENTED_EDGE('',*,*,#449,.T.);
#147=ORIENTED_EDGE('',*,*,#437,.F.);
#148=ORIENTED_EDGE('',*,*,#450,.F.);
#149=ORIENTED_EDGE('',*,*,#451,.T.);
#150=ORIENTED_EDGE('',*,*,#452,.T.);
#151=ORIENTED_EDGE('',*,*,#438,.T.);
#152=ORIENTED_EDGE('',*,*,#452,.F.);
#153=ORIENTED_EDGE('',*,*,#453,.F.);
#154=ORIENTED_EDGE('',*,*,#454,.T.);
#155=ORIENTED_EDGE('',*,*,#439,.T.);
#156=ORIENTED_EDGE('',*,*,#454,.F.);
#157=ORIENTED_EDGE('',*,*,#455,.F.);
#158=ORIENTED_EDGE('',*,*,#456,.T.);
#159=ORIENTED_EDGE('',*,*,#434,.F.);
#160=ORIENTED_EDGE('',*,*,#456,.F.);
#161=ORIENTED_EDGE('',*,*,#457,.T.);
#162=ORIENTED_EDGE('',*,*,#458,.F.);
#163=ORIENTED_EDGE('',*,*,#430,.T.);
#164=ORIENTED_EDGE('',*,*,#426,.F.);
#165=ORIENTED_EDGE('',*,*,#423,.F.);
#166=ORIENTED_EDGE('',*,*,#459,.T.);
#167=ORIENTED_EDGE('',*,*,#460,.T.);
#168=ORIENTED_EDGE('',*,*,#427,.F.);
#169=ORIENTED_EDGE('',*,*,#460,.F.);
#170=ORIENTED_EDGE('',*,*,#461,.T.);
#171=ORIENTED_EDGE('',*,*,#462,.T.);
#172=ORIENTED_EDGE('',*,*,#428,.T.);
#173=ORIENTED_EDGE('',*,*,#462,.F.);
#174=ORIENTED_EDGE('',*,*,#463,.F.);
#175=ORIENTED_EDGE('',*,*,#464,.T.);
#176=ORIENTED_EDGE('',*,*,#429,.T.);
#177=ORIENTED_EDGE('',*,*,#464,.F.);
#178=ORIENTED_EDGE('',*,*,#465,.F.);
#179=ORIENTED_EDGE('',*,*,#466,.T.);
#180=ORIENTED_EDGE('',*,*,#425,.F.);
#181=ORIENTED_EDGE('',*,*,#466,.F.);
#182=ORIENTED_EDGE('',*,*,#467,.T.);
#183=ORIENTED_EDGE('',*,*,#468,.F.);
#184=ORIENTED_EDGE('',*,*,#421,.T.);
#185=ORIENTED_EDGE('',*,*,#417,.F.);
#186=ORIENTED_EDGE('',*,*,#407,.F.);
#187=ORIENTED_EDGE('',*,*,#469,.T.);
#188=ORIENTED_EDGE('',*,*,#470,.T.);
#189=ORIENTED_EDGE('',*,*,#418,.F.);
#190=ORIENTED_EDGE('',*,*,#470,.F.);
#191=ORIENTED_EDGE('',*,*,#471,.T.);
#192=ORIENTED_EDGE('',*,*,#472,.T.);
#193=ORIENTED_EDGE('',*,*,#419,.T.);
#194=ORIENTED_EDGE('',*,*,#472,.F.);
#195=ORIENTED_EDGE('',*,*,#473,.F.);
#196=ORIENTED_EDGE('',*,*,#474,.T.);
#197=ORIENTED_EDGE('',*,*,#420,.T.);
#198=ORIENTED_EDGE('',*,*,#474,.F.);
#199=ORIENTED_EDGE('',*,*,#475,.F.);
#200=ORIENTED_EDGE('',*,*,#476,.T.);
#201=ORIENTED_EDGE('',*,*,#416,.F.);
#202=ORIENTED_EDGE('',*,*,#476,.F.);
#203=ORIENTED_EDGE('',*,*,#477,.T.);
#204=ORIENTED_EDGE('',*,*,#478,.F.);
#205=ORIENTED_EDGE('',*,*,#405,.T.);
#206=ORIENTED_EDGE('',*,*,#410,.F.);
#207=ORIENTED_EDGE('',*,*,#479,.F.);
#208=ORIENTED_EDGE('',*,*,#480,.T.);
#209=ORIENTED_EDGE('',*,*,#481,.T.);
#210=ORIENTED_EDGE('',*,*,#411,.F.);
#211=ORIENTED_EDGE('',*,*,#481,.F.);
#212=ORIENTED_EDGE('',*,*,#482,.T.);
#213=ORIENTED_EDGE('',*,*,#483,.T.);
#214=ORIENTED_EDGE('',*,*,#412,.T.);
#215=ORIENTED_EDGE('',*,*,#483,.F.);
#216=ORIENTED_EDGE('',*,*,#484,.F.);
#217=ORIENTED_EDGE('',*,*,#485,.T.);
#218=ORIENTED_EDGE('',*,*,#413,.T.);
#219=ORIENTED_EDGE('',*,*,#485,.F.);
#220=ORIENTED_EDGE('',*,*,#486,.F.);
#221=ORIENTED_EDGE('',*,*,#487,.T.);
#222=ORIENTED_EDGE('',*,*,#414,.F.);
#223=ORIENTED_EDGE('',*,*,#487,.F.);
#224=ORIENTED_EDGE('',*,*,#488,.T.);
#225=ORIENTED_EDGE('',*,*,#489,.F.);
#226=ORIENTED_EDGE('',*,*,#442,.T.);
#227=ORIENTED_EDGE('',*,*,#436,.F.);
#228=ORIENTED_EDGE('',*,*,#490,.F.);
#229=ORIENTED_EDGE('',*,*,#491,.T.);
#230=ORIENTED_EDGE('',*,*,#450,.T.);
#231=ORIENTED_EDGE('',*,*,#492,.T.);
#232=ORIENTED_EDGE('',*,*,#493,.F.);
#233=ORIENTED_EDGE('',*,*,#449,.F.);
#234=ORIENTED_EDGE('',*,*,#494,.F.);
#235=ORIENTED_EDGE('',*,*,#444,.T.);
#236=ORIENTED_EDGE('',*,*,#495,.F.);
#237=ORIENTED_EDGE('',*,*,#492,.F.);
#238=ORIENTED_EDGE('',*,*,#496,.F.);
#239=ORIENTED_EDGE('',*,*,#480,.F.);
#240=ORIENTED_EDGE('',*,*,#497,.F.);
#241=ORIENTED_EDGE('',*,*,#440,.T.);
#242=ORIENTED_EDGE('',*,*,#489,.T.);
#243=ORIENTED_EDGE('',*,*,#488,.F.);
#244=ORIENTED_EDGE('',*,*,#486,.T.);
#245=ORIENTED_EDGE('',*,*,#484,.T.);
#246=ORIENTED_EDGE('',*,*,#482,.F.);
#247=ORIENTED_EDGE('',*,*,#406,.T.);
#248=ORIENTED_EDGE('',*,*,#478,.T.);
#249=ORIENTED_EDGE('',*,*,#477,.F.);
#250=ORIENTED_EDGE('',*,*,#475,.T.);
#251=ORIENTED_EDGE('',*,*,#473,.T.);
#252=ORIENTED_EDGE('',*,*,#471,.F.);
#253=ORIENTED_EDGE('',*,*,#469,.F.);
#254=ORIENTED_EDGE('',*,*,#422,.T.);
#255=ORIENTED_EDGE('',*,*,#468,.T.);
#256=ORIENTED_EDGE('',*,*,#467,.F.);
#257=ORIENTED_EDGE('',*,*,#465,.T.);
#258=ORIENTED_EDGE('',*,*,#463,.T.);
#259=ORIENTED_EDGE('',*,*,#461,.F.);
#260=ORIENTED_EDGE('',*,*,#459,.F.);
#261=ORIENTED_EDGE('',*,*,#431,.T.);
#262=ORIENTED_EDGE('',*,*,#458,.T.);
#263=ORIENTED_EDGE('',*,*,#457,.F.);
#264=ORIENTED_EDGE('',*,*,#455,.T.);
#265=ORIENTED_EDGE('',*,*,#453,.T.);
#266=ORIENTED_EDGE('',*,*,#451,.F.);
#267=ORIENTED_EDGE('',*,*,#491,.F.);
#268=ORIENTED_EDGE('',*,*,#498,.F.);
#269=ORIENTED_EDGE('',*,*,#495,.T.);
#270=ORIENTED_EDGE('',*,*,#443,.T.);
#271=ORIENTED_EDGE('',*,*,#447,.T.);
#272=ORIENTED_EDGE('',*,*,#493,.T.);
#273=ORIENTED_EDGE('',*,*,#494,.T.);
#274=ORIENTED_EDGE('',*,*,#499,.F.);
#275=ORIENTED_EDGE('',*,*,#500,.F.);
#276=ORIENTED_EDGE('',*,*,#501,.T.);
#277=ORIENTED_EDGE('',*,*,#448,.T.);
#278=ORIENTED_EDGE('',*,*,#502,.F.);
#279=ORIENTED_EDGE('',*,*,#503,.F.);
#280=ORIENTED_EDGE('',*,*,#499,.T.);
#281=ORIENTED_EDGE('',*,*,#445,.T.);
#282=ORIENTED_EDGE('',*,*,#504,.F.);
#283=ORIENTED_EDGE('',*,*,#505,.F.);
#284=ORIENTED_EDGE('',*,*,#502,.T.);
#285=ORIENTED_EDGE('',*,*,#506,.F.);
#286=ORIENTED_EDGE('',*,*,#507,.F.);
#287=ORIENTED_EDGE('',*,*,#508,.T.);
#288=ORIENTED_EDGE('',*,*,#509,.T.);
#289=ORIENTED_EDGE('',*,*,#510,.T.);
#290=ORIENTED_EDGE('',*,*,#511,.F.);
#291=ORIENTED_EDGE('',*,*,#512,.F.);
#292=ORIENTED_EDGE('',*,*,#507,.T.);
#293=ORIENTED_EDGE('',*,*,#513,.F.);
#294=ORIENTED_EDGE('',*,*,#514,.F.);
#295=ORIENTED_EDGE('',*,*,#515,.T.);
#296=ORIENTED_EDGE('',*,*,#511,.T.);
#297=ORIENTED_EDGE('',*,*,#516,.T.);
#298=ORIENTED_EDGE('',*,*,#517,.F.);
#299=ORIENTED_EDGE('',*,*,#518,.F.);
#300=ORIENTED_EDGE('',*,*,#514,.T.);
#301=ORIENTED_EDGE('',*,*,#519,.F.);
#302=ORIENTED_EDGE('',*,*,#520,.F.);
#303=ORIENTED_EDGE('',*,*,#521,.T.);
#304=ORIENTED_EDGE('',*,*,#517,.T.);
#305=ORIENTED_EDGE('',*,*,#522,.T.);
#306=ORIENTED_EDGE('',*,*,#523,.F.);
#307=ORIENTED_EDGE('',*,*,#524,.F.);
#308=ORIENTED_EDGE('',*,*,#520,.T.);
#309=ORIENTED_EDGE('',*,*,#525,.F.);
#310=ORIENTED_EDGE('',*,*,#526,.F.);
#311=ORIENTED_EDGE('',*,*,#527,.T.);
#312=ORIENTED_EDGE('',*,*,#523,.T.);
#313=ORIENTED_EDGE('',*,*,#528,.T.);
#314=ORIENTED_EDGE('',*,*,#509,.F.);
#315=ORIENTED_EDGE('',*,*,#529,.F.);
#316=ORIENTED_EDGE('',*,*,#526,.T.);
#317=ORIENTED_EDGE('',*,*,#496,.T.);
#318=ORIENTED_EDGE('',*,*,#501,.F.);
#319=ORIENTED_EDGE('',*,*,#530,.F.);
#320=ORIENTED_EDGE('',*,*,#504,.T.);
#321=ORIENTED_EDGE('',*,*,#508,.F.);
#322=ORIENTED_EDGE('',*,*,#512,.T.);
#323=ORIENTED_EDGE('',*,*,#515,.F.);
#324=ORIENTED_EDGE('',*,*,#518,.T.);
#325=ORIENTED_EDGE('',*,*,#521,.F.);
#326=ORIENTED_EDGE('',*,*,#524,.T.);
#327=ORIENTED_EDGE('',*,*,#527,.F.);
#328=ORIENTED_EDGE('',*,*,#529,.T.);
#329=ORIENTED_EDGE('',*,*,#500,.T.);
#330=ORIENTED_EDGE('',*,*,#503,.T.);
#331=ORIENTED_EDGE('',*,*,#505,.T.);
#332=ORIENTED_EDGE('',*,*,#530,.T.);
#333=ORIENTED_EDGE('',*,*,#531,.T.);
#334=ORIENTED_EDGE('',*,*,#532,.T.);
#335=ORIENTED_EDGE('',*,*,#533,.T.);
#336=ORIENTED_EDGE('',*,*,#534,.T.);
#337=ORIENTED_EDGE('',*,*,#535,.T.);
#338=ORIENTED_EDGE('',*,*,#532,.F.);
#339=ORIENTED_EDGE('',*,*,#536,.F.);
#340=ORIENTED_EDGE('',*,*,#537,.F.);
#341=ORIENTED_EDGE('',*,*,#536,.T.);
#342=ORIENTED_EDGE('',*,*,#538,.T.);
#343=ORIENTED_EDGE('',*,*,#539,.F.);
#344=ORIENTED_EDGE('',*,*,#540,.T.);
#345=ORIENTED_EDGE('',*,*,#541,.F.);
#346=ORIENTED_EDGE('',*,*,#538,.F.);
#347=ORIENTED_EDGE('',*,*,#531,.F.);
#348=ORIENTED_EDGE('',*,*,#542,.T.);
#349=ORIENTED_EDGE('',*,*,#543,.T.);
#350=ORIENTED_EDGE('',*,*,#540,.F.);
#351=ORIENTED_EDGE('',*,*,#544,.T.);
#352=ORIENTED_EDGE('',*,*,#545,.F.);
#353=ORIENTED_EDGE('',*,*,#542,.F.);
#354=ORIENTED_EDGE('',*,*,#534,.F.);
#355=ORIENTED_EDGE('',*,*,#546,.F.);
#356=ORIENTED_EDGE('',*,*,#547,.T.);
#357=ORIENTED_EDGE('',*,*,#544,.F.);
#358=ORIENTED_EDGE('',*,*,#546,.T.);
#359=ORIENTED_EDGE('',*,*,#533,.F.);
#360=ORIENTED_EDGE('',*,*,#548,.F.);
#361=ORIENTED_EDGE('',*,*,#549,.F.);
#362=ORIENTED_EDGE('',*,*,#550,.T.);
#363=ORIENTED_EDGE('',*,*,#548,.T.);
#364=ORIENTED_EDGE('',*,*,#535,.F.);
#365=ORIENTED_EDGE('',*,*,#528,.F.);
#366=ORIENTED_EDGE('',*,*,#551,.F.);
#367=ORIENTED_EDGE('',*,*,#550,.F.);
#368=ORIENTED_EDGE('',*,*,#552,.F.);
#369=ORIENTED_EDGE('',*,*,#549,.T.);
#370=ORIENTED_EDGE('',*,*,#551,.T.);
#371=ORIENTED_EDGE('',*,*,#525,.T.);
#372=ORIENTED_EDGE('',*,*,#553,.T.);
#373=ORIENTED_EDGE('',*,*,#547,.F.);
#374=ORIENTED_EDGE('',*,*,#553,.F.);
#375=ORIENTED_EDGE('',*,*,#522,.F.);
#376=ORIENTED_EDGE('',*,*,#554,.F.);
#377=ORIENTED_EDGE('',*,*,#519,.T.);
#378=ORIENTED_EDGE('',*,*,#555,.T.);
#379=ORIENTED_EDGE('',*,*,#545,.T.);
#380=ORIENTED_EDGE('',*,*,#554,.T.);
#381=ORIENTED_EDGE('',*,*,#516,.F.);
#382=ORIENTED_EDGE('',*,*,#556,.F.);
#383=ORIENTED_EDGE('',*,*,#543,.F.);
#384=ORIENTED_EDGE('',*,*,#555,.F.);
#385=ORIENTED_EDGE('',*,*,#513,.T.);
#386=ORIENTED_EDGE('',*,*,#557,.T.);
#387=ORIENTED_EDGE('',*,*,#541,.T.);
#388=ORIENTED_EDGE('',*,*,#556,.T.);
#389=ORIENTED_EDGE('',*,*,#510,.F.);
#390=ORIENTED_EDGE('',*,*,#558,.F.);
#391=ORIENTED_EDGE('',*,*,#539,.T.);
#392=ORIENTED_EDGE('',*,*,#557,.F.);
#393=ORIENTED_EDGE('',*,*,#537,.T.);
#394=ORIENTED_EDGE('',*,*,#558,.T.);
#395=ORIENTED_EDGE('',*,*,#506,.T.);
#396=ORIENTED_EDGE('',*,*,#552,.T.);
#397=ORIENTED_EDGE('',*,*,#498,.T.);
#398=ORIENTED_EDGE('',*,*,#490,.T.);
#399=ORIENTED_EDGE('',*,*,#435,.F.);
#400=ORIENTED_EDGE('',*,*,#432,.F.);
#401=ORIENTED_EDGE('',*,*,#497,.T.);
#402=ORIENTED_EDGE('',*,*,#479,.T.);
#403=ORIENTED_EDGE('',*,*,#409,.F.);
#404=ORIENTED_EDGE('',*,*,#441,.F.);
#405=EDGE_CURVE('',#559,#560,#655,.T.);
#406=EDGE_CURVE('',#561,#559,#69,.F.);
#407=EDGE_CURVE('',#561,#562,#656,.T.);
#408=EDGE_CURVE('',#562,#560,#70,.T.);
#409=EDGE_CURVE('',#563,#564,#657,.T.);
#410=EDGE_CURVE('',#564,#565,#658,.T.);
#411=EDGE_CURVE('',#565,#566,#659,.T.);
#412=EDGE_CURVE('',#567,#566,#71,.T.);
#413=EDGE_CURVE('',#568,#567,#660,.T.);
#414=EDGE_CURVE('',#568,#569,#661,.T.);
#415=EDGE_CURVE('',#563,#569,#72,.T.);
#416=EDGE_CURVE('',#570,#560,#662,.T.);
#417=EDGE_CURVE('',#562,#571,#663,.T.);
#418=EDGE_CURVE('',#571,#572,#664,.T.);
#419=EDGE_CURVE('',#573,#572,#73,.T.);
#420=EDGE_CURVE('',#570,#573,#665,.T.);
#421=EDGE_CURVE('',#574,#575,#666,.T.);
#422=EDGE_CURVE('',#576,#574,#74,.F.);
#423=EDGE_CURVE('',#576,#577,#667,.T.);
#424=EDGE_CURVE('',#577,#575,#75,.T.);
#425=EDGE_CURVE('',#578,#575,#668,.T.);
#426=EDGE_CURVE('',#577,#579,#669,.T.);
#427=EDGE_CURVE('',#579,#580,#670,.T.);
#428=EDGE_CURVE('',#581,#580,#76,.T.);
#429=EDGE_CURVE('',#578,#581,#671,.T.);
#430=EDGE_CURVE('',#582,#583,#672,.T.);
#431=EDGE_CURVE('',#584,#582,#77,.F.);
#432=EDGE_CURVE('',#584,#585,#673,.T.);
#433=EDGE_CURVE('',#585,#583,#78,.T.);
#434=EDGE_CURVE('',#586,#583,#674,.T.);
#435=EDGE_CURVE('',#585,#587,#675,.T.);
#436=EDGE_CURVE('',#587,#588,#676,.T.);
#437=EDGE_CURVE('',#588,#589,#677,.T.);
#438=EDGE_CURVE('',#590,#589,#79,.T.);
#439=EDGE_CURVE('',#586,#590,#678,.T.);
#440=EDGE_CURVE('',#591,#592,#80,.F.);
#441=EDGE_CURVE('',#591,#563,#679,.T.);
#442=EDGE_CURVE('',#592,#569,#680,.T.);
#443=EDGE_CURVE('',#593,#594,#681,.T.);
#444=EDGE_CURVE('',#595,#593,#682,.F.);
#445=EDGE_CURVE('',#596,#595,#683,.T.);
#446=EDGE_CURVE('',#596,#594,#684,.T.);
#447=EDGE_CURVE('',#594,#597,#685,.T.);
#448=EDGE_CURVE('',#598,#596,#686,.T.);
#449=EDGE_CURVE('',#598,#597,#687,.F.);
#450=EDGE_CURVE('',#599,#588,#688,.T.);
#451=EDGE_CURVE('',#599,#600,#689,.T.);
#452=EDGE_CURVE('',#600,#589,#690,.T.);
#453=EDGE_CURVE('',#601,#600,#81,.T.);
#454=EDGE_CURVE('',#601,#590,#691,.T.);
#455=EDGE_CURVE('',#602,#601,#692,.T.);
#456=EDGE_CURVE('',#602,#586,#693,.T.);
#457=EDGE_CURVE('',#602,#603,#694,.T.);
#458=EDGE_CURVE('',#582,#603,#695,.T.);
#459=EDGE_CURVE('',#576,#604,#696,.T.);
#460=EDGE_CURVE('',#604,#579,#697,.T.);
#461=EDGE_CURVE('',#604,#605,#698,.T.);
#462=EDGE_CURVE('',#605,#580,#699,.T.);
#463=EDGE_CURVE('',#606,#605,#82,.T.);
#464=EDGE_CURVE('',#606,#581,#700,.T.);
#465=EDGE_CURVE('',#607,#606,#701,.T.);
#466=EDGE_CURVE('',#607,#578,#702,.T.);
#467=EDGE_CURVE('',#607,#608,#703,.T.);
#468=EDGE_CURVE('',#574,#608,#704,.T.);
#469=EDGE_CURVE('',#561,#609,#705,.T.);
#470=EDGE_CURVE('',#609,#571,#706,.T.);
#471=EDGE_CURVE('',#609,#610,#707,.T.);
#472=EDGE_CURVE('',#610,#572,#708,.T.);
#473=EDGE_CURVE('',#611,#610,#83,.T.);
#474=EDGE_CURVE('',#611,#573,#709,.T.);
#475=EDGE_CURVE('',#612,#611,#710,.F.);
#476=EDGE_CURVE('',#612,#570,#711,.T.);
#477=EDGE_CURVE('',#612,#613,#712,.T.);
#478=EDGE_CURVE('',#559,#613,#713,.T.);
#479=EDGE_CURVE('',#614,#564,#714,.T.);
#480=EDGE_CURVE('',#614,#615,#715,.T.);
#481=EDGE_CURVE('',#615,#565,#716,.T.);
#482=EDGE_CURVE('',#615,#616,#717,.T.);
#483=EDGE_CURVE('',#616,#566,#718,.T.);
#484=EDGE_CURVE('',#617,#616,#84,.T.);
#485=EDGE_CURVE('',#617,#567,#719,.T.);
#486=EDGE_CURVE('',#618,#617,#720,.T.);
#487=EDGE_CURVE('',#618,#568,#721,.T.);
#488=EDGE_CURVE('',#618,#619,#722,.T.);
#489=EDGE_CURVE('',#592,#619,#723,.T.);
#490=EDGE_CURVE('',#620,#587,#724,.T.);
#491=EDGE_CURVE('',#620,#599,#725,.T.);
#492=EDGE_CURVE('',#621,#622,#726,.T.);
#493=EDGE_CURVE('',#597,#622,#727,.F.);
#494=EDGE_CURVE('',#621,#598,#728,.F.);
#495=EDGE_CURVE('',#622,#593,#729,.F.);
#496=EDGE_CURVE('',#595,#621,#730,.F.);
#497=EDGE_CURVE('',#591,#614,#731,.T.);
#498=EDGE_CURVE('',#584,#620,#732,.T.);
#499=EDGE_CURVE('',#623,#598,#733,.T.);
#500=EDGE_CURVE('',#624,#623,#734,.F.);
#501=EDGE_CURVE('',#624,#621,#735,.T.);
#502=EDGE_CURVE('',#625,#596,#736,.T.);
#503=EDGE_CURVE('',#623,#625,#737,.T.);
#504=EDGE_CURVE('',#626,#595,#738,.T.);
#505=EDGE_CURVE('',#625,#626,#739,.T.);
#506=EDGE_CURVE('',#627,#628,#740,.T.);
#507=EDGE_CURVE('',#629,#627,#741,.T.);
#508=EDGE_CURVE('',#629,#630,#742,.T.);
#509=EDGE_CURVE('',#630,#628,#743,.T.);
#510=EDGE_CURVE('',#627,#631,#16,.T.);
#511=EDGE_CURVE('',#632,#631,#744,.T.);
#512=EDGE_CURVE('',#629,#632,#17,.T.);
#513=EDGE_CURVE('',#633,#631,#745,.F.);
#514=EDGE_CURVE('',#634,#633,#746,.T.);
#515=EDGE_CURVE('',#634,#632,#747,.F.);
#516=EDGE_CURVE('',#633,#635,#18,.T.);
#517=EDGE_CURVE('',#636,#635,#748,.T.);
#518=EDGE_CURVE('',#634,#636,#19,.T.);
#519=EDGE_CURVE('',#637,#635,#749,.F.);
#520=EDGE_CURVE('',#638,#637,#750,.T.);
#521=EDGE_CURVE('',#638,#636,#751,.F.);
#522=EDGE_CURVE('',#637,#639,#20,.T.);
#523=EDGE_CURVE('',#640,#639,#752,.T.);
#524=EDGE_CURVE('',#638,#640,#21,.T.);
#525=EDGE_CURVE('',#641,#639,#753,.T.);
#526=EDGE_CURVE('',#642,#641,#754,.T.);
#527=EDGE_CURVE('',#642,#640,#755,.T.);
#528=EDGE_CURVE('',#641,#628,#22,.T.);
#529=EDGE_CURVE('',#642,#630,#23,.T.);
#530=EDGE_CURVE('',#626,#624,#756,.F.);
#531=EDGE_CURVE('',#643,#644,#757,.F.);
#532=EDGE_CURVE('',#644,#645,#758,.T.);
#533=EDGE_CURVE('',#645,#646,#759,.T.);
#534=EDGE_CURVE('',#646,#643,#760,.F.);
#535=EDGE_CURVE('',#647,#645,#85,.F.);
#536=EDGE_CURVE('',#648,#644,#86,.T.);
#537=EDGE_CURVE('',#647,#648,#761,.F.);
#538=EDGE_CURVE('',#644,#649,#87,.T.);
#539=EDGE_CURVE('',#648,#649,#88,.F.);
#540=EDGE_CURVE('',#643,#650,#89,.F.);
#541=EDGE_CURVE('',#649,#650,#762,.F.);
#542=EDGE_CURVE('',#643,#651,#90,.T.);
#543=EDGE_CURVE('',#651,#650,#91,.T.);
#544=EDGE_CURVE('',#646,#652,#92,.F.);
#545=EDGE_CURVE('',#651,#652,#763,.F.);
#546=EDGE_CURVE('',#653,#646,#93,.F.);
#547=EDGE_CURVE('',#653,#652,#94,.T.);
#548=EDGE_CURVE('',#654,#645,#95,.T.);
#549=EDGE_CURVE('',#653,#654,#764,.F.);
#550=EDGE_CURVE('',#647,#654,#96,.T.);
#551=EDGE_CURVE('',#654,#641,#765,.F.);
#552=EDGE_CURVE('',#628,#647,#766,.T.);
#553=EDGE_CURVE('',#639,#653,#767,.F.);
#554=EDGE_CURVE('',#652,#637,#768,.F.);
#555=EDGE_CURVE('',#635,#651,#769,.F.);
#556=EDGE_CURVE('',#650,#633,#770,.T.);
#557=EDGE_CURVE('',#631,#649,#771,.T.);
#558=EDGE_CURVE('',#648,#627,#772,.T.);
#559=VERTEX_POINT('',#1539);
#560=VERTEX_POINT('',#1540);
#561=VERTEX_POINT('',#1542);
#562=VERTEX_POINT('',#1544);
#563=VERTEX_POINT('',#1548);
#564=VERTEX_POINT('',#1549);
#565=VERTEX_POINT('',#1551);
#566=VERTEX_POINT('',#1553);
#567=VERTEX_POINT('',#1555);
#568=VERTEX_POINT('',#1557);
#569=VERTEX_POINT('',#1559);
#570=VERTEX_POINT('',#1563);
#571=VERTEX_POINT('',#1565);
#572=VERTEX_POINT('',#1567);
#573=VERTEX_POINT('',#1569);
#574=VERTEX_POINT('',#1573);
#575=VERTEX_POINT('',#1574);
#576=VERTEX_POINT('',#1576);
#577=VERTEX_POINT('',#1578);
#578=VERTEX_POINT('',#1582);
#579=VERTEX_POINT('',#1584);
#580=VERTEX_POINT('',#1586);
#581=VERTEX_POINT('',#1588);
#582=VERTEX_POINT('',#1592);
#583=VERTEX_POINT('',#1593);
#584=VERTEX_POINT('',#1595);
#585=VERTEX_POINT('',#1597);
#586=VERTEX_POINT('',#1601);
#587=VERTEX_POINT('',#1603);
#588=VERTEX_POINT('',#1605);
#589=VERTEX_POINT('',#1607);
#590=VERTEX_POINT('',#1609);
#591=VERTEX_POINT('',#1613);
#592=VERTEX_POINT('',#1614);
#593=VERTEX_POINT('',#1619);
#594=VERTEX_POINT('',#1620);
#595=VERTEX_POINT('',#1622);
#596=VERTEX_POINT('',#1624);
#597=VERTEX_POINT('',#1628);
#598=VERTEX_POINT('',#1630);
#599=VERTEX_POINT('',#1634);
#600=VERTEX_POINT('',#1636);
#601=VERTEX_POINT('',#1640);
#602=VERTEX_POINT('',#1644);
#603=VERTEX_POINT('',#1648);
#604=VERTEX_POINT('',#1652);
#605=VERTEX_POINT('',#1656);
#606=VERTEX_POINT('',#1660);
#607=VERTEX_POINT('',#1664);
#608=VERTEX_POINT('',#1668);
#609=VERTEX_POINT('',#1672);
#610=VERTEX_POINT('',#1676);
#611=VERTEX_POINT('',#1680);
#612=VERTEX_POINT('',#1684);
#613=VERTEX_POINT('',#1688);
#614=VERTEX_POINT('',#1692);
#615=VERTEX_POINT('',#1694);
#616=VERTEX_POINT('',#1698);
#617=VERTEX_POINT('',#1702);
#618=VERTEX_POINT('',#1706);
#619=VERTEX_POINT('',#1710);
#620=VERTEX_POINT('',#1714);
#621=VERTEX_POINT('',#1718);
#622=VERTEX_POINT('',#1719);
#623=VERTEX_POINT('',#1730);
#624=VERTEX_POINT('',#1732);
#625=VERTEX_POINT('',#1736);
#626=VERTEX_POINT('',#1740);
#627=VERTEX_POINT('',#1744);
#628=VERTEX_POINT('',#1745);
#629=VERTEX_POINT('',#1747);
#630=VERTEX_POINT('',#1749);
#631=VERTEX_POINT('',#1760);
#632=VERTEX_POINT('',#1762);
#633=VERTEX_POINT('',#1766);
#634=VERTEX_POINT('',#1768);
#635=VERTEX_POINT('',#1779);
#636=VERTEX_POINT('',#1781);
#637=VERTEX_POINT('',#1785);
#638=VERTEX_POINT('',#1787);
#639=VERTEX_POINT('',#1798);
#640=VERTEX_POINT('',#1800);
#641=VERTEX_POINT('',#1804);
#642=VERTEX_POINT('',#1806);
#643=VERTEX_POINT('',#1823);
#644=VERTEX_POINT('',#1824);
#645=VERTEX_POINT('',#1826);
#646=VERTEX_POINT('',#1828);
#647=VERTEX_POINT('',#1832);
#648=VERTEX_POINT('',#1834);
#649=VERTEX_POINT('',#1838);
#650=VERTEX_POINT('',#1842);
#651=VERTEX_POINT('',#1846);
#652=VERTEX_POINT('',#1850);
#653=VERTEX_POINT('',#1854);
#654=VERTEX_POINT('',#1858);
#655=LINE('',#1538,#773);
#656=LINE('',#1543,#774);
#657=LINE('',#1547,#775);
#658=LINE('',#1550,#776);
#659=LINE('',#1552,#777);
#660=LINE('',#1556,#778);
#661=LINE('',#1558,#779);
#662=LINE('',#1562,#780);
#663=LINE('',#1564,#781);
#664=LINE('',#1566,#782);
#665=LINE('',#1570,#783);
#666=LINE('',#1572,#784);
#667=LINE('',#1577,#785);
#668=LINE('',#1581,#786);
#669=LINE('',#1583,#787);
#670=LINE('',#1585,#788);
#671=LINE('',#1589,#789);
#672=LINE('',#1591,#790);
#673=LINE('',#1596,#791);
#674=LINE('',#1600,#792);
#675=LINE('',#1602,#793);
#676=LINE('',#1604,#794);
#677=LINE('',#1606,#795);
#678=LINE('',#1610,#796);
#679=LINE('',#1615,#797);
#680=LINE('',#1616,#798);
#681=LINE('',#1618,#799);
#682=LINE('',#1621,#800);
#683=LINE('',#1623,#801);
#684=LINE('',#1625,#802);
#685=LINE('',#1627,#803);
#686=LINE('',#1629,#804);
#687=LINE('',#1631,#805);
#688=LINE('',#1633,#806);
#689=LINE('',#1635,#807);
#690=LINE('',#1637,#808);
#691=LINE('',#1641,#809);
#692=LINE('',#1643,#810);
#693=LINE('',#1645,#811);
#694=LINE('',#1647,#812);
#695=LINE('',#1649,#813);
#696=LINE('',#1651,#814);
#697=LINE('',#1653,#815);
#698=LINE('',#1655,#816);
#699=LINE('',#1657,#817);
#700=LINE('',#1661,#818);
#701=LINE('',#1663,#819);
#702=LINE('',#1665,#820);
#703=LINE('',#1667,#821);
#704=LINE('',#1669,#822);
#705=LINE('',#1671,#823);
#706=LINE('',#1673,#824);
#707=LINE('',#1675,#825);
#708=LINE('',#1677,#826);
#709=LINE('',#1681,#827);
#710=LINE('',#1683,#828);
#711=LINE('',#1685,#829);
#712=LINE('',#1687,#830);
#713=LINE('',#1689,#831);
#714=LINE('',#1691,#832);
#715=LINE('',#1693,#833);
#716=LINE('',#1695,#834);
#717=LINE('',#1697,#835);
#718=LINE('',#1699,#836);
#719=LINE('',#1703,#837);
#720=LINE('',#1705,#838);
#721=LINE('',#1707,#839);
#722=LINE('',#1709,#840);
#723=LINE('',#1711,#841);
#724=LINE('',#1713,#842);
#725=LINE('',#1715,#843);
#726=LINE('',#1717,#844);
#727=LINE('',#1720,#845);
#728=LINE('',#1721,#846);
#729=LINE('',#1723,#847);
#730=LINE('',#1724,#848);
#731=LINE('',#1726,#849);
#732=LINE('',#1727,#850);
#733=LINE('',#1729,#851);
#734=LINE('',#1731,#852);
#735=LINE('',#1733,#853);
#736=LINE('',#1735,#854);
#737=LINE('',#1737,#855);
#738=LINE('',#1739,#856);
#739=LINE('',#1741,#857);
#740=LINE('',#1743,#858);
#741=LINE('',#1746,#859);
#742=LINE('',#1748,#860);
#743=LINE('',#1750,#861);
#744=LINE('',#1761,#862);
#745=LINE('',#1765,#863);
#746=LINE('',#1767,#864);
#747=LINE('',#1769,#865);
#748=LINE('',#1780,#866);
#749=LINE('',#1784,#867);
#750=LINE('',#1786,#868);
#751=LINE('',#1788,#869);
#752=LINE('',#1799,#870);
#753=LINE('',#1803,#871);
#754=LINE('',#1805,#872);
#755=LINE('',#1807,#873);
#756=LINE('',#1819,#874);
#757=LINE('',#1822,#875);
#758=LINE('',#1825,#876);
#759=LINE('',#1827,#877);
#760=LINE('',#1829,#878);
#761=LINE('',#1835,#879);
#762=LINE('',#1843,#880);
#763=LINE('',#1851,#881);
#764=LINE('',#1859,#882);
#765=LINE('',#1863,#883);
#766=LINE('',#1864,#884);
#767=LINE('',#1866,#885);
#768=LINE('',#1868,#886);
#769=LINE('',#1870,#887);
#770=LINE('',#1872,#888);
#771=LINE('',#1874,#889);
#772=LINE('',#1876,#890);
#773=VECTOR('',#1226,1.);
#774=VECTOR('',#1229,1.);
#775=VECTOR('',#1234,1.);
#776=VECTOR('',#1235,1.);
#777=VECTOR('',#1236,1.);
#778=VECTOR('',#1239,1.);
#779=VECTOR('',#1240,1.);
#780=VECTOR('',#1245,1.);
#781=VECTOR('',#1246,1.);
#782=VECTOR('',#1247,1.);
#783=VECTOR('',#1250,1.);
#784=VECTOR('',#1253,1.);
#785=VECTOR('',#1256,1.);
#786=VECTOR('',#1261,1.);
#787=VECTOR('',#1262,1.);
#788=VECTOR('',#1263,1.);
#789=VECTOR('',#1266,1.);
#790=VECTOR('',#1269,1.);
#791=VECTOR('',#1272,1.);
#792=VECTOR('',#1277,1.);
#793=VECTOR('',#1278,1.);
#794=VECTOR('',#1279,1.);
#795=VECTOR('',#1280,1.);
#796=VECTOR('',#1283,1.);
#797=VECTOR('',#1288,1.);
#798=VECTOR('',#1289,1.);
#799=VECTOR('',#1292,1.);
#800=VECTOR('',#1293,1.);
#801=VECTOR('',#1294,1.);
#802=VECTOR('',#1295,1.);
#803=VECTOR('',#1298,1.);
#804=VECTOR('',#1299,1.);
#805=VECTOR('',#1300,1.);
#806=VECTOR('',#1303,1.);
#807=VECTOR('',#1304,1.);
#808=VECTOR('',#1305,1.);
#809=VECTOR('',#1310,1.);
#810=VECTOR('',#1313,1.);
#811=VECTOR('',#1314,1.);
#812=VECTOR('',#1317,1.);
#813=VECTOR('',#1318,1.);
#814=VECTOR('',#1321,1.);
#815=VECTOR('',#1322,1.);
#816=VECTOR('',#1325,1.);
#817=VECTOR('',#1326,1.);
#818=VECTOR('',#1331,1.);
#819=VECTOR('',#1334,1.);
#820=VECTOR('',#1335,1.);
#821=VECTOR('',#1338,1.);
#822=VECTOR('',#1339,1.);
#823=VECTOR('',#1342,1.);
#824=VECTOR('',#1343,1.);
#825=VECTOR('',#1346,1.);
#826=VECTOR('',#1347,1.);
#827=VECTOR('',#1352,1.);
#828=VECTOR('',#1355,1.);
#829=VECTOR('',#1356,1.);
#830=VECTOR('',#1359,1.);
#831=VECTOR('',#1360,1.);
#832=VECTOR('',#1363,1.);
#833=VECTOR('',#1364,1.);
#834=VECTOR('',#1365,1.);
#835=VECTOR('',#1368,1.);
#836=VECTOR('',#1369,1.);
#837=VECTOR('',#1374,1.);
#838=VECTOR('',#1377,1.);
#839=VECTOR('',#1378,1.);
#840=VECTOR('',#1381,1.);
#841=VECTOR('',#1382,1.);
#842=VECTOR('',#1385,1.);
#843=VECTOR('',#1386,1.);
#844=VECTOR('',#1389,1.);
#845=VECTOR('',#1390,1.);
#846=VECTOR('',#1391,1.);
#847=VECTOR('',#1394,1.);
#848=VECTOR('',#1395,1.);
#849=VECTOR('',#1398,1.);
#850=VECTOR('',#1399,1.);
#851=VECTOR('',#1402,1.);
#852=VECTOR('',#1403,1.);
#853=VECTOR('',#1404,1.);
#854=VECTOR('',#1407,1.);
#855=VECTOR('',#1408,1.);
#856=VECTOR('',#1411,1.);
#857=VECTOR('',#1412,1.);
#858=VECTOR('',#1415,1.);
#859=VECTOR('',#1416,1.);
#860=VECTOR('',#1417,1.);
#861=VECTOR('',#1418,1.);
#862=VECTOR('',#1421,1.);
#863=VECTOR('',#1426,1.);
#864=VECTOR('',#1427,1.);
#865=VECTOR('',#1428,1.);
#866=VECTOR('',#1431,1.);
#867=VECTOR('',#1436,1.);
#868=VECTOR('',#1437,1.);
#869=VECTOR('',#1438,1.);
#870=VECTOR('',#1441,1.);
#871=VECTOR('',#1446,1.);
#872=VECTOR('',#1447,1.);
#873=VECTOR('',#1448,1.);
#874=VECTOR('',#1455,1.);
#875=VECTOR('',#1460,1.);
#876=VECTOR('',#1461,1.);
#877=VECTOR('',#1462,1.);
#878=VECTOR('',#1463,1.);
#879=VECTOR('',#1470,1.);
#880=VECTOR('',#1481,1.);
#881=VECTOR('',#1492,1.);
#882=VECTOR('',#1503,1.);
#883=VECTOR('',#1510,1.);
#884=VECTOR('',#1511,1.);
#885=VECTOR('',#1514,1.);
#886=VECTOR('',#1517,1.);
#887=VECTOR('',#1520,1.);
#888=VECTOR('',#1523,1.);
#889=VECTOR('',#1526,1.);
#890=VECTOR('',#1529,1.);
#891=EDGE_LOOP('',(#97,#98,#99,#100));
#892=EDGE_LOOP('',(#101,#102,#103,#104,#105,#106,#107));
#893=EDGE_LOOP('',(#108,#109,#110,#111,#112,#113));
#894=EDGE_LOOP('',(#114,#115,#116,#117));
#895=EDGE_LOOP('',(#118,#119,#120,#121,#122,#123));
#896=EDGE_LOOP('',(#124,#125,#126,#127));
#897=EDGE_LOOP('',(#128,#129,#130,#131,#132,#133,#134));
#898=EDGE_LOOP('',(#135,#136,#137,#138));
#899=EDGE_LOOP('',(#139,#140,#141,#142));
#900=EDGE_LOOP('',(#143,#144,#145,#146));
#901=EDGE_LOOP('',(#147,#148,#149,#150));
#902=EDGE_LOOP('',(#151,#152,#153,#154));
#903=EDGE_LOOP('',(#155,#156,#157,#158));
#904=EDGE_LOOP('',(#159,#160,#161,#162,#163));
#905=EDGE_LOOP('',(#164,#165,#166,#167));
#906=EDGE_LOOP('',(#168,#169,#170,#171));
#907=EDGE_LOOP('',(#172,#173,#174,#175));
#908=EDGE_LOOP('',(#176,#177,#178,#179));
#909=EDGE_LOOP('',(#180,#181,#182,#183,#184));
#910=EDGE_LOOP('',(#185,#186,#187,#188));
#911=EDGE_LOOP('',(#189,#190,#191,#192));
#912=EDGE_LOOP('',(#193,#194,#195,#196));
#913=EDGE_LOOP('',(#197,#198,#199,#200));
#914=EDGE_LOOP('',(#201,#202,#203,#204,#205));
#915=EDGE_LOOP('',(#206,#207,#208,#209));
#916=EDGE_LOOP('',(#210,#211,#212,#213));
#917=EDGE_LOOP('',(#214,#215,#216,#217));
#918=EDGE_LOOP('',(#218,#219,#220,#221));
#919=EDGE_LOOP('',(#222,#223,#224,#225,#226));
#920=EDGE_LOOP('',(#227,#228,#229,#230));
#921=EDGE_LOOP('',(#231,#232,#233,#234));
#922=EDGE_LOOP('',(#235,#236,#237,#238));
#923=EDGE_LOOP('',(#239,#240,#241,#242,#243,#244,#245,#246));
#924=EDGE_LOOP('',(#247,#248,#249,#250,#251,#252,#253));
#925=EDGE_LOOP('',(#254,#255,#256,#257,#258,#259,#260));
#926=EDGE_LOOP('',(#261,#262,#263,#264,#265,#266,#267,#268));
#927=EDGE_LOOP('',(#269,#270,#271,#272));
#928=EDGE_LOOP('',(#273,#274,#275,#276));
#929=EDGE_LOOP('',(#277,#278,#279,#280));
#930=EDGE_LOOP('',(#281,#282,#283,#284));
#931=EDGE_LOOP('',(#285,#286,#287,#288));
#932=EDGE_LOOP('',(#289,#290,#291,#292));
#933=EDGE_LOOP('',(#293,#294,#295,#296));
#934=EDGE_LOOP('',(#297,#298,#299,#300));
#935=EDGE_LOOP('',(#301,#302,#303,#304));
#936=EDGE_LOOP('',(#305,#306,#307,#308));
#937=EDGE_LOOP('',(#309,#310,#311,#312));
#938=EDGE_LOOP('',(#313,#314,#315,#316));
#939=EDGE_LOOP('',(#317,#318,#319,#320));
#940=EDGE_LOOP('',(#321,#322,#323,#324,#325,#326,#327,#328));
#941=EDGE_LOOP('',(#329,#330,#331,#332));
#942=EDGE_LOOP('',(#333,#334,#335,#336));
#943=EDGE_LOOP('',(#337,#338,#339,#340));
#944=EDGE_LOOP('',(#341,#342,#343));
#945=EDGE_LOOP('',(#344,#345,#346,#347));
#946=EDGE_LOOP('',(#348,#349,#350));
#947=EDGE_LOOP('',(#351,#352,#353,#354));
#948=EDGE_LOOP('',(#355,#356,#357));
#949=EDGE_LOOP('',(#358,#359,#360,#361));
#950=EDGE_LOOP('',(#362,#363,#364));
#951=EDGE_LOOP('',(#365,#366,#367,#368));
#952=EDGE_LOOP('',(#369,#370,#371,#372));
#953=EDGE_LOOP('',(#373,#374,#375,#376));
#954=EDGE_LOOP('',(#377,#378,#379,#380));
#955=EDGE_LOOP('',(#381,#382,#383,#384));
#956=EDGE_LOOP('',(#385,#386,#387,#388));
#957=EDGE_LOOP('',(#389,#390,#391,#392));
#958=EDGE_LOOP('',(#393,#394,#395,#396));
#959=EDGE_LOOP('',(#397,#398,#399,#400));
#960=EDGE_LOOP('',(#401,#402,#403,#404));
#961=FACE_BOUND('',#891,.T.);
#962=FACE_BOUND('',#892,.T.);
#963=FACE_BOUND('',#893,.T.);
#964=FACE_BOUND('',#894,.T.);
#965=FACE_BOUND('',#895,.T.);
#966=FACE_BOUND('',#896,.T.);
#967=FACE_BOUND('',#897,.T.);
#968=FACE_BOUND('',#898,.T.);
#969=FACE_BOUND('',#899,.T.);
#970=FACE_BOUND('',#900,.T.);
#971=FACE_BOUND('',#901,.T.);
#972=FACE_BOUND('',#902,.T.);
#973=FACE_BOUND('',#903,.T.);
#974=FACE_BOUND('',#904,.T.);
#975=FACE_BOUND('',#905,.T.);
#976=FACE_BOUND('',#906,.T.);
#977=FACE_BOUND('',#907,.T.);
#978=FACE_BOUND('',#908,.T.);
#979=FACE_BOUND('',#909,.T.);
#980=FACE_BOUND('',#910,.T.);
#981=FACE_BOUND('',#911,.T.);
#982=FACE_BOUND('',#912,.T.);
#983=FACE_BOUND('',#913,.T.);
#984=FACE_BOUND('',#914,.T.);
#985=FACE_BOUND('',#915,.T.);
#986=FACE_BOUND('',#916,.T.);
#987=FACE_BOUND('',#917,.T.);
#988=FACE_BOUND('',#918,.T.);
#989=FACE_BOUND('',#919,.T.);
#990=FACE_BOUND('',#920,.T.);
#991=FACE_BOUND('',#921,.T.);
#992=FACE_BOUND('',#922,.T.);
#993=FACE_BOUND('',#923,.T.);
#994=FACE_BOUND('',#924,.T.);
#995=FACE_BOUND('',#925,.T.);
#996=FACE_BOUND('',#926,.T.);
#997=FACE_BOUND('',#927,.T.);
#998=FACE_BOUND('',#928,.T.);
#999=FACE_BOUND('',#929,.T.);
#1000=FACE_BOUND('',#930,.T.);
#1001=FACE_BOUND('',#931,.T.);
#1002=FACE_BOUND('',#932,.T.);
#1003=FACE_BOUND('',#933,.T.);
#1004=FACE_BOUND('',#934,.T.);
#1005=FACE_BOUND('',#935,.T.);
#1006=FACE_BOUND('',#936,.T.);
#1007=FACE_BOUND('',#937,.T.);
#1008=FACE_BOUND('',#938,.T.);
#1009=FACE_BOUND('',#939,.T.);
#1010=FACE_BOUND('',#940,.T.);
#1011=FACE_BOUND('',#941,.T.);
#1012=FACE_BOUND('',#942,.T.);
#1013=FACE_BOUND('',#943,.T.);
#1014=FACE_BOUND('',#944,.T.);
#1015=FACE_BOUND('',#945,.T.);
#1016=FACE_BOUND('',#946,.T.);
#1017=FACE_BOUND('',#947,.T.);
#1018=FACE_BOUND('',#948,.T.);
#1019=FACE_BOUND('',#949,.T.);
#1020=FACE_BOUND('',#950,.T.);
#1021=FACE_BOUND('',#951,.T.);
#1022=FACE_BOUND('',#952,.T.);
#1023=FACE_BOUND('',#953,.T.);
#1024=FACE_BOUND('',#954,.T.);
#1025=FACE_BOUND('',#955,.T.);
#1026=FACE_BOUND('',#956,.T.);
#1027=FACE_BOUND('',#957,.T.);
#1028=FACE_BOUND('',#958,.T.);
#1029=FACE_BOUND('',#959,.T.);
#1030=FACE_BOUND('',#960,.T.);
#1031=CYLINDRICAL_SURFACE('',#1125,0.0026);
#1032=CYLINDRICAL_SURFACE('',#1133,0.0026);
#1033=CYLINDRICAL_SURFACE('',#1138,0.0026);
#1034=CYLINDRICAL_SURFACE('',#1143,0.0026);
#1035=CYLINDRICAL_SURFACE('',#1148,0.0003);
#1036=CYLINDRICAL_SURFACE('',#1154,0.0003);
#1037=CYLINDRICAL_SURFACE('',#1160,0.0003);
#1038=CYLINDRICAL_SURFACE('',#1166,0.0003);
#1039=CYLINDRICAL_SURFACE('',#1192,0.00061008);
#1040=CYLINDRICAL_SURFACE('',#1198,0.00061008);
#1041=CYLINDRICAL_SURFACE('',#1203,0.00061008);
#1042=CYLINDRICAL_SURFACE('',#1208,0.00061008);
#1043=CYLINDRICAL_SURFACE('',#1212,0.00061008);
#1044=CYLINDRICAL_SURFACE('',#1214,0.00061008);
#1045=CYLINDRICAL_SURFACE('',#1216,0.00061008);
#1046=CYLINDRICAL_SURFACE('',#1218,0.00061008);
#1047=ADVANCED_FACE('',(#961),#1031,.T.);
#1048=ADVANCED_FACE('',(#962),#28,.F.);
#1049=ADVANCED_FACE('',(#963),#29,.F.);
#1050=ADVANCED_FACE('',(#964),#1032,.T.);
#1051=ADVANCED_FACE('',(#965),#30,.F.);
#1052=ADVANCED_FACE('',(#966),#1033,.T.);
#1053=ADVANCED_FACE('',(#967),#31,.F.);
#1054=ADVANCED_FACE('',(#968),#1034,.T.);
#1055=ADVANCED_FACE('',(#969),#32,.F.);
#1056=ADVANCED_FACE('',(#970),#33,.F.);
#1057=ADVANCED_FACE('',(#971),#34,.T.);
#1058=ADVANCED_FACE('',(#972),#1035,.T.);
#1059=ADVANCED_FACE('',(#973),#35,.F.);
#1060=ADVANCED_FACE('',(#974),#36,.T.);
#1061=ADVANCED_FACE('',(#975),#37,.T.);
#1062=ADVANCED_FACE('',(#976),#38,.T.);
#1063=ADVANCED_FACE('',(#977),#1036,.T.);
#1064=ADVANCED_FACE('',(#978),#39,.F.);
#1065=ADVANCED_FACE('',(#979),#40,.T.);
#1066=ADVANCED_FACE('',(#980),#41,.T.);
#1067=ADVANCED_FACE('',(#981),#42,.T.);
#1068=ADVANCED_FACE('',(#982),#1037,.T.);
#1069=ADVANCED_FACE('',(#983),#43,.F.);
#1070=ADVANCED_FACE('',(#984),#44,.T.);
#1071=ADVANCED_FACE('',(#985),#45,.T.);
#1072=ADVANCED_FACE('',(#986),#46,.T.);
#1073=ADVANCED_FACE('',(#987),#1038,.T.);
#1074=ADVANCED_FACE('',(#988),#47,.F.);
#1075=ADVANCED_FACE('',(#989),#48,.T.);
#1076=ADVANCED_FACE('',(#990),#49,.T.);
#1077=ADVANCED_FACE('',(#991),#50,.T.);
#1078=ADVANCED_FACE('',(#992),#51,.T.);
#1079=ADVANCED_FACE('',(#993,#994,#995,#996,#997),#52,.T.);
#1080=ADVANCED_FACE('',(#998),#53,.F.);
#1081=ADVANCED_FACE('',(#999),#54,.F.);
#1082=ADVANCED_FACE('',(#1000),#55,.F.);
#1083=ADVANCED_FACE('',(#1001),#56,.T.);
#1084=ADVANCED_FACE('',(#1002),#24,.F.);
#1085=ADVANCED_FACE('',(#1003),#57,.T.);
#1086=ADVANCED_FACE('',(#1004),#25,.F.);
#1087=ADVANCED_FACE('',(#1005),#58,.T.);
#1088=ADVANCED_FACE('',(#1006),#26,.F.);
#1089=ADVANCED_FACE('',(#1007),#59,.T.);
#1090=ADVANCED_FACE('',(#1008),#27,.F.);
#1091=ADVANCED_FACE('',(#1009),#60,.F.);
#1092=ADVANCED_FACE('',(#1010,#1011),#61,.T.);
#1093=ADVANCED_FACE('',(#1012),#62,.F.);
#1094=ADVANCED_FACE('',(#1013),#1039,.T.);
#1095=ADVANCED_FACE('',(#1014),#12,.T.);
#1096=ADVANCED_FACE('',(#1015),#1040,.T.);
#1097=ADVANCED_FACE('',(#1016),#13,.T.);
#1098=ADVANCED_FACE('',(#1017),#1041,.T.);
#1099=ADVANCED_FACE('',(#1018),#14,.T.);
#1100=ADVANCED_FACE('',(#1019),#1042,.T.);
#1101=ADVANCED_FACE('',(#1020),#15,.T.);
#1102=ADVANCED_FACE('',(#1021),#1043,.T.);
#1103=ADVANCED_FACE('',(#1022),#63,.T.);
#1104=ADVANCED_FACE('',(#1023),#1044,.T.);
#1105=ADVANCED_FACE('',(#1024),#64,.F.);
#1106=ADVANCED_FACE('',(#1025),#1045,.T.);
#1107=ADVANCED_FACE('',(#1026),#65,.F.);
#1108=ADVANCED_FACE('',(#1027),#1046,.T.);
#1109=ADVANCED_FACE('',(#1028),#66,.T.);
#1110=ADVANCED_FACE('',(#1029),#67,.F.);
#1111=ADVANCED_FACE('',(#1030),#68,.F.);
#1112=CLOSED_SHELL('',(#1047,#1048,#1049,#1050,#1051,#1052,#1053,#1054,
#1055,#1056,#1057,#1058,#1059,#1060,#1061,#1062,#1063,#1064,#1065,#1066,
#1067,#1068,#1069,#1070,#1071,#1072,#1073,#1074,#1075,#1076,#1077,#1078,
#1079,#1080,#1081,#1082,#1083,#1084,#1085,#1086,#1087,#1088,#1089,#1090,
#1091,#1092,#1093,#1094,#1095,#1096,#1097,#1098,#1099,#1100,#1101,#1102,
#1103,#1104,#1105,#1106,#1107,#1108,#1109,#1110,#1111));
#1113=STYLED_ITEM('',(#1114),#1121);
#1114=PRESENTATION_STYLE_ASSIGNMENT((#1115));
#1115=SURFACE_STYLE_USAGE(.BOTH.,#1116);
#1116=SURFACE_SIDE_STYLE('',(#1117));
#1117=SURFACE_STYLE_FILL_AREA(#1118);
#1118=FILL_AREA_STYLE('',(#1119));
#1119=FILL_AREA_STYLE_COLOUR('',#1120);
#1120=COLOUR_RGB('',0.329411764705883,0.898039215686275,0.435294117647059);
#1121=MANIFOLD_SOLID_BREP('1.25u',#1112);
#1122=SHAPE_DEFINITION_REPRESENTATION(#1886,#1123);
#1123=SHAPE_REPRESENTATION('1.25u',(#1124),#1881);
#1124=AXIS2_PLACEMENT_3D('',#1536,#1222,#1223);
#1125=AXIS2_PLACEMENT_3D('',#1537,#1224,#1225);
#1126=AXIS2_PLACEMENT_3D('',#1541,#1227,#1228);
#1127=AXIS2_PLACEMENT_3D('',#1545,#1230,#1231);
#1128=AXIS2_PLACEMENT_3D('',#1546,#1232,#1233);
#1129=AXIS2_PLACEMENT_3D('',#1554,#1237,#1238);
#1130=AXIS2_PLACEMENT_3D('',#1560,#1241,#1242);
#1131=AXIS2_PLACEMENT_3D('',#1561,#1243,#1244);
#1132=AXIS2_PLACEMENT_3D('',#1568,#1248,#1249);
#1133=AXIS2_PLACEMENT_3D('',#1571,#1251,#1252);
#1134=AXIS2_PLACEMENT_3D('',#1575,#1254,#1255);
#1135=AXIS2_PLACEMENT_3D('',#1579,#1257,#1258);
#1136=AXIS2_PLACEMENT_3D('',#1580,#1259,#1260);
#1137=AXIS2_PLACEMENT_3D('',#1587,#1264,#1265);
#1138=AXIS2_PLACEMENT_3D('',#1590,#1267,#1268);
#1139=AXIS2_PLACEMENT_3D('',#1594,#1270,#1271);
#1140=AXIS2_PLACEMENT_3D('',#1598,#1273,#1274);
#1141=AXIS2_PLACEMENT_3D('',#1599,#1275,#1276);
#1142=AXIS2_PLACEMENT_3D('',#1608,#1281,#1282);
#1143=AXIS2_PLACEMENT_3D('',#1611,#1284,#1285);
#1144=AXIS2_PLACEMENT_3D('',#1612,#1286,#1287);
#1145=AXIS2_PLACEMENT_3D('',#1617,#1290,#1291);
#1146=AXIS2_PLACEMENT_3D('',#1626,#1296,#1297);
#1147=AXIS2_PLACEMENT_3D('',#1632,#1301,#1302);
#1148=AXIS2_PLACEMENT_3D('',#1638,#1306,#1307);
#1149=AXIS2_PLACEMENT_3D('',#1639,#1308,#1309);
#1150=AXIS2_PLACEMENT_3D('',#1642,#1311,#1312);
#1151=AXIS2_PLACEMENT_3D('',#1646,#1315,#1316);
#1152=AXIS2_PLACEMENT_3D('',#1650,#1319,#1320);
#1153=AXIS2_PLACEMENT_3D('',#1654,#1323,#1324);
#1154=AXIS2_PLACEMENT_3D('',#1658,#1327,#1328);
#1155=AXIS2_PLACEMENT_3D('',#1659,#1329,#1330);
#1156=AXIS2_PLACEMENT_3D('',#1662,#1332,#1333);
#1157=AXIS2_PLACEMENT_3D('',#1666,#1336,#1337);
#1158=AXIS2_PLACEMENT_3D('',#1670,#1340,#1341);
#1159=AXIS2_PLACEMENT_3D('',#1674,#1344,#1345);
#1160=AXIS2_PLACEMENT_3D('',#1678,#1348,#1349);
#1161=AXIS2_PLACEMENT_3D('',#1679,#1350,#1351);
#1162=AXIS2_PLACEMENT_3D('',#1682,#1353,#1354);
#1163=AXIS2_PLACEMENT_3D('',#1686,#1357,#1358);
#1164=AXIS2_PLACEMENT_3D('',#1690,#1361,#1362);
#1165=AXIS2_PLACEMENT_3D('',#1696,#1366,#1367);
#1166=AXIS2_PLACEMENT_3D('',#1700,#1370,#1371);
#1167=AXIS2_PLACEMENT_3D('',#1701,#1372,#1373);
#1168=AXIS2_PLACEMENT_3D('',#1704,#1375,#1376);
#1169=AXIS2_PLACEMENT_3D('',#1708,#1379,#1380);
#1170=AXIS2_PLACEMENT_3D('',#1712,#1383,#1384);
#1171=AXIS2_PLACEMENT_3D('',#1716,#1387,#1388);
#1172=AXIS2_PLACEMENT_3D('',#1722,#1392,#1393);
#1173=AXIS2_PLACEMENT_3D('',#1725,#1396,#1397);
#1174=AXIS2_PLACEMENT_3D('',#1728,#1400,#1401);
#1175=AXIS2_PLACEMENT_3D('',#1734,#1405,#1406);
#1176=AXIS2_PLACEMENT_3D('',#1738,#1409,#1410);
#1177=AXIS2_PLACEMENT_3D('',#1742,#1413,#1414);
#1178=AXIS2_PLACEMENT_3D('',#1759,#1419,#1420);
#1179=AXIS2_PLACEMENT_3D('',#1763,#1422,#1423);
#1180=AXIS2_PLACEMENT_3D('',#1764,#1424,#1425);
#1181=AXIS2_PLACEMENT_3D('',#1778,#1429,#1430);
#1182=AXIS2_PLACEMENT_3D('',#1782,#1432,#1433);
#1183=AXIS2_PLACEMENT_3D('',#1783,#1434,#1435);
#1184=AXIS2_PLACEMENT_3D('',#1797,#1439,#1440);
#1185=AXIS2_PLACEMENT_3D('',#1801,#1442,#1443);
#1186=AXIS2_PLACEMENT_3D('',#1802,#1444,#1445);
#1187=AXIS2_PLACEMENT_3D('',#1816,#1449,#1450);
#1188=AXIS2_PLACEMENT_3D('',#1817,#1451,#1452);
#1189=AXIS2_PLACEMENT_3D('',#1818,#1453,#1454);
#1190=AXIS2_PLACEMENT_3D('',#1820,#1456,#1457);
#1191=AXIS2_PLACEMENT_3D('',#1821,#1458,#1459);
#1192=AXIS2_PLACEMENT_3D('',#1830,#1464,#1465);
#1193=AXIS2_PLACEMENT_3D('',#1831,#1466,#1467);
#1194=AXIS2_PLACEMENT_3D('',#1833,#1468,#1469);
#1195=AXIS2_PLACEMENT_3D('',#1836,#1471,#1472);
#1196=AXIS2_PLACEMENT_3D('',#1837,#1473,#1474);
#1197=AXIS2_PLACEMENT_3D('',#1839,#1475,#1476);
#1198=AXIS2_PLACEMENT_3D('',#1840,#1477,#1478);
#1199=AXIS2_PLACEMENT_3D('',#1841,#1479,#1480);
#1200=AXIS2_PLACEMENT_3D('',#1844,#1482,#1483);
#1201=AXIS2_PLACEMENT_3D('',#1845,#1484,#1485);
#1202=AXIS2_PLACEMENT_3D('',#1847,#1486,#1487);
#1203=AXIS2_PLACEMENT_3D('',#1848,#1488,#1489);
#1204=AXIS2_PLACEMENT_3D('',#1849,#1490,#1491);
#1205=AXIS2_PLACEMENT_3D('',#1852,#1493,#1494);
#1206=AXIS2_PLACEMENT_3D('',#1853,#1495,#1496);
#1207=AXIS2_PLACEMENT_3D('',#1855,#1497,#1498);
#1208=AXIS2_PLACEMENT_3D('',#1856,#1499,#1500);
#1209=AXIS2_PLACEMENT_3D('',#1857,#1501,#1502);
#1210=AXIS2_PLACEMENT_3D('',#1860,#1504,#1505);
#1211=AXIS2_PLACEMENT_3D('',#1861,#1506,#1507);
#1212=AXIS2_PLACEMENT_3D('',#1862,#1508,#1509);
#1213=AXIS2_PLACEMENT_3D('',#1865,#1512,#1513);
#1214=AXIS2_PLACEMENT_3D('',#1867,#1515,#1516);
#1215=AXIS2_PLACEMENT_3D('',#1869,#1518,#1519);
#1216=AXIS2_PLACEMENT_3D('',#1871,#1521,#1522);
#1217=AXIS2_PLACEMENT_3D('',#1873,#1524,#1525);
#1218=AXIS2_PLACEMENT_3D('',#1875,#1527,#1528);
#1219=AXIS2_PLACEMENT_3D('',#1877,#1530,#1531);
#1220=AXIS2_PLACEMENT_3D('',#1878,#1532,#1533);
#1221=AXIS2_PLACEMENT_3D('',#1879,#1534,#1535);
#1222=DIRECTION('',(0.,0.,1.));
#1223=DIRECTION('',(1.,0.,0.));
#1224=DIRECTION('',(0.,0.,-1.));
#1225=DIRECTION('',(-1.,0.,0.));
#1226=DIRECTION('',(0.,0.,-1.));
#1227=DIRECTION('',(0.,0.,-1.));
#1228=DIRECTION('',(-1.,0.,0.));
#1229=DIRECTION('',(0.,0.,-1.));
#1230=DIRECTION('',(0.,0.,1.));
#1231=DIRECTION('',(1.,0.,0.));
#1232=DIRECTION('',(0.,0.,1.));
#1233=DIRECTION('',(1.,0.,0.));
#1234=DIRECTION('',(1.,0.,0.));
#1235=DIRECTION('',(0.999979970957887,0.00632911392405005,0.));
#1236=DIRECTION('',(0.00632911392405005,-0.999979970957887,0.));
#1237=DIRECTION('',(0.,0.,1.));
#1238=DIRECTION('',(1.,0.,0.));
#1239=DIRECTION('',(-0.999979970957887,-0.0063291139240501,0.));
#1240=DIRECTION('',(0.00632911392405009,-0.999979970957887,0.));
#1241=DIRECTION('',(0.,0.,1.));
#1242=DIRECTION('',(1.,0.,0.));
#1243=DIRECTION('',(0.,0.,1.));
#1244=DIRECTION('',(1.,0.,0.));
#1245=DIRECTION('',(-1.,4.11722343981837E-16,0.));
#1246=DIRECTION('',(-1.37240781327279E-16,-1.,0.));
#1247=DIRECTION('',(-1.,0.,0.));
#1248=DIRECTION('',(0.,0.,1.));
#1249=DIRECTION('',(1.,0.,0.));
#1250=DIRECTION('',(0.,1.,0.));
#1251=DIRECTION('',(0.,0.,-1.));
#1252=DIRECTION('',(-1.,0.,0.));
#1253=DIRECTION('',(0.,0.,-1.));
#1254=DIRECTION('',(0.,0.,-1.));
#1255=DIRECTION('',(-1.,0.,0.));
#1256=DIRECTION('',(0.,0.,-1.));
#1257=DIRECTION('',(0.,0.,1.));
#1258=DIRECTION('',(1.,0.,0.));
#1259=DIRECTION('',(0.,0.,1.));
#1260=DIRECTION('',(1.,0.,0.));
#1261=DIRECTION('',(6.86203906636395E-17,1.,0.));
#1262=DIRECTION('',(-1.,-1.36377631759183E-16,0.));
#1263=DIRECTION('',(0.,1.,0.));
#1264=DIRECTION('',(0.,0.,1.));
#1265=DIRECTION('',(1.,0.,0.));
#1266=DIRECTION('',(1.,-6.86203906636395E-17,0.));
#1267=DIRECTION('',(0.,0.,-1.));
#1268=DIRECTION('',(-1.,0.,0.));
#1269=DIRECTION('',(0.,0.,-1.));
#1270=DIRECTION('',(0.,0.,-1.));
#1271=DIRECTION('',(-1.,0.,0.));
#1272=DIRECTION('',(0.,0.,-1.));
#1273=DIRECTION('',(0.,0.,1.));
#1274=DIRECTION('',(1.,0.,0.));
#1275=DIRECTION('',(0.,0.,1.));
#1276=DIRECTION('',(1.,0.,0.));
#1277=DIRECTION('',(1.,0.,0.));
#1278=DIRECTION('',(-0.00632911392405024,0.999979970957887,0.));
#1279=DIRECTION('',(0.,1.,0.));
#1280=DIRECTION('',(1.,0.,0.));
#1281=DIRECTION('',(0.,0.,1.));
#1282=DIRECTION('',(1.,0.,0.));
#1283=DIRECTION('',(0.,-1.,0.));
#1284=DIRECTION('',(0.,0.,-1.));
#1285=DIRECTION('',(-1.,0.,0.));
#1286=DIRECTION('',(0.,0.,-1.));
#1287=DIRECTION('',(-1.,0.,0.));
#1288=DIRECTION('',(0.,0.,-1.));
#1289=DIRECTION('',(0.,0.,-1.));
#1290=DIRECTION('',(-0.940547068406127,1.81287675536141E-16,0.339663380588253));
#1291=DIRECTION('',(0.339663380588253,0.,0.940547068406127));
#1292=DIRECTION('',(1.92747052886312E-16,1.,0.));
#1293=DIRECTION('',(-0.327777452415444,-0.262225069576821,-0.907634262560351));
#1294=DIRECTION('',(-1.92747052886312E-16,-1.,0.));
#1295=DIRECTION('',(0.327778710266826,-0.262211441051627,0.907637745621812));
#1296=DIRECTION('',(0.,0.960712776992673,0.277544519173097));
#1297=DIRECTION('',(0.,-0.277544519173097,0.960712776992673));
#1298=DIRECTION('',(1.,0.,0.));
#1299=DIRECTION('',(-1.,0.,0.));
#1300=DIRECTION('',(0.327769316564241,0.262212345584281,-0.9076408766369));
#1301=DIRECTION('',(0.,1.,0.));
#1302=DIRECTION('',(0.,0.,1.));
#1303=DIRECTION('',(0.,0.,-1.));
#1304=DIRECTION('',(1.,0.,0.));
#1305=DIRECTION('',(0.,0.,-1.));
#1306=DIRECTION('',(0.,0.,-1.));
#1307=DIRECTION('',(-1.,0.,0.));
#1308=DIRECTION('',(0.,0.,1.));
#1309=DIRECTION('',(1.,0.,0.));
#1310=DIRECTION('',(0.,0.,-1.));
#1311=DIRECTION('',(1.,0.,0.));
#1312=DIRECTION('',(0.,0.,-1.));
#1313=DIRECTION('',(0.,-1.,0.));
#1314=DIRECTION('',(0.,0.,-1.));
#1315=DIRECTION('',(0.,1.,0.));
#1316=DIRECTION('',(0.,0.,1.));
#1317=DIRECTION('',(1.,0.,0.));
#1318=DIRECTION('',(-1.,0.,0.));
#1319=DIRECTION('',(1.36377631759183E-16,-1.,0.));
#1320=DIRECTION('',(1.,1.36377631759183E-16,0.));
#1321=DIRECTION('',(-1.,-1.36377631759183E-16,0.));
#1322=DIRECTION('',(0.,0.,-1.));
#1323=DIRECTION('',(-1.,0.,0.));
#1324=DIRECTION('',(0.,0.,1.));
#1325=DIRECTION('',(0.,1.,0.));
#1326=DIRECTION('',(0.,0.,-1.));
#1327=DIRECTION('',(0.,0.,-1.));
#1328=DIRECTION('',(-1.,0.,0.));
#1329=DIRECTION('',(0.,0.,1.));
#1330=DIRECTION('',(1.,0.,0.));
#1331=DIRECTION('',(0.,0.,-1.));
#1332=DIRECTION('',(0.,1.,0.));
#1333=DIRECTION('',(0.,0.,1.));
#1334=DIRECTION('',(1.,0.,0.));
#1335=DIRECTION('',(0.,0.,-1.));
#1336=DIRECTION('',(-1.,6.86203906636395E-17,0.));
#1337=DIRECTION('',(-6.86203906636395E-17,-1.,0.));
#1338=DIRECTION('',(6.86203906636395E-17,1.,0.));
#1339=DIRECTION('',(0.,-1.,0.));
#1340=DIRECTION('',(1.,-1.37240781327279E-16,0.));
#1341=DIRECTION('',(1.37240781327279E-16,1.,0.));
#1342=DIRECTION('',(-1.37240781327279E-16,-1.,0.));
#1343=DIRECTION('',(0.,0.,-1.));
#1344=DIRECTION('',(0.,-1.,0.));
#1345=DIRECTION('',(0.,0.,-1.));
#1346=DIRECTION('',(-1.,0.,0.));
#1347=DIRECTION('',(0.,0.,-1.));
#1348=DIRECTION('',(0.,0.,-1.));
#1349=DIRECTION('',(-1.,0.,0.));
#1350=DIRECTION('',(0.,0.,1.));
#1351=DIRECTION('',(1.,0.,0.));
#1352=DIRECTION('',(0.,0.,-1.));
#1353=DIRECTION('',(-1.,0.,0.));
#1354=DIRECTION('',(0.,0.,1.));
#1355=DIRECTION('',(0.,-1.,0.));
#1356=DIRECTION('',(0.,0.,-1.));
#1357=DIRECTION('',(-4.11722343981837E-16,-1.,0.));
#1358=DIRECTION('',(1.,-4.11722343981837E-16,0.));
#1359=DIRECTION('',(-1.,4.11722343981837E-16,0.));
#1360=DIRECTION('',(1.,0.,0.));
#1361=DIRECTION('',(-0.00632911392405005,0.999979970957887,0.));
#1362=DIRECTION('',(-0.999979970957887,-0.00632911392405005,0.));
#1363=DIRECTION('',(0.,0.,-1.));
#1364=DIRECTION('',(0.999979970957887,0.00632911392405005,0.));
#1365=DIRECTION('',(0.,0.,-1.));
#1366=DIRECTION('',(0.999979970957887,0.00632911392405097,0.));
#1367=DIRECTION('',(-0.00632911392405097,0.999979970957887,0.));
#1368=DIRECTION('',(0.00632911392405097,-0.999979970957887,0.));
#1369=DIRECTION('',(0.,0.,-1.));
#1370=DIRECTION('',(0.,0.,-1.));
#1371=DIRECTION('',(-1.,0.,0.));
#1372=DIRECTION('',(0.,0.,1.));
#1373=DIRECTION('',(1.,0.,0.));
#1374=DIRECTION('',(0.,0.,-1.));
#1375=DIRECTION('',(0.0063291139240293,-0.999979970957887,0.));
#1376=DIRECTION('',(0.999979970957887,0.0063291139240293,0.));
#1377=DIRECTION('',(-0.999979970957887,-0.00632911392406399,0.));
#1378=DIRECTION('',(0.,0.,-1.));
#1379=DIRECTION('',(0.999979970957887,0.00632911392405009,0.));
#1380=DIRECTION('',(-0.00632911392405009,0.999979970957887,0.));
#1381=DIRECTION('',(0.00632911392405009,-0.999979970957887,0.));
#1382=DIRECTION('',(-0.00632911392405024,0.999979970957887,0.));
#1383=DIRECTION('',(-1.,0.,0.));
#1384=DIRECTION('',(0.,0.,1.));
#1385=DIRECTION('',(0.,0.,-1.));
#1386=DIRECTION('',(0.,1.,0.));
#1387=DIRECTION('',(-0.940550552495472,0.,-0.339653732793359));
#1388=DIRECTION('',(-0.339653732793359,0.,0.940550552495472));
#1389=DIRECTION('',(-0.327768058740229,0.262225974149544,0.907637393539394));
#1390=DIRECTION('',(0.,1.,0.));
#1391=DIRECTION('',(0.,-1.,0.));
#1392=DIRECTION('',(0.,0.960708646480642,-0.277558816428758));
#1393=DIRECTION('',(0.,0.277558816428758,0.960708646480642));
#1394=DIRECTION('',(1.,0.,0.));
#1395=DIRECTION('',(-1.,0.,0.));
#1396=DIRECTION('',(0.,0.,-1.));
#1397=DIRECTION('',(1.,0.,0.));
#1398=DIRECTION('',(1.,0.,0.));
#1399=DIRECTION('',(-0.00632911392405024,0.999979970957887,0.));
#1400=DIRECTION('',(1.,0.,0.));
#1401=DIRECTION('',(0.,0.,-1.));
#1402=DIRECTION('',(0.,0.,1.));
#1403=DIRECTION('',(0.,-1.,0.));
#1404=DIRECTION('',(0.,0.,1.));
#1405=DIRECTION('',(0.,1.,0.));
#1406=DIRECTION('',(0.,0.,1.));
#1407=DIRECTION('',(0.,0.,1.));
#1408=DIRECTION('',(-1.,0.,0.));
#1409=DIRECTION('',(-1.,1.92747052886312E-16,0.));
#1410=DIRECTION('',(-1.92747052886312E-16,-1.,0.));
#1411=DIRECTION('',(0.,0.,1.));
#1412=DIRECTION('',(-1.92747052886312E-16,-1.,0.));
#1413=DIRECTION('',(0.,1.,0.));
#1414=DIRECTION('',(0.,0.,1.));
#1415=DIRECTION('',(-1.,0.,0.));
#1416=DIRECTION('',(0.,0.,1.));
#1417=DIRECTION('',(-1.,0.,0.));
#1418=DIRECTION('',(0.,0.,1.));
#1419=DIRECTION('',(0.,0.,-1.));
#1420=DIRECTION('',(0.780872420969901,0.624690533119084,0.));
#1421=DIRECTION('',(0.,0.,1.));
#1422=DIRECTION('',(0.,0.,-1.));
#1423=DIRECTION('',(0.780872420969901,0.624690533119084,0.));
#1424=DIRECTION('',(1.,0.,0.));
#1425=DIRECTION('',(0.,0.,-1.));
#1426=DIRECTION('',(0.,-1.,0.));
#1427=DIRECTION('',(0.,0.,1.));
#1428=DIRECTION('',(0.,-1.,0.));
#1429=DIRECTION('',(0.,0.,-1.));
#1430=DIRECTION('',(-0.78085541334929,0.624711792303547,0.));
#1431=DIRECTION('',(0.,0.,1.));
#1432=DIRECTION('',(0.,0.,-1.));
#1433=DIRECTION('',(-0.78085541334929,0.624711792303547,0.));
#1434=DIRECTION('',(0.,-1.,0.));
#1435=DIRECTION('',(0.,0.,-1.));
#1436=DIRECTION('',(-1.,0.,0.));
#1437=DIRECTION('',(0.,0.,1.));
#1438=DIRECTION('',(-1.,0.,0.));
#1439=DIRECTION('',(0.,0.,-1.));
#1440=DIRECTION('',(-0.780865198039427,-0.624699561782179,0.));
#1441=DIRECTION('',(0.,0.,1.));
#1442=DIRECTION('',(0.,0.,-1.));
#1443=DIRECTION('',(-0.780865198039427,-0.624699561782179,0.));
#1444=DIRECTION('',(-1.,1.92747052886312E-16,0.));
#1445=DIRECTION('',(-1.92747052886312E-16,-1.,0.));
#1446=DIRECTION('',(-1.92747052886312E-16,-1.,0.));
#1447=DIRECTION('',(0.,0.,1.));
#1448=DIRECTION('',(-1.92747052886312E-16,-1.,0.));
#1449=DIRECTION('',(0.,0.,-1.));
#1450=DIRECTION('',(0.780882205207187,-0.624678302481173,0.));
#1451=DIRECTION('',(0.,0.,-1.));
#1452=DIRECTION('',(0.780882205207187,-0.624678302481173,0.));
#1453=DIRECTION('',(0.,-1.,0.));
#1454=DIRECTION('',(0.,0.,-1.));
#1455=DIRECTION('',(-1.,0.,0.));
#1456=DIRECTION('',(0.,0.,-1.));
#1457=DIRECTION('',(1.,0.,0.));
#1458=DIRECTION('',(0.,0.,-1.));
#1459=DIRECTION('',(1.,0.,0.));
#1460=DIRECTION('',(0.,-1.,0.));
#1461=DIRECTION('',(-1.,0.,0.));
#1462=DIRECTION('',(-1.92747052886312E-16,-1.,0.));
#1463=DIRECTION('',(-1.,0.,0.));
#1464=DIRECTION('',(1.,0.,0.));
#1465=DIRECTION('',(0.,0.,-1.));
#1466=DIRECTION('',(-1.,8.8791451580267E-15,0.));
#1467=DIRECTION('',(-8.8791451580267E-15,-1.,0.));
#1468=DIRECTION('',(1.,-4.10726345592108E-16,1.42171803368149E-15));
#1469=DIRECTION('',(1.42171803368149E-15,0.,-1.));
#1470=DIRECTION('',(-1.,0.,0.));
#1471=DIRECTION('',(-1.42171803368149E-15,0.,1.));
#1472=DIRECTION('',(1.,0.,1.42171803368149E-15));
#1473=DIRECTION('',(0.,1.,0.));
#1474=DIRECTION('',(0.,0.,1.));
#1475=DIRECTION('',(-0.327769316564241,-0.262212345584278,0.907640876636901));
#1476=DIRECTION('',(0.940550552495472,0.,0.339653732793359));
#1477=DIRECTION('',(0.,1.,0.));
#1478=DIRECTION('',(0.,0.,1.));
#1479=DIRECTION('',(-4.10731213405463E-15,-1.,1.13737442694519E-14));
#1480=DIRECTION('',(0.,-1.13737442694519E-14,-1.));
#1481=DIRECTION('',(0.,1.,0.));
#1482=DIRECTION('',(-1.42171803368149E-15,0.,1.));
#1483=DIRECTION('',(1.,0.,1.42171803368149E-15));
#1484=DIRECTION('',(1.,-2.95972777780164E-15,0.));
#1485=DIRECTION('',(2.95972777780164E-15,1.,0.));
#1486=DIRECTION('',(-0.327768058740222,0.262225974149544,0.907637393539396));
#1487=DIRECTION('',(0.940550552495474,0.,0.339653732793353));
#1488=DIRECTION('',(1.,0.,0.));
#1489=DIRECTION('',(0.,0.,-1.));
#1490=DIRECTION('',(-1.,-8.21498538957943E-16,-2.843436067363E-15));
#1491=DIRECTION('',(-2.843436067363E-15,0.,1.));
#1492=DIRECTION('',(1.,0.,0.));
#1493=DIRECTION('',(-2.84343606736298E-15,0.,1.));
#1494=DIRECTION('',(1.,0.,2.84343606736298E-15));
#1495=DIRECTION('',(0.,-1.,0.));
#1496=DIRECTION('',(0.,0.,-1.));
#1497=DIRECTION('',(0.327777452415443,0.262225069576824,0.907634262560351));
#1498=DIRECTION('',(0.940547068406127,0.,-0.339663380588253));
#1499=DIRECTION('',(1.92747052886312E-16,1.,0.));
#1500=DIRECTION('',(-1.,1.92747052886312E-16,0.));
#1501=DIRECTION('',(8.21488803331248E-15,1.,2.27474885389038E-14));
#1502=DIRECTION('',(0.,-2.27474885389038E-14,1.));
#1503=DIRECTION('',(-1.92747052886312E-16,-1.,0.));
#1504=DIRECTION('',(-5.68687213472596E-15,0.,1.));
#1505=DIRECTION('',(1.,0.,5.68687213472596E-15));
#1506=DIRECTION('',(0.327778710266817,-0.262211441051626,0.907637745621815));
#1507=DIRECTION('',(0.94054706840613,0.,-0.339663380588244));
#1508=DIRECTION('',(0.327778710266826,-0.262211441051627,0.907637745621812));
#1509=DIRECTION('',(0.940547068406127,0.,-0.339663380588253));
#1510=DIRECTION('',(0.327778710266826,-0.262211441051627,0.907637745621812));
#1511=DIRECTION('',(0.327778710266826,-0.262211441051628,0.907637745621812));
#1512=DIRECTION('',(-0.940547068406127,1.81287675536141E-16,0.339663380588253));
#1513=DIRECTION('',(0.339663380588253,0.,0.940547068406127));
#1514=DIRECTION('',(-0.327777452415444,-0.262225069576821,-0.907634262560351));
#1515=DIRECTION('',(-0.327777452415444,-0.262225069576821,-0.907634262560351));
#1516=DIRECTION('',(-0.940547068406127,0.,0.339663380588253));
#1517=DIRECTION('',(0.327777452415444,0.262225069576821,0.907634262560352));
#1518=DIRECTION('',(0.,0.960708646480642,-0.277558816428758));
#1519=DIRECTION('',(0.,0.277558816428758,0.960708646480642));
#1520=DIRECTION('',(0.327768058740229,-0.262225974149544,-0.907637393539394));
#1521=DIRECTION('',(-0.327768058740229,0.262225974149544,0.907637393539394));
#1522=DIRECTION('',(0.940550552495472,0.,0.339653732793359));
#1523=DIRECTION('',(0.327768058740229,-0.262225974149544,-0.907637393539394));
#1524=DIRECTION('',(-0.940550552495472,0.,-0.339653732793359));
#1525=DIRECTION('',(-0.339653732793359,0.,0.940550552495472));
#1526=DIRECTION('',(-0.327769316564241,-0.262212345584281,0.9076408766369));
#1527=DIRECTION('',(0.327769316564241,0.262212345584281,-0.9076408766369));
#1528=DIRECTION('',(-0.940550552495472,0.,-0.339653732793359));
#1529=DIRECTION('',(0.327769316564241,0.262212345584281,-0.9076408766369));
#1530=DIRECTION('',(0.,0.960712776992673,0.277544519173097));
#1531=DIRECTION('',(0.,-0.277544519173097,0.960712776992673));
#1532=DIRECTION('',(0.999979970957887,0.00632911392405024,0.));
#1533=DIRECTION('',(-0.00632911392405024,0.999979970957887,0.));
#1534=DIRECTION('',(0.,-1.,0.));
#1535=DIRECTION('',(0.,0.,-1.));
#1536=CARTESIAN_POINT('',(0.,0.,0.));
#1537=CARTESIAN_POINT('',(-0.000300031645886539,0.05943,0.0036));
#1538=CARTESIAN_POINT('',(-0.00280680247705559,0.06012,0.0036));
#1539=CARTESIAN_POINT('',(-0.00280680247705559,0.06012,0.00359951875));
#1540=CARTESIAN_POINT('',(-0.00280680247705559,0.06012,-0.0004));
#1541=CARTESIAN_POINT('',(-0.000300031645886539,0.05943,0.00359945));
#1542=CARTESIAN_POINT('',(-0.000995,0.0619353979697407,0.00359945));
#1543=CARTESIAN_POINT('',(-0.000995,0.0619353979697407,0.0036));
#1544=CARTESIAN_POINT('',(-0.000995,0.0619353979697407,-0.0004));
#1545=CARTESIAN_POINT('',(-0.000300031645886539,0.05943,-0.0004));
#1546=CARTESIAN_POINT('',(-0.000300031645886539,0.05943,-0.0004));
#1547=CARTESIAN_POINT('',(-0.003075,0.0587300020029443,-0.0004));
#1548=CARTESIAN_POINT('',(-0.0028040290109247,0.0587300020029443,-0.0004));
#1549=CARTESIAN_POINT('',(-0.002675,0.0587300020029443,-0.0004));
#1550=CARTESIAN_POINT('',(-0.00188564873433568,0.0587349979970958,-0.0004));
#1551=CARTESIAN_POINT('',(-0.0013956585485663,0.0587380992629186,-0.0004));
#1552=CARTESIAN_POINT('',(-0.0013956585485663,0.0587380992629186,-0.0004));
#1553=CARTESIAN_POINT('',(-0.0013950256371739,0.0586381012658228,-0.0004));
#1554=CARTESIAN_POINT('',(-0.00139312690299669,0.0583381072745354,-0.0004));
#1555=CARTESIAN_POINT('',(-0.00109313291170932,0.0583400060087126,-0.0004));
#1556=CARTESIAN_POINT('',(-0.000993134914613533,0.058340638920105,-0.0004));
#1557=CARTESIAN_POINT('',(-0.000993134914613535,0.058340638920105,-0.0004));
#1558=CARTESIAN_POINT('',(-0.000990033648790751,0.0578506487343357,-0.0004));
#1559=CARTESIAN_POINT('',(-0.000984153593569762,0.0569216186173753,-0.0004));
#1560=CARTESIAN_POINT('',(-0.000300031645886539,0.05943,-0.0004));
#1561=CARTESIAN_POINT('',(-0.000300031645886539,0.05943,-0.0004));
#1562=CARTESIAN_POINT('',(-0.001885,0.06012,-0.0004));
#1563=CARTESIAN_POINT('',(-0.001395,0.06012,-0.0004));
#1564=CARTESIAN_POINT('',(-0.000995,0.06101,-0.0004));
#1565=CARTESIAN_POINT('',(-0.000995,0.06052,-0.0004));
#1566=CARTESIAN_POINT('',(-0.000995,0.06052,-0.0004));
#1567=CARTESIAN_POINT('',(-0.001095,0.06052,-0.0004));
#1568=CARTESIAN_POINT('',(-0.001395,0.06052,-0.0004));
#1569=CARTESIAN_POINT('',(-0.001395,0.06022,-0.0004));
#1570=CARTESIAN_POINT('',(-0.001395,0.06012,-0.0004));
#1571=CARTESIAN_POINT('',(-0.000300031645886539,0.05943,0.0036));
#1572=CARTESIAN_POINT('',(0.000385,0.0619381330993657,0.0036));
#1573=CARTESIAN_POINT('',(0.000385,0.0619381330993657,0.00359951875));
#1574=CARTESIAN_POINT('',(0.000385,0.0619381330993657,-0.0004));
#1575=CARTESIAN_POINT('',(-0.000300031645886539,0.05943,0.00359945));
#1576=CARTESIAN_POINT('',(0.00220673918528252,0.06012,0.00359945));
#1577=CARTESIAN_POINT('',(0.00220673918528252,0.06012,0.0036));
#1578=CARTESIAN_POINT('',(0.00220673918528252,0.06012,-0.0004));
#1579=CARTESIAN_POINT('',(-0.000300031645886539,0.05943,-0.0004));
#1580=CARTESIAN_POINT('',(-0.000300031645886539,0.05943,-0.0004));
#1581=CARTESIAN_POINT('',(0.000385,0.06101,-0.0004));
#1582=CARTESIAN_POINT('',(0.000385,0.06052,-0.0004));
#1583=CARTESIAN_POINT('',(0.00128,0.06012,-0.0004));
#1584=CARTESIAN_POINT('',(0.000785,0.06012,-0.0004));
#1585=CARTESIAN_POINT('',(0.000785,0.06012,-0.0004));
#1586=CARTESIAN_POINT('',(0.000785,0.06022,-0.0004));
#1587=CARTESIAN_POINT('',(0.000785,0.06052,-0.0004));
#1588=CARTESIAN_POINT('',(0.000485,0.06052,-0.0004));
#1589=CARTESIAN_POINT('',(0.000385,0.06052,-0.0004));
#1590=CARTESIAN_POINT('',(-0.000300031645886539,0.05943,0.0036));
#1591=CARTESIAN_POINT('',(0.00220673918528252,0.05874,0.0036));
#1592=CARTESIAN_POINT('',(0.00220673918528252,0.05874,0.00359951875));
#1593=CARTESIAN_POINT('',(0.00220673918528252,0.05874,-0.0004));
#1594=CARTESIAN_POINT('',(-0.000300031645886539,0.05943,0.00359945));
#1595=CARTESIAN_POINT('',(0.000395851960251223,0.056924856090619,0.00359951875));
#1596=CARTESIAN_POINT('',(0.000395851960251223,0.056924856090619,0.0036));
#1597=CARTESIAN_POINT('',(0.000395851960251221,0.056924856090619,-0.0004));
#1598=CARTESIAN_POINT('',(-0.000300031645886539,0.05943,-0.0004));
#1599=CARTESIAN_POINT('',(-0.000300031645886539,0.05943,-0.0004));
#1600=CARTESIAN_POINT('',(0.00128496835411346,0.05874,-0.0004));
#1601=CARTESIAN_POINT('',(0.000794936708226922,0.05874,-0.0004));
#1602=CARTESIAN_POINT('',(0.000407595311669081,0.055069443729474,-0.0004));
#1603=CARTESIAN_POINT('',(0.00039493708382098,0.0570694036713898,-0.0004));
#1604=CARTESIAN_POINT('',(0.000394936708226922,0.0578550158229433,-0.0004));
#1605=CARTESIAN_POINT('',(0.000394936708226922,0.05834,-0.0004));
#1606=CARTESIAN_POINT('',(0.000394936708226922,0.05834,-0.0004));
#1607=CARTESIAN_POINT('',(0.000494936708226922,0.05834,-0.0004));
#1608=CARTESIAN_POINT('',(0.000794936708226922,0.05834,-0.0004));
#1609=CARTESIAN_POINT('',(0.000794936708226922,0.05864,-0.0004));
#1610=CARTESIAN_POINT('',(0.000794936708226922,0.05874,-0.0004));
#1611=CARTESIAN_POINT('',(-0.000300031645886539,0.05943,0.0036));
#1612=CARTESIAN_POINT('',(-0.000300031645886539,0.05943,0.00359945));
#1613=CARTESIAN_POINT('',(-0.0028040290109247,0.0587300020029443,0.00359951875));
#1614=CARTESIAN_POINT('',(-0.000984153593569777,0.0569216186173777,0.00359951875));
#1615=CARTESIAN_POINT('',(-0.0028040290109247,0.0587300020029443,0.0036));
#1616=CARTESIAN_POINT('',(-0.000984153593569763,0.0569216186173753,0.0036));
#1617=CARTESIAN_POINT('',(-0.00820860859940614,1.58218511583277E-18,0.00296440639757133));
#1618=CARTESIAN_POINT('',(-0.00797927286059256,1.53798132805495E-18,0.00359945));
#1619=CARTESIAN_POINT('',(-0.00797927286059255,0.0536672797098882,0.00359945));
#1620=CARTESIAN_POINT('',(-0.00797927286059255,0.065192793728067,0.00359945));
#1621=CARTESIAN_POINT('',(-0.0128056203461593,0.049806155963034,-0.00976497854333452));
#1622=CARTESIAN_POINT('',(-0.0094236096228088,0.0525117966064182,-0.0004));
#1623=CARTESIAN_POINT('',(-0.00942360962280881,1.81637298234748E-18,-0.0004));
#1624=CARTESIAN_POINT('',(-0.00942360962280879,0.0663482123441091,-0.0004));
#1625=CARTESIAN_POINT('',(-0.00258969423391153,0.060881320364795,0.0185234973567979));
#1626=CARTESIAN_POINT('',(0.,0.0611306896184944,0.0176603124921428));
#1627=CARTESIAN_POINT('',(0.,0.065192793728067,0.00359945));
#1628=CARTESIAN_POINT('',(0.00737926382078475,0.065192793728067,0.00359945));
#1629=CARTESIAN_POINT('',(0.,0.0663482123441091,-0.0004));
#1630=CARTESIAN_POINT('',(0.00882355420795875,0.0663482123441091,-0.0004));
#1631=CARTESIAN_POINT('',(0.00205430919199752,0.0609328805123328,0.0183450233135316));
#1632=CARTESIAN_POINT('',(-0.000300031645886539,0.05834,0.0036));
#1633=CARTESIAN_POINT('',(0.000394936708226922,0.05834,0.0036));
#1634=CARTESIAN_POINT('',(0.000394936708226922,0.05834,0.003599725));
#1635=CARTESIAN_POINT('',(-0.000299984104931355,0.05834,0.00359945));
#1636=CARTESIAN_POINT('',(0.000494936708226922,0.05834,0.003599725));
#1637=CARTESIAN_POINT('',(0.000494936708226922,0.05834,0.0036));
#1638=CARTESIAN_POINT('',(0.000794936708226922,0.05834,0.0036));
#1639=CARTESIAN_POINT('',(0.000794936708226922,0.05834,0.0036));
#1640=CARTESIAN_POINT('',(0.000794936708226922,0.05864,0.003599725));
#1641=CARTESIAN_POINT('',(0.000794936708226922,0.05864,0.0036));
#1642=CARTESIAN_POINT('',(0.000794936708226922,0.05943,0.0036));
#1643=CARTESIAN_POINT('',(0.000794936708226922,0.0594300661087036,0.00359945));
#1644=CARTESIAN_POINT('',(0.000794936708226922,0.05874,0.003599725));
#1645=CARTESIAN_POINT('',(0.000794936708226922,0.05874,0.0036));
#1646=CARTESIAN_POINT('',(0.00128496835411346,0.05874,0.0036));
#1647=CARTESIAN_POINT('',(-0.000299984104931355,0.05874,0.00359945));
#1648=CARTESIAN_POINT('',(0.002075,0.05874,0.003599725));
#1649=CARTESIAN_POINT('',(0.002475,0.05874,0.0035995875));
#1650=CARTESIAN_POINT('',(0.00128,0.06012,0.0036));
#1651=CARTESIAN_POINT('',(-0.000299984104931355,0.06012,0.00359945));
#1652=CARTESIAN_POINT('',(0.000785,0.06012,0.00359945));
#1653=CARTESIAN_POINT('',(0.000785,0.06012,0.0036));
#1654=CARTESIAN_POINT('',(0.000785,0.06012,0.0036));
#1655=CARTESIAN_POINT('',(0.000785,0.0594300661087036,0.00359945));
#1656=CARTESIAN_POINT('',(0.000785,0.06022,0.003599725));
#1657=CARTESIAN_POINT('',(0.000785,0.06022,0.0036));
#1658=CARTESIAN_POINT('',(0.000785,0.06052,0.0036));
#1659=CARTESIAN_POINT('',(0.000785,0.06052,0.0036));
#1660=CARTESIAN_POINT('',(0.000485,0.06052,0.003599725));
#1661=CARTESIAN_POINT('',(0.000485,0.06052,0.0036));
#1662=CARTESIAN_POINT('',(-0.000300031645886539,0.06052,0.0036));
#1663=CARTESIAN_POINT('',(-0.000299984104931355,0.06052,0.00359945));
#1664=CARTESIAN_POINT('',(0.000385,0.06052,0.003599725));
#1665=CARTESIAN_POINT('',(0.000385,0.06052,0.0036));
#1666=CARTESIAN_POINT('',(0.000385,0.06101,0.0036));
#1667=CARTESIAN_POINT('',(0.000385,0.0594300661087036,0.00359945));
#1668=CARTESIAN_POINT('',(0.000385,0.0618,0.003599725));
#1669=CARTESIAN_POINT('',(0.000385,0.0622,0.0035995875));
#1670=CARTESIAN_POINT('',(-0.000995,0.06101,0.0036));
#1671=CARTESIAN_POINT('',(-0.000995,0.0594300661087036,0.00359945));
#1672=CARTESIAN_POINT('',(-0.000995,0.06052,0.00359945));
#1673=CARTESIAN_POINT('',(-0.000995,0.06052,0.0036));
#1674=CARTESIAN_POINT('',(-0.000995,0.06052,0.0036));
#1675=CARTESIAN_POINT('',(-0.000299984104931355,0.06052,0.00359945));
#1676=CARTESIAN_POINT('',(-0.001095,0.06052,0.003599725));
#1677=CARTESIAN_POINT('',(-0.001095,0.06052,0.0036));
#1678=CARTESIAN_POINT('',(-0.001395,0.06052,0.0036));
#1679=CARTESIAN_POINT('',(-0.001395,0.06052,0.0036));
#1680=CARTESIAN_POINT('',(-0.001395,0.06022,0.003599725));
#1681=CARTESIAN_POINT('',(-0.001395,0.06022,0.0036));
#1682=CARTESIAN_POINT('',(-0.001395,0.06012,0.0036));
#1683=CARTESIAN_POINT('',(-0.001395,0.0594300661087036,0.00359945));
#1684=CARTESIAN_POINT('',(-0.001395,0.06012,0.00359945));
#1685=CARTESIAN_POINT('',(-0.001395,0.06012,0.0036));
#1686=CARTESIAN_POINT('',(-0.001885,0.06012,0.0036));
#1687=CARTESIAN_POINT('',(-0.000299984104931355,0.06012,0.00359945));
#1688=CARTESIAN_POINT('',(-0.002675,0.06012,0.003599725));
#1689=CARTESIAN_POINT('',(-0.003075,0.06012,0.0035995875));
#1690=CARTESIAN_POINT('',(-0.00188564873433568,0.0587349979970958,0.0036));
#1691=CARTESIAN_POINT('',(-0.002675,0.0587300020029443,0.0036));
#1692=CARTESIAN_POINT('',(-0.002675,0.0587300020029443,0.003599725));
#1693=CARTESIAN_POINT('',(-0.000295648545830251,0.0587450614909903,0.00359945));
#1694=CARTESIAN_POINT('',(-0.0013956585485663,0.0587380992629186,0.003599725));
#1695=CARTESIAN_POINT('',(-0.0013956585485663,0.0587380992629186,0.0036));
#1696=CARTESIAN_POINT('',(-0.0013956585485663,0.0587380992629186,0.0036));
#1697=CARTESIAN_POINT('',(-0.00139999410766741,0.0594231038806319,0.00359945));
#1698=CARTESIAN_POINT('',(-0.0013950256371739,0.0586381012658228,0.003599725));
#1699=CARTESIAN_POINT('',(-0.0013950256371739,0.0586381012658228,0.0036));
#1700=CARTESIAN_POINT('',(-0.00139312690299669,0.0583381072745354,0.0036));
#1701=CARTESIAN_POINT('',(-0.00139312690299669,0.0583381072745354,0.0036));
#1702=CARTESIAN_POINT('',(-0.00109313291170932,0.0583400060087126,0.003599725));
#1703=CARTESIAN_POINT('',(-0.00109313291170932,0.0583400060087126,0.0036));
#1704=CARTESIAN_POINT('',(-0.00109313291170932,0.0583400060087126,0.0036));
#1705=CARTESIAN_POINT('',(-0.000993134914613533,0.058340638920105,0.00359945));
#1706=CARTESIAN_POINT('',(-0.000993134914613535,0.058340638920105,0.003599725));
#1707=CARTESIAN_POINT('',(-0.000993134914613535,0.058340638920105,0.0036));
#1708=CARTESIAN_POINT('',(-0.000990033648790751,0.0578506487343357,0.0036));
#1709=CARTESIAN_POINT('',(-0.00100000211928426,0.0594256355262016,0.00359945));
#1710=CARTESIAN_POINT('',(-0.000985033648790752,0.0570606645572789,0.003599725));
#1711=CARTESIAN_POINT('',(-0.000972375420942652,0.0550607046153632,0.0035995875));
#1712=CARTESIAN_POINT('',(0.000394936708226922,0.0578550158229433,0.0036));
#1713=CARTESIAN_POINT('',(0.000394937052510245,0.0570694086183869,0.0036));
#1714=CARTESIAN_POINT('',(0.000394936880368583,0.0570694086183869,0.003599725));
#1715=CARTESIAN_POINT('',(0.000394936708226922,0.0594300661087036,0.00359945));
#1716=CARTESIAN_POINT('',(0.00767784329022996,0.,0.0027726400525841));
#1717=CARTESIAN_POINT('',(0.0122699772743269,0.0497545369473063,-0.00994364638523716));
#1718=CARTESIAN_POINT('',(0.00882355420795875,0.0525117966064182,-0.0004));
#1719=CARTESIAN_POINT('',(0.00737926382078475,0.0536672797098882,0.00359945));
#1720=CARTESIAN_POINT('',(0.00737926382078475,0.,0.00359945));
#1721=CARTESIAN_POINT('',(0.00882355420795875,0.,-0.0004));
#1722=CARTESIAN_POINT('',(0.,0.0485730070005064,-0.014033251790576));
#1723=CARTESIAN_POINT('',(0.,0.0536672797098882,0.00359945));
#1724=CARTESIAN_POINT('',(0.,0.0525117966064182,-0.0004));
#1725=CARTESIAN_POINT('',(-0.000299984104931355,0.0594300661087036,0.00359945));
#1726=CARTESIAN_POINT('',(-0.003075,0.0587300020029443,0.0035995875));
#1727=CARTESIAN_POINT('',(0.000407595311669081,0.055069443729474,0.0035995875));
#1728=CARTESIAN_POINT('',(0.00882355420795875,0.,-0.0007));
#1729=CARTESIAN_POINT('',(0.00882355420795875,0.0663482123441091,-0.0007));
#1730=CARTESIAN_POINT('',(0.00882355420795875,0.0663482123441091,-0.0007));
#1731=CARTESIAN_POINT('',(0.00882355420795875,0.,-0.0007));
#1732=CARTESIAN_POINT('',(0.00882355420795875,0.0525117966064182,-0.0007));
#1733=CARTESIAN_POINT('',(0.00882355420795875,0.0525117966064182,-0.0007));
#1734=CARTESIAN_POINT('',(0.,0.0663482123441091,-0.0007));
#1735=CARTESIAN_POINT('',(-0.00942360962280879,0.0663482123441091,-0.0007));
#1736=CARTESIAN_POINT('',(-0.00942360962280879,0.0663482123441091,-0.0007));
#1737=CARTESIAN_POINT('',(0.,0.0663482123441091,-0.0007));
#1738=CARTESIAN_POINT('',(-0.00942360962280881,1.81637298234748E-18,-0.0007));
#1739=CARTESIAN_POINT('',(-0.0094236096228088,0.0525117966064182,-0.0007));
#1740=CARTESIAN_POINT('',(-0.0094236096228088,0.0525117966064182,-0.0007));
#1741=CARTESIAN_POINT('',(-0.00942360962280881,1.81637298234748E-18,-0.0007));
#1742=CARTESIAN_POINT('',(-0.000300031645886538,0.06843,-0.0007));
#1743=CARTESIAN_POINT('',(-0.000300031645886538,0.06843,-0.0004));
#1744=CARTESIAN_POINT('',(0.0103624737771131,0.06843,-0.0004));
#1745=CARTESIAN_POINT('',(-0.0109625366294856,0.06843,-0.0004));
#1746=CARTESIAN_POINT('',(0.0103624737771131,0.06843,-0.0007));
#1747=CARTESIAN_POINT('',(0.0103624737771131,0.06843,-0.0007));
#1748=CARTESIAN_POINT('',(-0.000300031645886538,0.06843,-0.0007));
#1749=CARTESIAN_POINT('',(-0.0109625366294856,0.06843,-0.0007));
#1750=CARTESIAN_POINT('',(-0.0109625366294856,0.06843,-0.0007));
#1751=CARTESIAN_POINT('',(0.0103624737771131,0.06843,-0.0007));
#1752=CARTESIAN_POINT('',(0.0103624737771131,0.06843,-0.0004));
#1753=CARTESIAN_POINT('',(0.0106802674880106,0.06843,-0.0007));
#1754=CARTESIAN_POINT('',(0.0106802674880106,0.06843,-0.0004));
#1755=CARTESIAN_POINT('',(0.0109499683541135,0.0681659592745131,-0.0007));
#1756=CARTESIAN_POINT('',(0.0109499683541135,0.0681659592745131,-0.0004));
#1757=CARTESIAN_POINT('',(0.0109499683541135,0.0678548350160226,-0.0007));
#1758=CARTESIAN_POINT('',(0.0109499683541135,0.0678548350160226,-0.0004));
#1759=CARTESIAN_POINT('',(0.0103013269829704,0.067794971493447,-0.0004));
#1760=CARTESIAN_POINT('',(0.0109499683541135,0.0678548350160226,-0.0004));
#1761=CARTESIAN_POINT('',(0.0109499683541135,0.0678548350160226,-0.0007));
#1762=CARTESIAN_POINT('',(0.0109499683541135,0.0678548350160226,-0.0007));
#1763=CARTESIAN_POINT('',(0.0103013269829704,0.067794971493447,-0.0007));
#1764=CARTESIAN_POINT('',(0.0109499683541135,0.05943,-0.0007));
#1765=CARTESIAN_POINT('',(0.0109499683541135,0.05943,-0.0004));
#1766=CARTESIAN_POINT('',(0.0109499683541135,0.0510051643730809,-0.0004));
#1767=CARTESIAN_POINT('',(0.0109499683541135,0.0510051643730809,-0.0007));
#1768=CARTESIAN_POINT('',(0.0109499683541135,0.0510051643730809,-0.0007));
#1769=CARTESIAN_POINT('',(0.0109499683541135,0.05943,-0.0007));
#1770=CARTESIAN_POINT('',(0.0109499683541135,0.0510051643730809,-0.0007));
#1771=CARTESIAN_POINT('',(0.0109499683541135,0.0510051643730809,-0.0004));
#1772=CARTESIAN_POINT('',(0.0109499683541135,0.0506940399485659,-0.0007));
#1773=CARTESIAN_POINT('',(0.0109499683541135,0.0506940399485659,-0.0004));
#1774=CARTESIAN_POINT('',(0.0106802694411411,0.05043,-0.0007));
#1775=CARTESIAN_POINT('',(0.0106802694411411,0.05043,-0.0004));
#1776=CARTESIAN_POINT('',(0.010362476926991,0.05043,-0.0007));
#1777=CARTESIAN_POINT('',(0.010362476926991,0.05043,-0.0004));
#1778=CARTESIAN_POINT('',(0.0103013269829704,0.0510650312368218,-0.0004));
#1779=CARTESIAN_POINT('',(0.010362476926991,0.05043,-0.0004));
#1780=CARTESIAN_POINT('',(0.010362476926991,0.05043,-0.0007));
#1781=CARTESIAN_POINT('',(0.010362476926991,0.05043,-0.0007));
#1782=CARTESIAN_POINT('',(0.0103013269829704,0.0510650312368218,-0.0007));
#1783=CARTESIAN_POINT('',(-0.000300031645886538,0.05043,-0.0007));
#1784=CARTESIAN_POINT('',(-0.000300031645886538,0.05043,-0.0004));
#1785=CARTESIAN_POINT('',(-0.0109625397794646,0.05043,-0.0004));
#1786=CARTESIAN_POINT('',(-0.0109625397794646,0.05043,-0.0007));
#1787=CARTESIAN_POINT('',(-0.0109625397794646,0.05043,-0.0007));
#1788=CARTESIAN_POINT('',(-0.000300031645886538,0.05043,-0.0007));
#1789=CARTESIAN_POINT('',(-0.0109625397794646,0.05043,-0.0007));
#1790=CARTESIAN_POINT('',(-0.0109625397794646,0.05043,-0.0004));
#1791=CARTESIAN_POINT('',(-0.0112803328108872,0.05043,-0.0007));
#1792=CARTESIAN_POINT('',(-0.0112803328108872,0.05043,-0.0004));
#1793=CARTESIAN_POINT('',(-0.0115500316458865,0.0506940388941438,-0.0007));
#1794=CARTESIAN_POINT('',(-0.0115500316458865,0.0506940388941438,-0.0004));
#1795=CARTESIAN_POINT('',(-0.0115500316458865,0.0510051626725748,-0.0007));
#1796=CARTESIAN_POINT('',(-0.0115500316458865,0.0510051626725748,-0.0004));
#1797=CARTESIAN_POINT('',(-0.0109013878719669,0.0510650312368218,-0.0004));
#1798=CARTESIAN_POINT('',(-0.0115500316458865,0.0510051626725748,-0.0004));
#1799=CARTESIAN_POINT('',(-0.0115500316458865,0.0510051626725748,-0.0007));
#1800=CARTESIAN_POINT('',(-0.0115500316458865,0.0510051626725748,-0.0007));
#1801=CARTESIAN_POINT('',(-0.0109013878719669,0.0510650312368218,-0.0007));
#1802=CARTESIAN_POINT('',(-0.0115500316458865,0.05943,-0.0007));
#1803=CARTESIAN_POINT('',(-0.0115500316458865,0.05943,-0.0004));
#1804=CARTESIAN_POINT('',(-0.0115500316458865,0.0678548367164338,-0.0004));
#1805=CARTESIAN_POINT('',(-0.0115500316458865,0.0678548367164338,-0.0007));
#1806=CARTESIAN_POINT('',(-0.0115500316458865,0.0678548367164338,-0.0007));
#1807=CARTESIAN_POINT('',(-0.0115500316458865,0.05943,-0.0007));
#1808=CARTESIAN_POINT('',(-0.0115500316458865,0.0678548367164338,-0.0007));
#1809=CARTESIAN_POINT('',(-0.0115500316458865,0.0678548367164338,-0.0004));
#1810=CARTESIAN_POINT('',(-0.0115500316458865,0.0681659603288803,-0.0007));
#1811=CARTESIAN_POINT('',(-0.0115500316458865,0.0681659603288803,-0.0004));
#1812=CARTESIAN_POINT('',(-0.0112803308576979,0.06843,-0.0007));
#1813=CARTESIAN_POINT('',(-0.0112803308576979,0.06843,-0.0004));
#1814=CARTESIAN_POINT('',(-0.0109625366294856,0.06843,-0.0007));
#1815=CARTESIAN_POINT('',(-0.0109625366294856,0.06843,-0.0004));
#1816=CARTESIAN_POINT('',(-0.0109013878719669,0.067794971493447,-0.0004));
#1817=CARTESIAN_POINT('',(-0.0109013878719669,0.067794971493447,-0.0007));
#1818=CARTESIAN_POINT('',(0.,0.0525117966064182,-0.0007));
#1819=CARTESIAN_POINT('',(0.,0.0525117966064182,-0.0007));
#1820=CARTESIAN_POINT('',(-0.000300031645886541,0.05943,-0.0007));
#1821=CARTESIAN_POINT('',(-0.000299984104931355,0.0594300661087036,0.0078));
#1822=CARTESIAN_POINT('',(0.00756043798687855,0.0660610661087036,0.0078));
#1823=CARTESIAN_POINT('',(0.00756043798687855,0.0532578388270379,0.0078));
#1824=CARTESIAN_POINT('',(0.00756043798687855,0.0656022862836631,0.0078));
#1825=CARTESIAN_POINT('',(-0.00858873410493135,0.0656022862836631,0.0078));
#1826=CARTESIAN_POINT('',(-0.00816041086805879,0.0656022862836631,0.0078));
#1827=CARTESIAN_POINT('',(-0.00816041086805879,0.0527990661087036,0.0078));
#1828=CARTESIAN_POINT('',(-0.00816041086805879,0.0532578388270379,0.0078));
#1829=CARTESIAN_POINT('',(0.00798876589506864,0.0532578388270379,0.0078));
#1830=CARTESIAN_POINT('',(-0.000299984104931355,0.0656022862836631,0.00718992));
#1831=CARTESIAN_POINT('',(-0.00816041086805879,0.0656022862836631,0.00718992));
#1832=CARTESIAN_POINT('',(-0.00816041086805878,0.0661883979346508,0.00735924436025712));
#1833=CARTESIAN_POINT('',(0.00756043798687855,0.0656022862836631,0.00718992));
#1834=CARTESIAN_POINT('',(0.00756043798687855,0.0661883979346508,0.00735924436025712));
#1835=CARTESIAN_POINT('',(0.00798876589506865,0.0661883979346508,0.00735924436025712));
#1836=CARTESIAN_POINT('',(0.00756043798687855,0.0656022862836631,0.00718992));
#1837=CARTESIAN_POINT('',(0.00756043798687855,0.0656022862836631,0.00718992));
#1838=CARTESIAN_POINT('',(0.00813424906794499,0.0656022862836631,0.00739713594930257));
#1839=CARTESIAN_POINT('',(0.00756043798687855,0.0656022862836631,0.00718992));
#1840=CARTESIAN_POINT('',(0.00756043798687855,0.0594300661087036,0.00718992));
#1841=CARTESIAN_POINT('',(0.00756043798687855,0.0532578388270379,0.00718992));
#1842=CARTESIAN_POINT('',(0.00813424906794499,0.0532578388270379,0.00739713594930257));
#1843=CARTESIAN_POINT('',(0.00813424906794499,0.0527990661087036,0.00739713594930257));
#1844=CARTESIAN_POINT('',(0.00756043798687855,0.0532578388270379,0.00718992));
#1845=CARTESIAN_POINT('',(0.00756043798687855,0.0532578388270379,0.00718992));
#1846=CARTESIAN_POINT('',(0.00756043798687855,0.052671729695993,0.00735925308272686));
#1847=CARTESIAN_POINT('',(0.00756043798687855,0.0532578388270379,0.00718992));
#1848=CARTESIAN_POINT('',(-0.000299984104931355,0.0532578388270379,0.00718992));
#1849=CARTESIAN_POINT('',(-0.00816041086805879,0.0532578388270379,0.00718992));
#1850=CARTESIAN_POINT('',(-0.00816041086805879,0.052671729695993,0.00735925308272686));
#1851=CARTESIAN_POINT('',(-0.00858873410493135,0.052671729695993,0.00735925308272686));
#1852=CARTESIAN_POINT('',(-0.00816041086805879,0.0532578388270379,0.00718992));
#1853=CARTESIAN_POINT('',(-0.00816041086805879,0.0532578388270379,0.00718992));
#1854=CARTESIAN_POINT('',(-0.008734219823552,0.0532578388270379,0.00739714183522928));
#1855=CARTESIAN_POINT('',(-0.00816041086805879,0.0532578388270379,0.00718992));
#1856=CARTESIAN_POINT('',(-0.00816041086805879,0.0594300661087036,0.00718992));
#1857=CARTESIAN_POINT('',(-0.00816041086805879,0.0656022862836631,0.00718992));
#1858=CARTESIAN_POINT('',(-0.008734219823552,0.0656022862836631,0.00739714183522928));
#1859=CARTESIAN_POINT('',(-0.008734219823552,0.0660610661087036,0.00739714183522928));
#1860=CARTESIAN_POINT('',(-0.00816041086805878,0.0656022862836631,0.00718992));
#1861=CARTESIAN_POINT('',(-0.00816041086805878,0.0656022862836631,0.00718992));
#1862=CARTESIAN_POINT('',(-0.00378435655570532,0.0621015967287243,0.0193074613361955));
#1863=CARTESIAN_POINT('',(-0.00435816551119853,0.0621015967287243,0.0195146831714248));
#1864=CARTESIAN_POINT('',(-0.00378435655570532,0.062687708379712,0.0194767856964526));
#1865=CARTESIAN_POINT('',(-0.0100897027362184,1.94476046690505E-18,0.00364373315874784));
#1866=CARTESIAN_POINT('',(-0.0145740863216935,0.048585890260992,-0.00877377804785486));
#1867=CARTESIAN_POINT('',(-0.0140002773662003,0.048585890260992,-0.00898099988308414));
#1868=CARTESIAN_POINT('',(-0.0140002773662003,0.0479997811299471,-0.00881166680035728));
#1869=CARTESIAN_POINT('',(0.,0.0466515897075451,-0.0134781341577185));
#1870=CARTESIAN_POINT('',(0.0134646416432542,0.0479481591280705,-0.0089903449781559));
#1871=CARTESIAN_POINT('',(0.0134646416432542,0.0485342682591155,-0.00915967806088276));
#1872=CARTESIAN_POINT('',(0.0140384527243206,0.0485342682591155,-0.00895246211158018));
#1873=CARTESIAN_POINT('',(0.0095589443952209,0.,0.00345194751817083));
#1874=CARTESIAN_POINT('',(0.00382278994363916,0.0621531598622966,0.0193361929061551));
#1875=CARTESIAN_POINT('',(0.00324897886257272,0.0621531598622965,0.0191289769568525));
#1876=CARTESIAN_POINT('',(0.00324897886257272,0.0627392715132842,0.0192983013171097));
#1877=CARTESIAN_POINT('',(0.,0.0630521151724798,0.018215401530489));
#1878=CARTESIAN_POINT('',(0.000407595342979816,0.0550694387824769,0.0036));
#1879=CARTESIAN_POINT('',(-0.003075,0.0587300020029443,0.0036));
#1880=MECHANICAL_DESIGN_GEOMETRIC_PRESENTATION_REPRESENTATION('',(#1113),
#1881);
#1881=(
GEOMETRIC_REPRESENTATION_CONTEXT(3)
GLOBAL_UNCERTAINTY_ASSIGNED_CONTEXT((#1882))
GLOBAL_UNIT_ASSIGNED_CONTEXT((#1885,#1884,#1883))
REPRESENTATION_CONTEXT('1.25u','TOP_LEVEL_ASSEMBLY_PART')
);
#1882=UNCERTAINTY_MEASURE_WITH_UNIT(LENGTH_MEASURE(2.05500001077563E-5),
#1885,'DISTANCE_ACCURACY_VALUE','Maximum Tolerance applied to model');
#1883=(
NAMED_UNIT(*)
SI_UNIT($,.STERADIAN.)
SOLID_ANGLE_UNIT()
);
#1884=(
NAMED_UNIT(*)
PLANE_ANGLE_UNIT()
SI_UNIT($,.RADIAN.)
);
#1885=(
LENGTH_UNIT()
NAMED_UNIT(*)
SI_UNIT($,.METRE.)
);
#1886=PRODUCT_DEFINITION_SHAPE('','',#1887);
#1887=PRODUCT_DEFINITION('','',#1889,#1888);
#1888=PRODUCT_DEFINITION_CONTEXT('',#1895,'design');
#1889=PRODUCT_DEFINITION_FORMATION_WITH_SPECIFIED_SOURCE('','',#1891,
 .NOT_KNOWN.);
#1890=PRODUCT_RELATED_PRODUCT_CATEGORY('','',(#1891));
#1891=PRODUCT('1.25u','1.25u','1.25u',(#1893));
#1892=PRODUCT_CATEGORY('','');
#1893=PRODUCT_CONTEXT('',#1895,'mechanical');
#1894=APPLICATION_PROTOCOL_DEFINITION('international standard',
'ap242_managed_model_based_3d_engineering',2020,#1895);
#1895=APPLICATION_CONTEXT('managed model based 3d engineering');
ENDSEC;
END-ISO-10303-21;
